<svg width="1280" height="640" viewBox="0 0 1280 640" fill="none" xmlns="http://www.w3.org/2000/svg">
<rect width="1280" height="640" fill="url(#paint0_linear_1197_32723)"/>
<path d="M605.784 289.171C606.942 291.28 608.261 293.901 609.741 297.032C611.285 300.1 612.861 303.456 614.469 307.099C616.142 310.678 617.783 314.353 619.391 318.124C621 321.895 622.512 325.442 623.927 328.765C625.343 325.442 626.855 321.895 628.463 318.124C630.071 314.353 631.68 310.678 633.288 307.099C634.961 303.456 636.537 300.1 638.017 297.032C639.561 293.901 640.913 291.28 642.071 289.171H655.775C656.418 293.581 656.997 298.534 657.512 304.031C658.091 309.463 658.573 315.152 658.959 321.096C659.41 326.976 659.796 332.888 660.118 338.832C660.504 344.775 660.825 350.368 661.083 355.609H646.413C646.22 349.153 645.963 342.123 645.641 334.517C645.32 326.912 644.837 319.242 644.194 311.509C643.036 314.193 641.749 317.165 640.333 320.425C638.918 323.684 637.503 326.944 636.087 330.203C634.736 333.463 633.417 336.595 632.13 339.598C630.844 342.538 629.75 345.063 628.849 347.172H618.33C617.429 345.063 616.335 342.538 615.048 339.598C613.762 336.595 612.411 333.463 610.995 330.203C609.644 326.944 608.261 323.684 606.845 320.425C605.43 317.165 604.143 314.193 602.985 311.509C602.342 319.242 601.859 326.912 601.537 334.517C601.216 342.123 600.958 349.153 600.765 355.609H586.096C586.353 350.368 586.643 344.775 586.965 338.832C587.351 332.888 587.737 326.976 588.123 321.096C588.573 315.152 589.056 309.463 589.57 304.031C590.149 298.534 590.761 293.581 591.404 289.171H605.784Z" fill="white"/>
<path d="M693.071 345.638C694.487 345.638 695.838 345.606 697.124 345.542C698.411 345.478 699.441 345.383 700.213 345.255V334.422C699.634 334.294 698.765 334.166 697.607 334.038C696.449 333.91 695.387 333.846 694.422 333.846C693.071 333.846 691.784 333.942 690.562 334.134C689.404 334.262 688.374 334.549 687.474 334.997C686.573 335.444 685.865 336.051 685.351 336.818C684.836 337.585 684.578 338.544 684.578 339.694C684.578 341.931 685.318 343.497 686.798 344.392C688.342 345.223 690.433 345.638 693.071 345.638ZM691.913 303.839C696.159 303.839 699.698 304.318 702.529 305.277C705.36 306.236 707.612 307.61 709.284 309.4C711.022 311.189 712.244 313.362 712.952 315.919C713.659 318.475 714.013 321.319 714.013 324.451V354.171C711.954 354.618 709.091 355.129 705.424 355.705C701.757 356.344 697.317 356.663 692.106 356.663C688.825 356.663 685.833 356.376 683.131 355.8C680.493 355.225 678.209 354.298 676.279 353.02C674.349 351.678 672.869 349.952 671.839 347.843C670.81 345.734 670.295 343.146 670.295 340.078C670.295 337.138 670.874 334.645 672.032 332.6C673.255 330.555 674.863 328.925 676.858 327.711C678.852 326.496 681.136 325.633 683.71 325.122C686.283 324.547 688.953 324.259 691.72 324.259C693.586 324.259 695.226 324.355 696.642 324.547C698.122 324.675 699.312 324.867 700.213 325.122V323.78C700.213 321.351 699.473 319.402 697.993 317.932C696.513 316.462 693.94 315.727 690.272 315.727C687.828 315.727 685.415 315.919 683.034 316.302C680.654 316.622 678.595 317.101 676.858 317.74L675.024 306.236C675.861 305.98 676.89 305.725 678.112 305.469C679.399 305.149 680.782 304.894 682.262 304.702C683.742 304.446 685.286 304.255 686.895 304.127C688.567 303.935 690.24 303.839 691.913 303.839Z" fill="white"/>
<path d="M741.589 345.351C744.227 345.351 746.093 345.095 747.186 344.584C748.28 344.072 748.827 343.082 748.827 341.612C748.827 340.461 748.119 339.471 746.704 338.64C745.288 337.745 743.133 336.754 740.238 335.668C737.986 334.837 735.927 333.974 734.061 333.079C732.26 332.185 730.716 331.13 729.429 329.916C728.142 328.637 727.145 327.135 726.437 325.41C725.729 323.684 725.376 321.607 725.376 319.178C725.376 314.449 727.145 310.71 730.683 307.962C734.222 305.213 739.08 303.839 745.256 303.839C748.344 303.839 751.304 304.127 754.135 304.702C756.966 305.213 759.218 305.788 760.89 306.428L758.381 317.548C756.708 316.973 754.875 316.462 752.88 316.015C750.95 315.567 748.763 315.343 746.318 315.343C741.814 315.343 739.562 316.59 739.562 319.082C739.562 319.658 739.659 320.169 739.852 320.616C740.045 321.064 740.431 321.511 741.01 321.958C741.589 322.342 742.361 322.789 743.326 323.301C744.355 323.748 745.642 324.259 747.186 324.835C750.339 325.985 752.945 327.135 755.003 328.286C757.062 329.372 758.671 330.587 759.829 331.929C761.051 333.207 761.888 334.645 762.338 336.243C762.853 337.841 763.11 339.694 763.11 341.803C763.11 346.789 761.212 350.56 757.416 353.116C753.684 355.673 748.377 356.951 741.492 356.951C736.989 356.951 733.225 356.567 730.201 355.8C727.241 355.033 725.183 354.394 724.024 353.883L726.437 342.283C728.882 343.242 731.391 344.008 733.965 344.584C736.538 345.095 739.08 345.351 741.589 345.351Z" fill="white"/>
<path d="M771.444 330.395C771.444 326.752 772.023 323.333 773.181 320.137C774.403 316.877 776.14 314.065 778.392 311.7C780.644 309.272 783.378 307.354 786.595 305.948C789.812 304.542 793.48 303.839 797.597 303.839C800.299 303.839 802.776 304.095 805.028 304.606C807.28 305.053 809.468 305.725 811.591 306.619L808.599 318.028C807.248 317.517 805.768 317.069 804.16 316.686C802.551 316.302 800.75 316.11 798.755 316.11C794.509 316.11 791.324 317.421 789.201 320.041C787.142 322.662 786.113 326.113 786.113 330.395C786.113 334.933 787.078 338.448 789.008 340.941C791.003 343.433 794.445 344.68 799.334 344.68C801.072 344.68 802.937 344.52 804.932 344.2C806.926 343.881 808.76 343.369 810.433 342.666L812.459 354.362C810.787 355.065 808.696 355.673 806.186 356.184C803.677 356.695 800.911 356.951 797.887 356.951C793.254 356.951 789.265 356.28 785.92 354.938C782.574 353.532 779.808 351.646 777.62 349.281C775.497 346.917 773.921 344.136 772.891 340.941C771.926 337.681 771.444 334.166 771.444 330.395Z" fill="white"/>
<path d="M839.058 345.638C840.473 345.638 841.824 345.606 843.111 345.542C844.398 345.478 845.427 345.383 846.199 345.255V334.422C845.62 334.294 844.752 334.166 843.594 334.038C842.436 333.91 841.374 333.846 840.409 333.846C839.058 333.846 837.771 333.942 836.549 334.134C835.391 334.262 834.361 334.549 833.46 334.997C832.56 335.444 831.852 336.051 831.337 336.818C830.823 337.585 830.565 338.544 830.565 339.694C830.565 341.931 831.305 343.497 832.785 344.392C834.329 345.223 836.42 345.638 839.058 345.638ZM837.9 303.839C842.146 303.839 845.685 304.318 848.516 305.277C851.346 306.236 853.598 307.61 855.271 309.4C857.008 311.189 858.231 313.362 858.938 315.919C859.646 318.475 860 321.319 860 324.451V354.171C857.941 354.618 855.078 355.129 851.411 355.705C847.744 356.344 843.304 356.663 838.093 356.663C834.811 356.663 831.82 356.376 829.118 355.8C826.48 355.225 824.196 354.298 822.265 353.02C820.335 351.678 818.856 349.952 817.826 347.843C816.797 345.734 816.282 343.146 816.282 340.078C816.282 337.138 816.861 334.645 818.019 332.6C819.242 330.555 820.85 328.925 822.845 327.711C824.839 326.496 827.123 325.633 829.697 325.122C832.27 324.547 834.94 324.259 837.707 324.259C839.573 324.259 841.213 324.355 842.629 324.547C844.108 324.675 845.299 324.867 846.199 325.122V323.78C846.199 321.351 845.46 319.402 843.98 317.932C842.5 316.462 839.926 315.727 836.259 315.727C833.814 315.727 831.402 315.919 829.021 316.302C826.641 316.622 824.582 317.101 822.845 317.74L821.011 306.236C821.847 305.98 822.877 305.725 824.099 305.469C825.386 305.149 826.769 304.894 828.249 304.702C829.729 304.446 831.273 304.255 832.881 304.127C834.554 303.935 836.227 303.839 837.9 303.839Z" fill="white"/>
<path d="M545.839 320C545.839 354.794 517.445 383 482.419 383C447.394 383 419 354.794 419 320C419 285.206 447.394 257 482.419 257C517.445 257 545.839 285.206 545.839 320Z" fill="url(#paint1_linear_1197_32723)"/>
<path d="M470.011 307.674C470.011 303.892 473.097 300.826 476.905 300.826H556.868C560.675 300.826 563.762 303.892 563.762 307.674V344.652C563.762 348.434 560.675 351.5 556.868 351.5H476.905C473.097 351.5 470.011 348.434 470.011 344.652V307.674Z" fill="white"/>
<defs>
<linearGradient id="paint0_linear_1197_32723" x1="640.622" y1="0" x2="640.622" y2="640" gradientUnits="userSpaceOnUse">
<stop stop-color="#FFAA83"/>
<stop offset="0.0001" stop-color="#FFAF8A"/>
<stop offset="1" stop-color="#FFABB9"/>
</linearGradient>
<linearGradient id="paint1_linear_1197_32723" x1="639.5" y1="257" x2="639.5" y2="383" gradientUnits="userSpaceOnUse">
<stop stop-color="#FE3D67"/>
<stop offset="1" stop-color="#FF7131"/>
</linearGradient>
</defs>
</svg>
