<svg width="1280" height="640" viewBox="0 0 1280 640" fill="none" xmlns="http://www.w3.org/2000/svg">
<rect width="1280" height="640" fill="url(#paint0_linear_1197_32720)"/>
<path d="M540.797 400.309C541.775 402.101 542.889 404.329 544.138 406.99C545.442 409.598 546.773 412.45 548.131 415.546C549.543 418.588 550.928 421.712 552.287 424.917C553.645 428.122 554.921 431.137 556.116 433.962C557.311 431.137 558.588 428.122 559.946 424.917C561.304 421.712 562.662 418.588 564.02 415.546C565.433 412.45 566.764 409.598 568.013 406.99C569.317 404.329 570.458 402.101 571.435 400.309H583.006C583.549 404.057 584.038 408.267 584.473 412.939C584.962 417.556 585.369 422.391 585.695 427.443C586.075 432.441 586.401 437.466 586.673 442.518C586.999 447.57 587.27 452.323 587.488 456.777H575.102C574.939 451.291 574.722 445.315 574.45 438.851C574.179 432.386 573.771 425.868 573.228 419.295C572.25 421.576 571.164 424.102 569.969 426.873C568.774 429.643 567.578 432.414 566.383 435.184C565.243 437.954 564.129 440.616 563.042 443.169C561.956 445.668 561.033 447.814 560.272 449.607H551.39C550.63 447.814 549.706 445.668 548.62 443.169C547.533 440.616 546.392 437.954 545.197 435.184C544.057 432.414 542.889 429.643 541.694 426.873C540.498 424.102 539.412 421.576 538.434 419.295C537.891 425.868 537.484 432.386 537.212 438.851C536.94 445.315 536.723 451.291 536.56 456.777H524.174C524.392 452.323 524.636 447.57 524.908 442.518C525.234 437.466 525.56 432.441 525.886 427.443C526.266 422.391 526.673 417.556 527.108 412.939C527.597 408.267 528.113 404.057 528.656 400.309H540.797Z" fill="white"/>
<path d="M614.497 448.303C615.692 448.303 616.833 448.276 617.919 448.221C619.005 448.167 619.875 448.086 620.527 447.977V438.769C620.038 438.661 619.304 438.552 618.326 438.443C617.349 438.335 616.452 438.28 615.637 438.28C614.497 438.28 613.41 438.362 612.378 438.525C611.4 438.633 610.531 438.878 609.771 439.258C609.01 439.638 608.413 440.155 607.978 440.806C607.543 441.458 607.326 442.273 607.326 443.251C607.326 445.152 607.951 446.483 609.2 447.244C610.504 447.95 612.269 448.303 614.497 448.303ZM613.519 412.776C617.104 412.776 620.092 413.183 622.482 413.998C624.872 414.813 626.774 415.981 628.186 417.502C629.653 419.023 630.685 420.87 631.282 423.043C631.88 425.216 632.179 427.633 632.179 430.295V455.555C630.44 455.935 628.023 456.37 624.927 456.859C621.83 457.402 618.082 457.674 613.682 457.674C610.911 457.674 608.385 457.429 606.104 456.94C603.877 456.451 601.948 455.664 600.318 454.577C598.689 453.436 597.439 451.97 596.57 450.177C595.701 448.384 595.266 446.184 595.266 443.577C595.266 441.078 595.755 438.959 596.733 437.221C597.765 435.483 599.123 434.098 600.807 433.065C602.491 432.033 604.42 431.3 606.593 430.865C608.766 430.376 611.02 430.132 613.356 430.132C614.931 430.132 616.316 430.213 617.512 430.376C618.761 430.485 619.766 430.648 620.527 430.865V429.725C620.527 427.66 619.902 426.003 618.652 424.754C617.403 423.505 615.23 422.88 612.134 422.88C610.069 422.88 608.032 423.043 606.022 423.369C604.012 423.64 602.274 424.048 600.807 424.591L599.259 414.813C599.965 414.596 600.834 414.378 601.867 414.161C602.953 413.889 604.121 413.672 605.37 413.509C606.62 413.292 607.924 413.129 609.282 413.02C610.694 412.857 612.106 412.776 613.519 412.776Z" fill="white"/>
<path d="M655.462 448.059C657.689 448.059 659.264 447.841 660.188 447.407C661.111 446.972 661.573 446.13 661.573 444.881C661.573 443.903 660.975 443.061 659.78 442.355C658.585 441.594 656.765 440.752 654.321 439.829C652.42 439.122 650.681 438.389 649.106 437.629C647.585 436.868 646.281 435.972 645.195 434.94C644.108 433.853 643.266 432.576 642.669 431.11C642.071 429.643 641.772 427.878 641.772 425.813C641.772 421.793 643.266 418.616 646.254 416.28C649.242 413.944 653.343 412.776 658.558 412.776C661.166 412.776 663.664 413.02 666.055 413.509C668.445 413.944 670.346 414.433 671.759 414.976L669.64 424.428C668.228 423.939 666.679 423.505 664.995 423.124C663.366 422.744 661.519 422.554 659.454 422.554C655.652 422.554 653.75 423.613 653.75 425.732C653.75 426.221 653.832 426.655 653.995 427.036C654.158 427.416 654.484 427.796 654.973 428.176C655.462 428.502 656.114 428.883 656.928 429.317C657.798 429.697 658.884 430.132 660.188 430.621C662.85 431.599 665.05 432.576 666.788 433.554C668.526 434.478 669.884 435.51 670.862 436.651C671.894 437.737 672.601 438.959 672.981 440.318C673.415 441.676 673.633 443.251 673.633 445.044C673.633 449.281 672.03 452.486 668.825 454.659C665.674 456.832 661.193 457.918 655.38 457.918C651.578 457.918 648.4 457.592 645.847 456.94C643.348 456.288 641.609 455.745 640.631 455.311L642.669 445.451C644.733 446.266 646.851 446.918 649.024 447.407C651.197 447.841 653.343 448.059 655.462 448.059Z" fill="white"/>
<path d="M680.669 435.347C680.669 432.251 681.158 429.344 682.136 426.628C683.168 423.858 684.635 421.467 686.536 419.458C688.437 417.393 690.746 415.764 693.462 414.568C696.178 413.373 699.275 412.776 702.751 412.776C705.033 412.776 707.124 412.993 709.026 413.428C710.927 413.808 712.774 414.378 714.566 415.139L712.04 424.835C710.9 424.401 709.65 424.021 708.292 423.695C706.934 423.369 705.413 423.206 703.729 423.206C700.144 423.206 697.455 424.319 695.662 426.547C693.924 428.774 693.055 431.707 693.055 435.347C693.055 439.204 693.869 442.192 695.499 444.31C697.183 446.429 700.089 447.488 704.218 447.488C705.685 447.488 707.26 447.352 708.944 447.081C710.628 446.809 712.176 446.375 713.589 445.777L715.3 455.718C713.887 456.316 712.122 456.832 710.003 457.266C707.885 457.701 705.549 457.918 702.996 457.918C699.084 457.918 695.716 457.348 692.892 456.207C690.067 455.012 687.731 453.409 685.884 451.399C684.091 449.389 682.76 447.026 681.891 444.31C681.076 441.54 680.669 438.552 680.669 435.347Z" fill="white"/>
<path d="M737.758 448.303C738.953 448.303 740.094 448.276 741.18 448.221C742.267 448.167 743.136 448.086 743.788 447.977V438.769C743.299 438.661 742.565 438.552 741.587 438.443C740.61 438.335 739.713 438.28 738.898 438.28C737.758 438.28 736.671 438.362 735.639 438.525C734.661 438.633 733.792 438.878 733.032 439.258C732.271 439.638 731.674 440.155 731.239 440.806C730.804 441.458 730.587 442.273 730.587 443.251C730.587 445.152 731.212 446.483 732.461 447.244C733.765 447.95 735.53 448.303 737.758 448.303ZM736.78 412.776C740.365 412.776 743.353 413.183 745.743 413.998C748.133 414.813 750.035 415.981 751.447 417.502C752.914 419.023 753.946 420.87 754.543 423.043C755.141 425.216 755.44 427.633 755.44 430.295V455.555C753.701 455.935 751.284 456.37 748.188 456.859C745.091 457.402 741.343 457.674 736.943 457.674C734.172 457.674 731.646 457.429 729.365 456.94C727.138 456.451 725.209 455.664 723.579 454.577C721.95 453.436 720.7 451.97 719.831 450.177C718.962 448.384 718.527 446.184 718.527 443.577C718.527 441.078 719.016 438.959 719.994 437.221C721.026 435.483 722.384 434.098 724.068 433.065C725.752 432.033 727.681 431.3 729.854 430.865C732.027 430.376 734.281 430.132 736.617 430.132C738.192 430.132 739.578 430.213 740.773 430.376C742.022 430.485 743.027 430.648 743.788 430.865V429.725C743.788 427.66 743.163 426.003 741.913 424.754C740.664 423.505 738.491 422.88 735.395 422.88C733.33 422.88 731.293 423.043 729.283 423.369C727.273 423.64 725.535 424.048 724.068 424.591L722.52 414.813C723.226 414.596 724.095 414.378 725.128 414.161C726.214 413.889 727.382 413.672 728.631 413.509C729.881 413.292 731.185 413.129 732.543 413.02C733.955 412.857 735.367 412.776 736.78 412.776Z" fill="white"/>
<path d="M745.342 275.766C745.342 333.626 698.308 380.531 640.288 380.531C582.269 380.531 535.234 333.626 535.234 275.766C535.234 217.905 582.269 171 640.288 171C698.308 171 745.342 217.905 745.342 275.766Z" fill="url(#paint1_linear_1197_32720)"/>
<path d="M619.734 255.268C619.734 248.979 624.847 243.88 631.153 243.88H763.612C769.919 243.88 775.031 248.979 775.031 255.268V316.761C775.031 323.05 769.919 328.148 763.612 328.148H631.153C624.847 328.148 619.734 323.05 619.734 316.761V255.268Z" fill="white"/>
<defs>
<linearGradient id="paint0_linear_1197_32720" x1="640.622" y1="0" x2="640.622" y2="640" gradientUnits="userSpaceOnUse">
<stop stop-color="#FFAA83"/>
<stop offset="0.0001" stop-color="#FFAF8A"/>
<stop offset="1" stop-color="#FFABB9"/>
</linearGradient>
<linearGradient id="paint1_linear_1197_32720" x1="640" y1="171" x2="640" y2="469" gradientUnits="userSpaceOnUse">
<stop stop-color="#FE3D67"/>
<stop offset="1" stop-color="#FF7131"/>
</linearGradient>
</defs>
</svg>
