<svg width="241" height="211" viewBox="0 0 241 211" fill="none" xmlns="http://www.w3.org/2000/svg">
<path d="M210.922 105.172C210.922 163.257 163.706 210.344 105.461 210.344C47.2166 210.344 0 163.257 0 105.172C0 47.087 47.2166 0 105.461 0C163.706 0 210.922 47.087 210.922 105.172Z" fill="url(#paint0_linear_1197_32693)"/>
<path d="M84.8275 84.5948C84.8275 78.2812 89.9598 73.163 96.2907 73.163H229.264C235.594 73.163 240.727 78.2812 240.727 84.5948V146.326C240.727 152.64 235.594 157.758 229.264 157.758H96.2907C89.9598 157.758 84.8275 152.64 84.8275 146.326V84.5948Z" fill="black"/>
<defs>
<linearGradient id="paint0_linear_1197_32693" x1="120.363" y1="0" x2="120.363" y2="210.344" gradientUnits="userSpaceOnUse">
<stop stop-color="#FE3D67"/>
<stop offset="1" stop-color="#FF7131"/>
</linearGradient>
</defs>
</svg>
