<svg width="863" height="254" viewBox="0 0 863 254" fill="none" xmlns="http://www.w3.org/2000/svg">
<g filter="url(#filter0_d_1197_32703)">
<path d="M366.132 62.8102C368.377 66.928 370.934 72.0441 373.803 78.1585C376.797 84.148 379.853 90.6991 382.971 97.8117C386.214 104.8 389.395 111.975 392.514 119.337C395.632 126.699 398.564 133.624 401.308 140.113C404.052 133.624 406.983 126.699 410.102 119.337C413.22 111.975 416.339 104.8 419.457 97.8117C422.7 90.6991 425.756 84.148 428.625 78.1585C431.619 72.0441 434.239 66.928 436.484 62.8102H463.053C464.3 71.4202 465.423 81.0909 466.421 91.8222C467.544 102.429 468.479 113.534 469.228 125.139C470.101 136.619 470.849 148.162 471.473 159.766C472.221 171.371 472.845 182.29 473.344 192.522H444.904C444.529 179.919 444.03 166.193 443.407 151.343C442.783 136.494 441.848 121.52 440.6 106.422C438.355 111.663 435.86 117.465 433.116 123.829C430.372 130.193 427.627 136.557 424.883 142.921C422.264 149.285 419.707 155.399 417.212 161.264C414.717 167.004 412.597 171.933 410.85 176.05H390.456C388.709 171.933 386.589 167.004 384.094 161.264C381.599 155.399 378.98 149.285 376.235 142.921C373.616 136.557 370.934 130.193 368.19 123.829C365.446 117.465 362.951 111.663 360.706 106.422C359.458 121.52 358.523 136.494 357.899 151.343C357.275 166.193 356.776 179.919 356.402 192.522H327.962C328.461 182.29 329.022 171.371 329.646 159.766C330.394 148.162 331.143 136.619 331.891 125.139C332.764 113.534 333.7 102.429 334.698 91.8222C335.82 81.0909 337.005 71.4202 338.253 62.8102H366.132Z" fill="white"/>
<path d="M535.362 173.056C538.107 173.056 540.726 172.993 543.221 172.868C545.716 172.744 547.711 172.557 549.208 172.307V151.156C548.086 150.907 546.402 150.657 544.156 150.408C541.911 150.158 539.853 150.033 537.982 150.033C535.362 150.033 532.868 150.22 530.498 150.595C528.252 150.844 526.257 151.406 524.51 152.279C522.764 153.153 521.392 154.338 520.394 155.836C519.396 157.333 518.897 159.205 518.897 161.451C518.897 165.818 520.331 168.875 523.2 170.622C526.194 172.245 530.248 173.056 535.362 173.056ZM533.117 91.4478C541.35 91.4478 548.21 92.3837 553.699 94.2554C559.187 96.1272 563.553 98.81 566.796 102.304C570.164 105.798 572.534 110.04 573.906 115.032C575.279 120.023 575.965 125.576 575.965 131.69V189.714C571.973 190.588 566.422 191.586 559.312 192.709C552.202 193.957 543.595 194.581 533.491 194.581C527.13 194.581 521.329 194.019 516.09 192.896C510.976 191.773 506.548 189.964 502.806 187.468C499.064 184.848 496.195 181.478 494.199 177.361C492.203 173.243 491.205 168.189 491.205 162.2C491.205 156.46 492.328 151.593 494.573 147.6C496.943 143.607 500.062 140.425 503.928 138.054C507.795 135.683 512.224 133.999 517.213 133C522.203 131.877 527.379 131.316 532.743 131.316C536.36 131.316 539.541 131.503 542.285 131.877C545.154 132.127 547.462 132.501 549.208 133V130.38C549.208 125.638 547.774 121.832 544.905 118.962C542.036 116.092 537.046 114.657 529.936 114.657C525.196 114.657 520.519 115.032 515.903 115.78C511.288 116.404 507.296 117.34 503.928 118.588L500.373 96.1272C501.995 95.628 503.991 95.1289 506.361 94.6298C508.856 94.0059 511.537 93.5067 514.406 93.1324C517.275 92.6333 520.269 92.2589 523.388 92.0093C526.631 91.635 529.874 91.4478 533.117 91.4478Z" fill="white"/>
<path d="M629.427 172.494C634.542 172.494 638.159 171.995 640.28 170.997C642.4 169.998 643.46 168.064 643.46 165.194C643.46 162.948 642.088 161.014 639.344 159.392C636.6 157.645 632.421 155.711 626.808 153.59C622.442 151.967 618.45 150.283 614.833 148.536C611.34 146.789 608.347 144.73 605.852 142.359C603.357 139.863 601.424 136.931 600.052 133.562C598.68 130.193 597.993 126.137 597.993 121.396C597.993 112.162 601.424 104.862 608.284 99.4963C615.145 94.1306 624.563 91.4478 636.537 91.4478C642.525 91.4478 648.263 92.0093 653.751 93.1324C659.24 94.1306 663.606 95.2537 666.849 96.5015L661.984 118.214C658.741 117.091 655.186 116.092 651.319 115.219C647.577 114.345 643.336 113.909 638.596 113.909C629.864 113.909 625.498 116.342 625.498 121.208C625.498 122.332 625.685 123.33 626.059 124.203C626.434 125.077 627.182 125.95 628.305 126.824C629.427 127.572 630.924 128.446 632.795 129.444C634.791 130.318 637.286 131.316 640.28 132.439C646.392 134.685 651.444 136.931 655.435 139.177C659.427 141.298 662.545 143.669 664.791 146.29C667.161 148.785 668.782 151.593 669.655 154.713C670.653 157.832 671.152 161.451 671.152 165.569C671.152 175.302 667.472 182.664 660.113 187.655C652.878 192.647 642.587 195.142 629.24 195.142C620.509 195.142 613.211 194.393 607.349 192.896C601.611 191.399 597.619 190.151 595.374 189.153L600.052 166.505C604.792 168.376 609.656 169.874 614.646 170.997C619.635 171.995 624.563 172.494 629.427 172.494Z" fill="white"/>
<path d="M687.309 143.295C687.309 136.182 688.432 129.507 690.677 123.267C693.047 116.903 696.415 111.413 700.781 106.796C705.147 102.054 710.448 98.3109 716.685 95.5656C722.922 92.8204 730.032 91.4478 738.015 91.4478C743.254 91.4478 748.056 91.9469 752.422 92.9452C756.788 93.8187 761.029 95.1289 765.146 96.8759L759.345 119.15C756.726 118.151 753.857 117.278 750.738 116.529C747.62 115.78 744.127 115.406 740.26 115.406C732.028 115.406 725.853 117.964 721.737 123.08C717.745 128.196 715.749 134.935 715.749 143.295C715.749 152.155 717.62 159.018 721.363 163.884C725.229 168.751 731.903 171.184 741.383 171.184C744.751 171.184 748.368 170.872 752.235 170.248C756.102 169.624 759.657 168.626 762.9 167.253L766.829 190.088C763.586 191.461 759.532 192.647 754.668 193.645C749.803 194.643 744.439 195.142 738.576 195.142C729.595 195.142 721.862 193.832 715.375 191.212C708.889 188.466 703.525 184.785 699.284 180.168C695.168 175.551 692.112 170.123 690.116 163.884C688.245 157.52 687.309 150.657 687.309 143.295Z" fill="white"/>
<path d="M818.398 173.056C821.142 173.056 823.762 172.993 826.256 172.868C828.751 172.744 830.747 172.557 832.244 172.307V151.156C831.121 150.907 829.437 150.657 827.192 150.408C824.947 150.158 822.888 150.033 821.017 150.033C818.398 150.033 815.903 150.22 813.533 150.595C811.288 150.844 809.292 151.406 807.546 152.279C805.799 153.153 804.427 154.338 803.429 155.836C802.431 157.333 801.932 159.205 801.932 161.451C801.932 165.818 803.367 168.875 806.236 170.622C809.23 172.245 813.284 173.056 818.398 173.056ZM816.153 91.4478C824.385 91.4478 831.246 92.3837 836.734 94.2554C842.223 96.1272 846.589 98.81 849.832 102.304C853.2 105.798 855.57 110.04 856.942 115.032C858.314 120.023 859 125.576 859 131.69V189.714C855.008 190.588 849.458 191.586 842.348 192.709C835.237 193.957 826.631 194.581 816.527 194.581C810.165 194.581 804.365 194.019 799.126 192.896C794.012 191.773 789.583 189.964 785.841 187.468C782.099 184.848 779.23 181.478 777.234 177.361C775.239 173.243 774.241 168.189 774.241 162.2C774.241 156.46 775.363 151.593 777.609 147.6C779.979 143.607 783.097 140.425 786.964 138.054C790.831 135.683 795.259 133.999 800.248 133C805.238 131.877 810.415 131.316 815.778 131.316C819.396 131.316 822.577 131.503 825.321 131.877C828.19 132.127 830.497 132.501 832.244 133V130.38C832.244 125.638 830.809 121.832 827.94 118.962C825.071 116.092 820.082 114.657 812.972 114.657C808.232 114.657 803.554 115.032 798.939 115.78C794.323 116.404 790.332 117.34 786.964 118.588L783.409 96.1272C785.031 95.628 787.026 95.1289 789.396 94.6298C791.891 94.0059 794.573 93.5067 797.442 93.1324C800.311 92.6333 803.305 92.2589 806.423 92.0093C809.666 91.635 812.909 91.4478 816.153 91.4478Z" fill="white"/>
<path d="M249.912 123C249.912 190.931 194.862 246 126.956 246C59.0492 246 4 190.931 4 123C4 55.069 59.0492 0 126.956 0C194.862 0 249.912 55.069 249.912 123Z" fill="url(#paint0_linear_1197_32703)"/>
<path d="M102.899 98.9348C102.899 91.551 108.883 85.5652 116.264 85.5652H271.295C278.676 85.5652 284.66 91.551 284.66 98.9348V171.13C284.66 178.514 278.676 184.5 271.295 184.5H116.264C108.883 184.5 102.899 178.514 102.899 171.13V98.9348Z" fill="white"/>
</g>
<defs>
<filter id="filter0_d_1197_32703" x="0" y="0" width="863" height="254" filterUnits="userSpaceOnUse" color-interpolation-filters="sRGB">
<feFlood flood-opacity="0" result="BackgroundImageFix"/>
<feColorMatrix in="SourceAlpha" type="matrix" values="0 0 0 0 0 0 0 0 0 0 0 0 0 0 0 0 0 0 127 0" result="hardAlpha"/>
<feOffset dy="4"/>
<feGaussianBlur stdDeviation="2"/>
<feComposite in2="hardAlpha" operator="out"/>
<feColorMatrix type="matrix" values="0 0 0 0 0 0 0 0 0 0 0 0 0 0 0 0 0 0 0.25 0"/>
<feBlend mode="normal" in2="BackgroundImageFix" result="effect1_dropShadow_1197_32703"/>
<feBlend mode="normal" in="SourceGraphic" in2="effect1_dropShadow_1197_32703" result="shape"/>
</filter>
<linearGradient id="paint0_linear_1197_32703" x1="431.5" y1="0" x2="431.5" y2="246" gradientUnits="userSpaceOnUse">
<stop stop-color="#FE3D67"/>
<stop offset="1" stop-color="#FF7131"/>
</linearGradient>
</defs>
</svg>
