<svg width="241" height="241" viewBox="0 0 241 241" fill="none" xmlns="http://www.w3.org/2000/svg">
<path d="M40.2723 185.448C41.063 186.897 41.9637 188.699 42.9741 190.851C44.0285 192.96 45.1048 195.266 46.2031 197.771C47.3454 200.231 48.4656 202.757 49.5639 205.349C50.6622 207.941 51.6947 210.379 52.6612 212.664C53.6277 210.379 54.6601 207.941 55.7584 205.349C56.8567 202.757 57.955 200.231 59.0533 197.771C60.1956 195.266 61.2719 192.96 62.2823 190.851C63.3367 188.699 64.2593 186.897 65.0501 185.448H74.4077C74.847 188.479 75.2424 191.884 75.5938 195.662C75.9892 199.396 76.3187 203.306 76.5823 207.392C76.8898 211.434 77.1534 215.497 77.3731 219.583C77.6367 223.669 77.8563 227.513 78.0321 231.115H68.0155C67.8837 226.678 67.708 221.846 67.4883 216.618C67.2686 211.39 66.9392 206.118 66.4998 200.802C65.7091 202.647 64.8304 204.69 63.8639 206.931C62.8974 209.171 61.9309 211.412 60.9644 213.652C60.0418 215.893 59.1412 218.045 58.2625 220.11C57.3839 222.131 56.637 223.866 56.022 225.316H48.8391C48.224 223.866 47.4772 222.131 46.5985 220.11C45.7199 218.045 44.7973 215.893 43.8308 213.652C42.9082 211.412 41.9637 209.171 40.9971 206.931C40.0306 204.69 39.152 202.647 38.3612 200.802C37.9219 206.118 37.5924 211.39 37.3727 216.618C37.1531 221.846 36.9773 226.678 36.8455 231.115H26.829C27.0047 227.513 27.2024 223.669 27.4221 219.583C27.6857 215.497 27.9492 211.434 28.2128 207.392C28.5204 203.306 28.8499 199.396 29.2013 195.662C29.5967 191.884 30.0141 188.479 30.4534 185.448H40.2723Z" fill="white"/>
<path d="M99.8748 224.262C100.841 224.262 101.764 224.24 102.643 224.196C103.521 224.152 104.224 224.086 104.751 223.998V216.552C104.356 216.464 103.763 216.376 102.972 216.288C102.181 216.2 101.456 216.156 100.797 216.156C99.8748 216.156 98.9962 216.222 98.1615 216.354C97.3707 216.442 96.6678 216.64 96.0527 216.947C95.4377 217.255 94.9544 217.672 94.6029 218.199C94.2515 218.726 94.0758 219.385 94.0758 220.176C94.0758 221.714 94.581 222.79 95.5914 223.405C96.6458 223.976 98.0736 224.262 99.8748 224.262ZM99.084 195.53C101.984 195.53 104.4 195.86 106.333 196.519C108.266 197.178 109.804 198.122 110.946 199.352C112.132 200.582 112.967 202.076 113.45 203.833C113.933 205.591 114.175 207.546 114.175 209.698V230.127C112.769 230.434 110.814 230.786 108.31 231.181C105.806 231.62 102.774 231.84 99.2158 231.84C96.9753 231.84 94.9324 231.642 93.0873 231.247C91.2861 230.852 89.7265 230.215 88.4085 229.336C87.0905 228.413 86.0801 227.227 85.3772 225.777C84.6742 224.328 84.3228 222.548 84.3228 220.44C84.3228 218.419 84.7182 216.705 85.509 215.3C86.3437 213.894 87.442 212.774 88.8039 211.939C90.1658 211.104 91.7254 210.511 93.4827 210.16C95.24 209.764 97.0632 209.566 98.9522 209.566C100.226 209.566 101.347 209.632 102.313 209.764C103.324 209.852 104.136 209.984 104.751 210.16V209.237C104.751 207.568 104.246 206.228 103.236 205.217C102.225 204.207 100.468 203.701 97.9638 203.701C96.2943 203.701 94.6469 203.833 93.0214 204.097C91.3959 204.317 89.9901 204.646 88.8039 205.085L87.5518 197.178C88.1229 197.002 88.8258 196.826 89.6606 196.65C90.5392 196.431 91.4837 196.255 92.4942 196.123C93.5046 195.947 94.559 195.816 95.6573 195.728C96.7996 195.596 97.9418 195.53 99.084 195.53Z" fill="white"/>
<path d="M133.004 224.064C134.805 224.064 136.079 223.888 136.826 223.537C137.573 223.185 137.947 222.505 137.947 221.494C137.947 220.703 137.463 220.022 136.497 219.451C135.53 218.836 134.059 218.155 132.082 217.408C130.544 216.837 129.138 216.244 127.864 215.629C126.634 215.014 125.58 214.289 124.701 213.454C123.822 212.576 123.141 211.543 122.658 210.357C122.175 209.171 121.933 207.743 121.933 206.074C121.933 202.823 123.141 200.253 125.558 198.364C127.974 196.475 131.291 195.53 135.508 195.53C137.617 195.53 139.638 195.728 141.571 196.123C143.504 196.475 145.042 196.87 146.184 197.309L144.471 204.954C143.328 204.558 142.076 204.207 140.714 203.899C139.396 203.592 137.903 203.438 136.233 203.438C133.158 203.438 131.62 204.295 131.62 206.008C131.62 206.403 131.686 206.755 131.818 207.062C131.95 207.37 132.213 207.677 132.609 207.985C133.004 208.248 133.531 208.556 134.19 208.907C134.893 209.215 135.772 209.566 136.826 209.962C138.979 210.753 140.758 211.543 142.164 212.334C143.57 213.081 144.668 213.916 145.459 214.838C146.294 215.717 146.865 216.705 147.172 217.804C147.524 218.902 147.7 220.176 147.7 221.626C147.7 225.053 146.404 227.645 143.812 229.402C141.263 231.159 137.639 232.038 132.938 232.038C129.863 232.038 127.293 231.774 125.228 231.247C123.207 230.72 121.801 230.281 121.011 229.929L122.658 221.955C124.328 222.614 126.041 223.142 127.798 223.537C129.556 223.888 131.291 224.064 133.004 224.064Z" fill="white"/>
<path d="M153.39 213.784C153.39 211.28 153.785 208.929 154.576 206.733C155.411 204.492 156.597 202.559 158.135 200.934C159.672 199.264 161.539 197.946 163.736 196.98C165.933 196.013 168.437 195.53 171.248 195.53C173.094 195.53 174.785 195.706 176.323 196.057C177.86 196.365 179.354 196.826 180.804 197.441L178.761 205.283C177.838 204.932 176.828 204.624 175.73 204.36C174.631 204.097 173.401 203.965 172.039 203.965C169.14 203.965 166.965 204.866 165.515 206.667C164.109 208.468 163.407 210.84 163.407 213.784C163.407 216.903 164.066 219.319 165.384 221.033C166.745 222.746 169.096 223.603 172.435 223.603C173.621 223.603 174.895 223.493 176.257 223.273C177.619 223.054 178.871 222.702 180.013 222.219L181.397 230.259C180.255 230.742 178.827 231.159 177.113 231.511C175.4 231.862 173.511 232.038 171.446 232.038C168.283 232.038 165.559 231.577 163.275 230.654C160.99 229.687 159.101 228.391 157.608 226.766C156.158 225.14 155.081 223.229 154.378 221.033C153.72 218.792 153.39 216.376 153.39 213.784Z" fill="white"/>
<path d="M199.559 224.262C200.526 224.262 201.448 224.24 202.327 224.196C203.205 224.152 203.908 224.086 204.436 223.998V216.552C204.04 216.464 203.447 216.376 202.656 216.288C201.866 216.2 201.141 216.156 200.482 216.156C199.559 216.156 198.68 216.222 197.846 216.354C197.055 216.442 196.352 216.64 195.737 216.947C195.122 217.255 194.639 217.672 194.287 218.199C193.936 218.726 193.76 219.385 193.76 220.176C193.76 221.714 194.265 222.79 195.276 223.405C196.33 223.976 197.758 224.262 199.559 224.262ZM198.768 195.53C201.668 195.53 204.084 195.86 206.017 196.519C207.95 197.178 209.488 198.122 210.63 199.352C211.816 200.582 212.651 202.076 213.134 203.833C213.617 205.591 213.859 207.546 213.859 209.698V230.127C212.453 230.434 210.498 230.786 207.994 231.181C205.49 231.62 202.459 231.84 198.9 231.84C196.66 231.84 194.617 231.642 192.772 231.247C190.97 230.852 189.411 230.215 188.093 229.336C186.775 228.413 185.764 227.227 185.061 225.777C184.359 224.328 184.007 222.548 184.007 220.44C184.007 218.419 184.402 216.705 185.193 215.3C186.028 213.894 187.126 212.774 188.488 211.939C189.85 211.104 191.41 210.511 193.167 210.16C194.924 209.764 196.747 209.566 198.637 209.566C199.911 209.566 201.031 209.632 201.997 209.764C203.008 209.852 203.821 209.984 204.436 210.16V209.237C204.436 207.568 203.93 206.228 202.92 205.217C201.909 204.207 200.152 203.701 197.648 203.701C195.979 203.701 194.331 203.833 192.706 204.097C191.08 204.317 189.674 204.646 188.488 205.085L187.236 197.178C187.807 197.002 188.51 196.826 189.345 196.65C190.223 196.431 191.168 196.255 192.178 196.123C193.189 195.947 194.243 195.816 195.342 195.728C196.484 195.596 197.626 195.53 198.768 195.53Z" fill="white"/>
<path d="M205.693 84.7266C205.693 131.52 167.655 169.453 120.733 169.453C73.8112 169.453 35.7734 131.52 35.7734 84.7266C35.7734 37.9334 73.8112 0 120.733 0C167.655 0 205.693 37.9334 205.693 84.7266Z" fill="url(#paint0_linear_1197_32699)"/>
<path d="M104.111 68.1496C104.111 63.0634 108.245 58.9402 113.345 58.9402H220.468C225.569 58.9402 229.703 63.0634 229.703 68.1496V117.88C229.703 122.967 225.569 127.09 220.468 127.09H113.345C108.245 127.09 104.111 122.967 104.111 117.88V68.1496Z" fill="white"/>
<defs>
<linearGradient id="paint0_linear_1197_32699" x1="120.5" y1="0" x2="120.5" y2="241" gradientUnits="userSpaceOnUse">
<stop stop-color="#FE3D67"/>
<stop offset="1" stop-color="#FF7131"/>
</linearGradient>
</defs>
</svg>
