<svg width="249" height="249" viewBox="0 0 249 249" fill="none" xmlns="http://www.w3.org/2000/svg">
<g filter="url(#filter0_d_1197_32738)">
<path d="M44.2723 185.448C45.063 186.897 45.9637 188.699 46.9741 190.851C48.0285 192.96 49.1048 195.266 50.2031 197.771C51.3454 200.231 52.4656 202.757 53.5639 205.349C54.6622 207.941 55.6947 210.379 56.6612 212.664C57.6277 210.379 58.6601 207.941 59.7584 205.349C60.8567 202.757 61.955 200.231 63.0533 197.771C64.1956 195.266 65.2719 192.96 66.2823 190.851C67.3367 188.699 68.2593 186.897 69.0501 185.448H78.4077C78.847 188.479 79.2424 191.884 79.5938 195.662C79.9892 199.396 80.3187 203.306 80.5823 207.392C80.8898 211.434 81.1534 215.497 81.3731 219.583C81.6367 223.669 81.8563 227.513 82.0321 231.115H72.0155C71.8837 226.678 71.708 221.846 71.4883 216.618C71.2686 211.39 70.9392 206.118 70.4998 200.802C69.7091 202.647 68.8304 204.69 67.8639 206.931C66.8974 209.171 65.9309 211.412 64.9644 213.652C64.0418 215.893 63.1412 218.045 62.2625 220.11C61.3839 222.131 60.637 223.866 60.022 225.316H52.8391C52.224 223.866 51.4772 222.131 50.5985 220.11C49.7199 218.045 48.7973 215.893 47.8308 213.652C46.9082 211.412 45.9637 209.171 44.9971 206.931C44.0306 204.69 43.152 202.647 42.3612 200.802C41.9219 206.118 41.5924 211.39 41.3727 216.618C41.1531 221.846 40.9773 226.678 40.8455 231.115H30.829C31.0047 227.513 31.2024 223.669 31.4221 219.583C31.6857 215.497 31.9492 211.434 32.2128 207.392C32.5204 203.306 32.8499 199.396 33.2013 195.662C33.5967 191.884 34.0141 188.479 34.4534 185.448H44.2723Z" fill="black"/>
<path d="M103.875 224.262C104.841 224.262 105.764 224.24 106.643 224.196C107.521 224.152 108.224 224.086 108.751 223.998V216.552C108.356 216.464 107.763 216.376 106.972 216.288C106.181 216.2 105.456 216.156 104.797 216.156C103.875 216.156 102.996 216.222 102.161 216.354C101.371 216.442 100.668 216.64 100.053 216.947C99.4377 217.255 98.9544 217.672 98.6029 218.199C98.2515 218.726 98.0758 219.385 98.0758 220.176C98.0758 221.714 98.581 222.79 99.5914 223.405C100.646 223.976 102.074 224.262 103.875 224.262ZM103.084 195.53C105.984 195.53 108.4 195.86 110.333 196.519C112.266 197.178 113.804 198.122 114.946 199.352C116.132 200.582 116.967 202.076 117.45 203.833C117.933 205.591 118.175 207.546 118.175 209.698V230.127C116.769 230.434 114.814 230.786 112.31 231.181C109.806 231.62 106.774 231.84 103.216 231.84C100.975 231.84 98.9324 231.642 97.0873 231.247C95.2861 230.852 93.7265 230.215 92.4085 229.336C91.0905 228.413 90.0801 227.227 89.3772 225.777C88.6742 224.328 88.3228 222.548 88.3228 220.44C88.3228 218.419 88.7182 216.705 89.509 215.3C90.3437 213.894 91.442 212.774 92.8039 211.939C94.1658 211.104 95.7254 210.511 97.4827 210.16C99.24 209.764 101.063 209.566 102.952 209.566C104.226 209.566 105.347 209.632 106.313 209.764C107.324 209.852 108.136 209.984 108.751 210.16V209.237C108.751 207.568 108.246 206.228 107.236 205.217C106.225 204.207 104.468 203.701 101.964 203.701C100.294 203.701 98.6469 203.833 97.0214 204.097C95.3959 204.317 93.9901 204.646 92.8039 205.085L91.5518 197.178C92.1229 197.002 92.8258 196.826 93.6606 196.65C94.5392 196.431 95.4837 196.255 96.4942 196.123C97.5046 195.947 98.559 195.816 99.6573 195.728C100.8 195.596 101.942 195.53 103.084 195.53Z" fill="black"/>
<path d="M137.004 224.064C138.805 224.064 140.079 223.888 140.826 223.537C141.573 223.185 141.947 222.505 141.947 221.494C141.947 220.703 141.463 220.022 140.497 219.451C139.53 218.836 138.059 218.155 136.082 217.408C134.544 216.837 133.138 216.244 131.864 215.629C130.634 215.014 129.58 214.289 128.701 213.454C127.822 212.576 127.141 211.543 126.658 210.357C126.175 209.171 125.933 207.743 125.933 206.074C125.933 202.823 127.141 200.253 129.558 198.364C131.974 196.475 135.291 195.53 139.508 195.53C141.617 195.53 143.638 195.728 145.571 196.123C147.504 196.475 149.042 196.87 150.184 197.309L148.471 204.954C147.328 204.558 146.076 204.207 144.714 203.899C143.396 203.592 141.903 203.438 140.233 203.438C137.158 203.438 135.62 204.295 135.62 206.008C135.62 206.403 135.686 206.755 135.818 207.062C135.95 207.37 136.213 207.677 136.609 207.985C137.004 208.248 137.531 208.556 138.19 208.907C138.893 209.215 139.772 209.566 140.826 209.962C142.979 210.753 144.758 211.543 146.164 212.334C147.57 213.081 148.668 213.916 149.459 214.838C150.294 215.717 150.865 216.705 151.172 217.804C151.524 218.902 151.7 220.176 151.7 221.626C151.7 225.053 150.404 227.645 147.812 229.402C145.263 231.159 141.639 232.038 136.938 232.038C133.863 232.038 131.293 231.774 129.228 231.247C127.207 230.72 125.801 230.281 125.011 229.929L126.658 221.955C128.328 222.614 130.041 223.142 131.798 223.537C133.556 223.888 135.291 224.064 137.004 224.064Z" fill="black"/>
<path d="M157.39 213.784C157.39 211.28 157.785 208.929 158.576 206.733C159.411 204.492 160.597 202.559 162.135 200.934C163.672 199.264 165.539 197.946 167.736 196.98C169.933 196.013 172.437 195.53 175.248 195.53C177.094 195.53 178.785 195.706 180.323 196.057C181.86 196.365 183.354 196.826 184.804 197.441L182.761 205.283C181.838 204.932 180.828 204.624 179.73 204.36C178.631 204.097 177.401 203.965 176.039 203.965C173.14 203.965 170.965 204.866 169.515 206.667C168.109 208.468 167.407 210.84 167.407 213.784C167.407 216.903 168.066 219.319 169.384 221.033C170.745 222.746 173.096 223.603 176.435 223.603C177.621 223.603 178.895 223.493 180.257 223.273C181.619 223.054 182.871 222.702 184.013 222.219L185.397 230.259C184.255 230.742 182.827 231.159 181.113 231.511C179.4 231.862 177.511 232.038 175.446 232.038C172.283 232.038 169.559 231.577 167.275 230.654C164.99 229.687 163.101 228.391 161.608 226.766C160.158 225.14 159.081 223.229 158.378 221.033C157.72 218.792 157.39 216.376 157.39 213.784Z" fill="black"/>
<path d="M203.559 224.262C204.526 224.262 205.448 224.24 206.327 224.196C207.205 224.152 207.908 224.086 208.436 223.998V216.552C208.04 216.464 207.447 216.376 206.656 216.288C205.866 216.2 205.141 216.156 204.482 216.156C203.559 216.156 202.68 216.222 201.846 216.354C201.055 216.442 200.352 216.64 199.737 216.947C199.122 217.255 198.639 217.672 198.287 218.199C197.936 218.726 197.76 219.385 197.76 220.176C197.76 221.714 198.265 222.79 199.276 223.405C200.33 223.976 201.758 224.262 203.559 224.262ZM202.768 195.53C205.668 195.53 208.084 195.86 210.017 196.519C211.95 197.178 213.488 198.122 214.63 199.352C215.816 200.582 216.651 202.076 217.134 203.833C217.617 205.591 217.859 207.546 217.859 209.698V230.127C216.453 230.434 214.498 230.786 211.994 231.181C209.49 231.62 206.459 231.84 202.9 231.84C200.66 231.84 198.617 231.642 196.772 231.247C194.97 230.852 193.411 230.215 192.093 229.336C190.775 228.413 189.764 227.227 189.061 225.777C188.359 224.328 188.007 222.548 188.007 220.44C188.007 218.419 188.402 216.705 189.193 215.3C190.028 213.894 191.126 212.774 192.488 211.939C193.85 211.104 195.41 210.511 197.167 210.16C198.924 209.764 200.747 209.566 202.637 209.566C203.911 209.566 205.031 209.632 205.997 209.764C207.008 209.852 207.821 209.984 208.436 210.16V209.237C208.436 207.568 207.93 206.228 206.92 205.217C205.909 204.207 204.152 203.701 201.648 203.701C199.979 203.701 198.331 203.833 196.706 204.097C195.08 204.317 193.674 204.646 192.488 205.085L191.236 197.178C191.807 197.002 192.51 196.826 193.345 196.65C194.223 196.431 195.168 196.255 196.178 196.123C197.189 195.947 198.243 195.816 199.342 195.728C200.484 195.596 201.626 195.53 202.768 195.53Z" fill="black"/>
<path d="M209.693 84.7266C209.693 131.52 171.655 169.453 124.733 169.453C77.8112 169.453 39.7734 131.52 39.7734 84.7266C39.7734 37.9334 77.8112 0 124.733 0C171.655 0 209.693 37.9334 209.693 84.7266Z" fill="url(#paint0_linear_1197_32738)"/>
<path d="M108.111 68.1496C108.111 63.0634 112.245 58.9402 117.345 58.9402H224.468C229.569 58.9402 233.703 63.0634 233.703 68.1496V117.88C233.703 122.967 229.569 127.09 224.468 127.09H117.345C112.245 127.09 108.111 122.967 108.111 117.88V68.1496Z" fill="black"/>
</g>
<defs>
<filter id="filter0_d_1197_32738" x="0" y="0" width="249" height="249" filterUnits="userSpaceOnUse" color-interpolation-filters="sRGB">
<feFlood flood-opacity="0" result="BackgroundImageFix"/>
<feColorMatrix in="SourceAlpha" type="matrix" values="0 0 0 0 0 0 0 0 0 0 0 0 0 0 0 0 0 0 127 0" result="hardAlpha"/>
<feOffset dy="4"/>
<feGaussianBlur stdDeviation="2"/>
<feComposite in2="hardAlpha" operator="out"/>
<feColorMatrix type="matrix" values="0 0 0 0 0 0 0 0 0 0 0 0 0 0 0 0 0 0 0.25 0"/>
<feBlend mode="normal" in2="BackgroundImageFix" result="effect1_dropShadow_1197_32738"/>
<feBlend mode="normal" in="SourceGraphic" in2="effect1_dropShadow_1197_32738" result="shape"/>
</filter>
<linearGradient id="paint0_linear_1197_32738" x1="124.5" y1="0" x2="124.5" y2="241" gradientUnits="userSpaceOnUse">
<stop stop-color="#FE3D67"/>
<stop offset="1" stop-color="#FF7131"/>
</linearGradient>
</defs>
</svg>
