<svg width="855" height="246" viewBox="0 0 855 246" fill="none" xmlns="http://www.w3.org/2000/svg">
<path d="M362.132 62.8102C364.377 66.928 366.934 72.0441 369.803 78.1585C372.797 84.148 375.853 90.6991 378.971 97.8117C382.214 104.8 385.395 111.975 388.514 119.337C391.632 126.699 394.563 133.624 397.308 140.113C400.052 133.624 402.983 126.699 406.102 119.337C409.22 111.975 412.339 104.8 415.457 97.8117C418.7 90.6991 421.756 84.148 424.625 78.1585C427.619 72.0441 430.239 66.928 432.484 62.8102H459.053C460.3 71.4202 461.423 81.0909 462.421 91.8222C463.544 102.429 464.479 113.534 465.227 125.139C466.101 136.619 466.849 148.162 467.473 159.766C468.221 171.371 468.845 182.29 469.344 192.522H440.904C440.529 179.919 440.03 166.193 439.407 151.343C438.783 136.494 437.848 121.52 436.6 106.422C434.355 111.663 431.86 117.465 429.116 123.829C426.372 130.193 423.627 136.557 420.883 142.921C418.264 149.285 415.707 155.399 413.212 161.264C410.717 167.004 408.597 171.933 406.85 176.05H386.456C384.709 171.933 382.589 167.004 380.094 161.264C377.599 155.399 374.98 149.285 372.235 142.921C369.616 136.557 366.934 130.193 364.19 123.829C361.446 117.465 358.951 111.663 356.706 106.422C355.458 121.52 354.523 136.494 353.899 151.343C353.275 166.193 352.776 179.919 352.402 192.522H323.962C324.461 182.29 325.022 171.371 325.646 159.766C326.394 148.162 327.143 136.619 327.891 125.139C328.764 113.534 329.7 102.429 330.698 91.8222C331.82 81.0909 333.005 71.4202 334.253 62.8102H362.132Z" fill="black"/>
<path d="M531.362 173.056C534.107 173.056 536.726 172.993 539.221 172.868C541.716 172.744 543.711 172.557 545.208 172.307V151.156C544.086 150.907 542.402 150.657 540.156 150.408C537.911 150.158 535.853 150.033 533.982 150.033C531.362 150.033 528.868 150.22 526.498 150.595C524.252 150.844 522.257 151.406 520.51 152.279C518.764 153.153 517.392 154.338 516.394 155.836C515.396 157.333 514.897 159.205 514.897 161.451C514.897 165.818 516.331 168.875 519.2 170.622C522.194 172.245 526.248 173.056 531.362 173.056ZM529.117 91.4478C537.35 91.4478 544.21 92.3837 549.699 94.2554C555.187 96.1272 559.553 98.81 562.796 102.304C566.164 105.798 568.534 110.04 569.906 115.032C571.278 120.023 571.965 125.576 571.965 131.69V189.714C567.973 190.588 562.422 191.586 555.312 192.709C548.202 193.957 539.595 194.581 529.491 194.581C523.13 194.581 517.329 194.019 512.09 192.896C506.976 191.773 502.548 189.964 498.806 187.468C495.064 184.848 492.195 181.478 490.199 177.361C488.203 173.243 487.205 168.189 487.205 162.2C487.205 156.46 488.328 151.593 490.573 147.6C492.943 143.607 496.062 140.425 499.928 138.054C503.795 135.683 508.224 133.999 513.213 133C518.203 131.877 523.379 131.316 528.743 131.316C532.36 131.316 535.541 131.503 538.285 131.877C541.154 132.127 543.462 132.501 545.208 133V130.38C545.208 125.638 543.774 121.832 540.905 118.962C538.036 116.092 533.046 114.657 525.936 114.657C521.196 114.657 516.519 115.032 511.903 115.78C507.288 116.404 503.296 117.34 499.928 118.588L496.373 96.1272C497.995 95.628 499.991 95.1289 502.361 94.6298C504.856 94.0059 507.537 93.5067 510.406 93.1324C513.275 92.6333 516.269 92.2589 519.388 92.0093C522.631 91.635 525.874 91.4478 529.117 91.4478Z" fill="black"/>
<path d="M625.427 172.494C630.542 172.494 634.159 171.995 636.28 170.997C638.4 169.998 639.46 168.064 639.46 165.194C639.46 162.948 638.088 161.014 635.344 159.392C632.6 157.645 628.421 155.711 622.808 153.59C618.442 151.967 614.45 150.283 610.833 148.536C607.34 146.789 604.347 144.73 601.852 142.359C599.357 139.863 597.424 136.931 596.052 133.562C594.679 130.193 593.993 126.137 593.993 121.396C593.993 112.162 597.424 104.862 604.284 99.4963C611.145 94.1306 620.563 91.4478 632.537 91.4478C638.525 91.4478 644.263 92.0093 649.751 93.1324C655.24 94.1306 659.606 95.2537 662.849 96.5015L657.984 118.214C654.741 117.091 651.186 116.092 647.319 115.219C643.577 114.345 639.336 113.909 634.596 113.909C625.864 113.909 621.498 116.342 621.498 121.208C621.498 122.332 621.685 123.33 622.059 124.203C622.434 125.077 623.182 125.95 624.305 126.824C625.427 127.572 626.924 128.446 628.795 129.444C630.791 130.318 633.286 131.316 636.28 132.439C642.392 134.685 647.444 136.931 651.435 139.177C655.427 141.298 658.545 143.669 660.79 146.29C663.161 148.785 664.782 151.593 665.655 154.713C666.653 157.832 667.152 161.451 667.152 165.569C667.152 175.302 663.472 182.664 656.113 187.655C648.878 192.647 638.587 195.142 625.24 195.142C616.509 195.142 609.211 194.393 603.349 192.896C597.611 191.399 593.619 190.151 591.374 189.153L596.052 166.505C600.792 168.376 605.656 169.874 610.646 170.997C615.635 171.995 620.563 172.494 625.427 172.494Z" fill="black"/>
<path d="M683.309 143.295C683.309 136.182 684.432 129.507 686.677 123.267C689.047 116.903 692.415 111.413 696.781 106.796C701.147 102.054 706.448 98.3109 712.685 95.5656C718.922 92.8204 726.032 91.4478 734.015 91.4478C739.254 91.4478 744.056 91.947 748.422 92.9452C752.788 93.8187 757.029 95.1289 761.145 96.8759L755.345 119.15C752.726 118.151 749.857 117.278 746.738 116.529C743.62 115.78 740.127 115.406 736.26 115.406C728.028 115.406 721.853 117.964 717.737 123.08C713.745 128.196 711.749 134.935 711.749 143.295C711.749 152.155 713.62 159.018 717.363 163.884C721.229 168.751 727.903 171.184 737.383 171.184C740.751 171.184 744.368 170.872 748.235 170.248C752.102 169.624 755.657 168.626 758.9 167.253L762.829 190.088C759.586 191.461 755.532 192.647 750.668 193.645C745.803 194.643 740.439 195.142 734.576 195.142C725.595 195.142 717.861 193.832 711.375 191.212C704.889 188.466 699.525 184.785 695.284 180.168C691.168 175.551 688.112 170.123 686.116 163.884C684.245 157.52 683.309 150.657 683.309 143.295Z" fill="black"/>
<path d="M814.398 173.056C817.142 173.056 819.762 172.993 822.256 172.868C824.751 172.744 826.747 172.557 828.244 172.307V151.156C827.121 150.907 825.437 150.657 823.192 150.408C820.947 150.158 818.888 150.033 817.017 150.033C814.398 150.033 811.903 150.22 809.533 150.595C807.288 150.844 805.292 151.406 803.546 152.279C801.799 153.153 800.427 154.338 799.429 155.836C798.431 157.333 797.932 159.205 797.932 161.451C797.932 165.818 799.367 168.875 802.236 170.622C805.23 172.245 809.284 173.056 814.398 173.056ZM812.153 91.4478C820.385 91.4478 827.246 92.3837 832.734 94.2554C838.223 96.1272 842.589 98.81 845.832 102.304C849.2 105.798 851.57 110.04 852.942 115.032C854.314 120.023 855 125.576 855 131.69V189.714C851.008 190.588 845.458 191.586 838.347 192.709C831.237 193.957 822.631 194.581 812.527 194.581C806.165 194.581 800.365 194.019 795.126 192.896C790.012 191.773 785.583 189.964 781.841 187.468C778.099 184.848 775.23 181.478 773.234 177.361C771.239 173.243 770.241 168.189 770.241 162.2C770.241 156.46 771.363 151.593 773.609 147.6C775.979 143.607 779.097 140.425 782.964 138.054C786.831 135.683 791.259 133.999 796.248 133C801.238 131.877 806.415 131.316 811.778 131.316C815.396 131.316 818.577 131.503 821.321 131.877C824.19 132.127 826.497 132.501 828.244 133V130.38C828.244 125.638 826.809 121.832 823.94 118.962C821.071 116.092 816.082 114.657 808.972 114.657C804.232 114.657 799.554 115.032 794.939 115.78C790.323 116.404 786.332 117.34 782.964 118.588L779.409 96.1272C781.03 95.628 783.026 95.1289 785.396 94.6298C787.891 94.0059 790.573 93.5067 793.442 93.1324C796.311 92.6333 799.305 92.2589 802.423 92.0093C805.666 91.635 808.909 91.4478 812.153 91.4478Z" fill="black"/>
<path d="M245.912 123C245.912 190.931 190.862 246 122.956 246C55.0492 246 0 190.931 0 123C0 55.069 55.0492 0 122.956 0C190.862 0 245.912 55.069 245.912 123Z" fill="url(#paint0_linear_1197_32704)"/>
<path d="M98.8993 98.9348C98.8993 91.551 104.883 85.5652 112.264 85.5652H267.295C274.676 85.5652 280.66 91.551 280.66 98.9348V171.13C280.66 178.514 274.676 184.5 267.295 184.5H112.264C104.883 184.5 98.8993 178.514 98.8993 171.13V98.9348Z" fill="black"/>
<defs>
<linearGradient id="paint0_linear_1197_32704" x1="427.5" y1="0" x2="427.5" y2="246" gradientUnits="userSpaceOnUse">
<stop stop-color="#FE3D67"/>
<stop offset="1" stop-color="#FF7131"/>
</linearGradient>
</defs>
</svg>
