<svg width="240" height="240" viewBox="0 0 240 240" fill="none" xmlns="http://www.w3.org/2000/svg">
<path d="M213.616 120C213.616 171.42 171.817 213.103 120.256 213.103C68.6951 213.103 26.8966 171.42 26.8966 120C26.8966 68.5804 68.6951 26.8966 120.256 26.8966C171.817 26.8966 213.616 68.5804 213.616 120Z" fill="url(#paint0_linear_1197_32701)"/>
<path d="M101.99 101.784C101.99 96.195 106.533 91.6642 112.138 91.6642H229.852C235.457 91.6642 240 96.195 240 101.784V156.432C240 162.021 235.457 166.552 229.852 166.552H112.138C106.533 166.552 101.99 162.021 101.99 156.432V101.784Z" fill="white"/>
<defs>
<linearGradient id="paint0_linear_1197_32701" x1="120" y1="0" x2="120" y2="240" gradientUnits="userSpaceOnUse">
<stop stop-color="#FE3D67"/>
<stop offset="1" stop-color="#FF7131"/>
</linearGradient>
</defs>
</svg>
