<svg width="512" height="512" viewBox="0 0 512 512" fill="none" xmlns="http://www.w3.org/2000/svg">
<rect width="512" height="512" fill="url(#paint0_linear_1197_32730)"/>
<path d="M124.173 362.719C125.473 365.101 126.953 368.061 128.613 371.598C130.346 375.063 132.114 378.853 133.919 382.968C135.796 387.01 137.636 391.161 139.441 395.42C141.246 399.679 142.942 403.685 144.53 407.439C146.119 403.685 147.815 399.679 149.62 395.42C151.424 391.161 153.229 387.01 155.034 382.968C156.911 378.853 158.679 375.063 160.339 371.598C162.072 368.061 163.588 365.101 164.887 362.719H180.263C180.985 367.7 181.635 373.294 182.212 379.502C182.862 385.638 183.403 392.063 183.836 398.777C184.342 405.418 184.775 412.095 185.136 418.809C185.569 425.522 185.93 431.838 186.219 437.758H169.76C169.543 430.467 169.255 422.526 168.894 413.936C168.533 405.346 167.991 396.683 167.269 387.948C165.97 390.98 164.526 394.337 162.938 398.019C161.35 401.7 159.762 405.382 158.174 409.063C156.658 412.745 155.178 416.282 153.734 419.675C152.291 422.995 151.063 425.847 150.053 428.229H138.25C137.239 425.847 136.012 422.995 134.569 419.675C133.125 416.282 131.609 412.745 130.021 409.063C128.505 405.382 126.953 401.7 125.365 398.019C123.776 394.337 122.333 390.98 121.033 387.948C120.311 396.683 119.77 405.346 119.409 413.936C119.048 422.526 118.759 430.467 118.543 437.758H102.084C102.373 431.838 102.698 425.522 103.059 418.809C103.492 412.095 103.925 405.418 104.358 398.777C104.863 392.063 105.405 385.638 105.982 379.502C106.632 373.294 107.318 367.7 108.04 362.719H124.173Z" fill="white"/>
<path d="M222.11 426.497C223.698 426.497 225.214 426.46 226.657 426.388C228.101 426.316 229.256 426.208 230.122 426.063V413.828C229.473 413.683 228.498 413.539 227.199 413.395C225.9 413.25 224.708 413.178 223.626 413.178C222.11 413.178 220.666 413.286 219.294 413.503C217.995 413.647 216.84 413.972 215.829 414.477C214.819 414.983 214.025 415.668 213.447 416.535C212.87 417.401 212.581 418.484 212.581 419.783C212.581 422.31 213.411 424.078 215.071 425.089C216.804 426.027 219.15 426.497 222.11 426.497ZM220.81 379.286C225.575 379.286 229.545 379.827 232.721 380.91C235.897 381.993 238.424 383.545 240.301 385.566C242.25 387.587 243.622 390.042 244.416 392.929C245.21 395.817 245.607 399.029 245.607 402.566V436.134C243.297 436.639 240.084 437.216 235.97 437.866C231.855 438.588 226.874 438.949 221.027 438.949C217.345 438.949 213.989 438.624 210.957 437.974C207.997 437.325 205.434 436.278 203.269 434.834C201.103 433.318 199.443 431.369 198.288 428.987C197.133 426.605 196.555 423.681 196.555 420.216C196.555 416.896 197.205 414.08 198.504 411.77C199.876 409.46 201.681 407.62 203.918 406.248C206.156 404.876 208.719 403.902 211.606 403.324C214.494 402.675 217.49 402.35 220.594 402.35C222.687 402.35 224.528 402.458 226.116 402.675C227.776 402.819 229.112 403.036 230.122 403.324V401.808C230.122 399.065 229.292 396.864 227.632 395.203C225.972 393.543 223.084 392.713 218.97 392.713C216.226 392.713 213.519 392.929 210.848 393.363C208.177 393.723 205.867 394.265 203.918 394.987L201.861 381.993C202.799 381.704 203.955 381.415 205.326 381.127C206.77 380.766 208.322 380.477 209.982 380.26C211.642 379.972 213.375 379.755 215.18 379.611C217.057 379.394 218.933 379.286 220.81 379.286Z" fill="white"/>
<path d="M276.546 426.172C279.506 426.172 281.599 425.883 282.827 425.305C284.054 424.728 284.667 423.609 284.667 421.949C284.667 420.649 283.873 419.53 282.285 418.592C280.697 417.581 278.279 416.463 275.03 415.235C272.504 414.297 270.194 413.322 268.1 412.312C266.079 411.301 264.347 410.11 262.903 408.738C261.459 407.295 260.34 405.598 259.546 403.649C258.752 401.7 258.355 399.354 258.355 396.611C258.355 391.269 260.34 387.046 264.311 383.942C268.281 380.838 273.731 379.286 280.661 379.286C284.126 379.286 287.447 379.611 290.623 380.26C293.799 380.838 296.326 381.488 298.203 382.21L295.387 394.77C293.51 394.12 291.453 393.543 289.215 393.038C287.05 392.532 284.595 392.28 281.852 392.28C276.799 392.28 274.272 393.687 274.272 396.503C274.272 397.152 274.381 397.73 274.597 398.235C274.814 398.74 275.247 399.246 275.897 399.751C276.546 400.184 277.413 400.69 278.495 401.267C279.65 401.772 281.094 402.35 282.827 403C286.364 404.299 289.287 405.598 291.597 406.898C293.907 408.125 295.712 409.496 297.012 411.012C298.383 412.456 299.322 414.08 299.827 415.885C300.404 417.69 300.693 419.783 300.693 422.165C300.693 427.796 298.564 432.055 294.304 434.942C290.118 437.83 284.162 439.274 276.438 439.274C271.385 439.274 267.162 438.841 263.769 437.974C260.449 437.108 258.139 436.386 256.839 435.809L259.546 422.707C262.289 423.79 265.105 424.656 267.992 425.305C270.88 425.883 273.731 426.172 276.546 426.172Z" fill="white"/>
<path d="M310.043 409.28C310.043 405.165 310.693 401.303 311.992 397.694C313.364 394.012 315.313 390.836 317.84 388.165C320.366 385.422 323.434 383.256 327.043 381.668C330.653 380.08 334.768 379.286 339.388 379.286C342.419 379.286 345.199 379.575 347.725 380.152C350.252 380.657 352.706 381.415 355.088 382.426L351.732 395.312C350.216 394.734 348.555 394.229 346.751 393.796C344.946 393.363 342.925 393.146 340.687 393.146C335.923 393.146 332.349 394.626 329.967 397.585C327.657 400.545 326.502 404.443 326.502 409.28C326.502 414.405 327.585 418.375 329.751 421.191C331.988 424.006 335.85 425.414 341.337 425.414C343.286 425.414 345.379 425.233 347.617 424.872C349.855 424.511 351.912 423.934 353.789 423.14L356.063 436.35C354.186 437.144 351.84 437.83 349.025 438.407C346.209 438.985 343.105 439.274 339.712 439.274C334.515 439.274 330.039 438.516 326.286 437C322.532 435.412 319.428 433.282 316.973 430.611C314.591 427.94 312.823 424.8 311.668 421.191C310.585 417.509 310.043 413.539 310.043 409.28Z" fill="white"/>
<path d="M385.906 426.497C387.494 426.497 389.01 426.46 390.454 426.388C391.898 426.316 393.053 426.208 393.919 426.063V413.828C393.269 413.683 392.295 413.539 390.995 413.395C389.696 413.25 388.505 413.178 387.422 413.178C385.906 413.178 384.462 413.286 383.091 413.503C381.792 413.647 380.637 413.972 379.626 414.477C378.615 414.983 377.821 415.668 377.244 416.535C376.666 417.401 376.377 418.484 376.377 419.783C376.377 422.31 377.208 424.078 378.868 425.089C380.6 426.027 382.947 426.497 385.906 426.497ZM384.607 379.286C389.371 379.286 393.342 379.827 396.518 380.91C399.694 381.993 402.221 383.545 404.097 385.566C406.047 387.587 407.418 390.042 408.212 392.929C409.006 395.817 409.403 399.029 409.403 402.566V436.134C407.093 436.639 403.881 437.216 399.766 437.866C395.652 438.588 390.671 438.949 384.823 438.949C381.142 438.949 377.785 438.624 374.753 437.974C371.794 437.325 369.231 436.278 367.065 434.834C364.9 433.318 363.239 431.369 362.084 428.987C360.929 426.605 360.352 423.681 360.352 420.216C360.352 416.896 361.002 414.08 362.301 411.77C363.672 409.46 365.477 407.62 367.715 406.248C369.953 404.876 372.515 403.902 375.403 403.324C378.29 402.675 381.286 402.35 384.39 402.35C386.484 402.35 388.324 402.458 389.913 402.675C391.573 402.819 392.908 403.036 393.919 403.324V401.808C393.919 399.065 393.089 396.864 391.429 395.203C389.768 393.543 386.881 392.713 382.766 392.713C380.023 392.713 377.316 392.929 374.645 393.363C371.974 393.723 369.664 394.265 367.715 394.987L365.658 381.993C366.596 381.704 367.751 381.415 369.123 381.127C370.566 380.766 372.118 380.477 373.779 380.26C375.439 379.972 377.172 379.755 378.976 379.611C380.853 379.394 382.73 379.286 384.607 379.286Z" fill="white"/>
<path d="M395.985 197.219C395.985 274.107 333.483 336.438 256.383 336.438C179.283 336.438 116.781 274.107 116.781 197.219C116.781 120.33 179.283 58 256.383 58C333.483 58 395.985 120.33 395.985 197.219Z" fill="url(#paint1_linear_1197_32730)"/>
<path d="M229.07 169.98C229.07 161.623 235.863 154.848 244.244 154.848H420.263C428.644 154.848 435.438 161.623 435.438 169.98V251.696C435.438 260.053 428.644 266.828 420.263 266.828H244.244C235.863 266.828 229.07 260.053 229.07 251.696V169.98Z" fill="white"/>
<defs>
<linearGradient id="paint0_linear_1197_32730" x1="256.249" y1="0" x2="256.249" y2="512" gradientUnits="userSpaceOnUse">
<stop stop-color="#FFAA83"/>
<stop offset="0.0001" stop-color="#FFAF8A"/>
<stop offset="1" stop-color="#FFABB9"/>
</linearGradient>
<linearGradient id="paint1_linear_1197_32730" x1="256" y1="58" x2="256" y2="454" gradientUnits="userSpaceOnUse">
<stop stop-color="#FE3D67"/>
<stop offset="1" stop-color="#FF7131"/>
</linearGradient>
</defs>
</svg>
