<?xml version="1.0" encoding="UTF-8" standalone="no"?>
<!-- Created with Inkscape (http://www.inkscape.org/) -->

<svg
   version="1.1"
   id="svg2"
   width="551.21332"
   height="581.59998"
   viewBox="0 0 551.21332 581.59998"
   sodipodi:docname="5443167.eps"
   xmlns:inkscape="http://www.inkscape.org/namespaces/inkscape"
   xmlns:sodipodi="http://sodipodi.sourceforge.net/DTD/sodipodi-0.dtd"
   xmlns="http://www.w3.org/2000/svg"
   xmlns:svg="http://www.w3.org/2000/svg">
  <defs
     id="defs6" />
  <sodipodi:namedview
     id="namedview4"
     pagecolor="#ffffff"
     bordercolor="#000000"
     borderopacity="0.25"
     inkscape:showpageshadow="2"
     inkscape:pageopacity="0.0"
     inkscape:pagecheckerboard="0"
     inkscape:deskcolor="#d1d1d1" />
  <g
     id="g8"
     inkscape:groupmode="layer"
     inkscape:label="ink_ext_XXXXXX"
     transform="matrix(1.3333333,0,0,-1.3333333,0,581.6)">
    <g
       id="g10"
       transform="scale(0.1)">
      <path
         d="m 2107.92,1188.1 c 76.82,-76.82 201.39,-76.82 278.22,0 76.83,76.83 76.83,201.4 0,278.23 -76.83,76.82 -201.4,76.82 -278.22,0 -76.83,-76.83 -76.83,-201.4 0,-278.23"
         style="fill:#e7e8e5;fill-opacity:1;fill-rule:nonzero;stroke:none"
         id="path12" />
      <path
         d="m 2318.6,1443.93 c 0.69,-9.19 -2.15,-18.67 -7.27,-26.71 -5.11,-8.12 -12.8,-14.6 -21.39,-18.88 -8.8,-4.21 -19.54,-5.7 -28.89,-2.46 -9.32,2.95 -17.13,9.15 -22.01,16.91 7.43,-5.25 15.47,-9.03 23.6,-10.41 4.07,-0.66 8.14,-0.75 12.07,-0.01 3.99,0.46 7.79,2 11.47,3.68 1.83,0.92 3.71,1.92 5.5,2.97 1.71,1.18 3.51,2.25 5.11,3.58 3.45,2.39 6.29,5.47 9.14,8.58 5.48,6.43 9.82,14.09 12.67,22.75"
         style="fill:#bebfbd;fill-opacity:1;fill-rule:nonzero;stroke:none"
         id="path14" />
      <path
         d="m 2247.88,1432.62 c -1.04,6.33 0.65,13.07 4.09,18.8 3.44,5.77 8.74,10.52 14.81,13.46 6.21,3.07 13.99,3.91 20.52,1.49 6.54,-2.27 11.82,-6.88 14.74,-12.56 -5.48,3.18 -10.98,5.37 -16.33,6.04 -5.36,0.76 -10.39,-0.48 -15.17,-2.68 -9.89,-4.77 -17.67,-12.93 -22.66,-24.55"
         style="fill:#bebfbd;fill-opacity:1;fill-rule:nonzero;stroke:none"
         id="path16" />
      <path
         d="m 2246.99,1234.75 c 2.53,-5.72 2.51,-12.52 0.51,-18.74 -2.03,-6.24 -6.06,-11.96 -11.37,-15.92 -5.36,-4.21 -12.71,-6.3 -19.38,-5.23 -6.63,0.98 -12.51,4.27 -16.49,9.05 5.9,-1.77 11.57,-2.69 16.81,-2.36 5.26,0.35 9.8,2.32 13.85,5.36 4.19,3.16 7.72,7.12 10.44,11.74 2.67,4.68 4.59,10.04 5.63,16.1"
         style="fill:#bebfbd;fill-opacity:1;fill-rule:nonzero;stroke:none"
         id="path18" />
      <path
         d="m 2206.27,1212.43 c -2.3,3.85 -2.55,8.68 -1.35,13.18 1.28,4.51 4.13,8.68 7.91,11.51 3.86,3.03 9.31,4.52 14.07,3.56 4.74,-0.94 8.78,-3.51 11.17,-7.26 -4.31,0.71 -8.14,1 -11.49,0.5 -3.34,-0.46 -6,-1.73 -8.54,-3.63 -5.35,-4.09 -9.21,-9.51 -11.77,-17.86"
         style="fill:#bebfbd;fill-opacity:1;fill-rule:nonzero;stroke:none"
         id="path20" />
      <path
         d="m 2176.11,1411.73 c 3.45,-3.06 5.45,-7.66 5.61,-12.63 0.13,-5.02 -1.87,-10.19 -5.57,-13.9 -3.76,-4.03 -9.64,-5.56 -14.4,-4.94 -4.85,0.59 -9.16,2.64 -12.37,5.92 4.53,0.05 8.62,0.08 12.22,0.84 3.61,0.71 6.38,2.04 8.45,4.22 2.24,2.26 4,5.17 4.98,8.54 1.04,3.44 1.27,7.42 1.08,11.95"
         style="fill:#bebfbd;fill-opacity:1;fill-rule:nonzero;stroke:none"
         id="path22" />
      <path
         d="m 2151.74,1392.62 c -2.88,1.85 -4.58,5.08 -4.89,8.72 -0.27,3.68 1.13,7.54 3.88,10.31 2.83,3.04 7.33,4.11 10.76,3.47 3.5,-0.61 6.47,-2.34 8.44,-5.1 -3.3,-0.57 -6.05,-0.92 -8.29,-1.65 -2.28,-0.71 -3.66,-1.58 -4.8,-2.77 -1.3,-1.31 -2.46,-2.93 -3.3,-4.96 -0.9,-2.09 -1.4,-4.69 -1.8,-8.02"
         style="fill:#bebfbd;fill-opacity:1;fill-rule:nonzero;stroke:none"
         id="path24" />
      <path
         d="m 2312.81,1204.37 c -2.13,-4.09 -6.09,-7.15 -10.88,-8.52 -4.83,-1.36 -10.33,-0.69 -14.84,2 -4.83,2.67 -7.75,8 -8.3,12.76 -0.63,4.85 0.32,9.52 2.71,13.45 1.16,-4.39 2.18,-8.36 3.8,-11.66 1.57,-3.32 3.53,-5.68 6.15,-7.15 2.76,-1.63 6,-2.62 9.51,-2.74 3.58,-0.18 7.5,0.57 11.85,1.86"
         style="fill:#bebfbd;fill-opacity:1;fill-rule:nonzero;stroke:none"
         id="path26" />
      <path
         d="m 2288.33,1223.34 c 1.09,3.23 3.8,5.68 7.25,6.87 3.5,1.16 7.6,0.74 10.95,-1.25 3.64,-2 5.78,-6.11 6,-9.59 0.26,-3.53 -0.7,-6.83 -2.89,-9.43 -1.36,3.07 -2.37,5.64 -3.63,7.65 -1.24,2.03 -2.42,3.16 -3.84,3.97 -1.6,0.94 -3.45,1.67 -5.63,1.98 -2.24,0.37 -4.9,0.23 -8.21,-0.2"
         style="fill:#bebfbd;fill-opacity:1;fill-rule:nonzero;stroke:none"
         id="path28" />
      <path
         d="m 2380.2,1342.79 c 0.55,-4.57 -1.01,-9.34 -4.2,-13.16 -3.24,-3.85 -8.16,-6.38 -13.4,-6.69 -5.48,-0.52 -10.89,2.25 -14.04,5.88 -3.24,3.66 -5.09,8.04 -5.31,12.64 3.42,-2.98 6.49,-5.68 9.69,-7.5 3.17,-1.86 6.12,-2.71 9.12,-2.46 3.18,0.21 6.42,1.21 9.39,3.09 3.06,1.86 5.88,4.7 8.75,8.2"
         style="fill:#bebfbd;fill-opacity:1;fill-rule:nonzero;stroke:none"
         id="path30" />
      <path
         d="m 2349.29,1344.7 c -0.91,3.3 -0.05,6.85 2.13,9.76 2.25,2.93 5.86,4.89 9.76,5.13 4.13,0.4 8.21,-1.8 10.35,-4.55 2.21,-2.78 3.27,-6.04 2.91,-9.43 -2.84,1.77 -5.13,3.34 -7.29,4.29 -2.16,0.98 -3.78,1.25 -5.42,1.12 -1.84,-0.11 -3.78,-0.56 -5.77,-1.52 -2.06,-0.96 -4.17,-2.58 -6.67,-4.8"
         style="fill:#bebfbd;fill-opacity:1;fill-rule:nonzero;stroke:none"
         id="path32" />
      <path
         d="m 2119.63,1298.24 c 0.54,-4.58 -1.03,-9.35 -4.2,-13.16 -3.25,-3.85 -8.17,-6.38 -13.4,-6.69 -5.49,-0.52 -10.91,2.24 -14.04,5.88 -3.25,3.65 -5.09,8.04 -5.32,12.64 3.42,-2.99 6.5,-5.68 9.69,-7.5 3.17,-1.86 6.12,-2.71 9.11,-2.46 3.2,0.21 6.44,1.21 9.41,3.09 3.05,1.86 5.87,4.69 8.75,8.2"
         style="fill:#bebfbd;fill-opacity:1;fill-rule:nonzero;stroke:none"
         id="path34" />
      <path
         d="m 2088.71,1300.15 c -0.91,3.29 -0.05,6.84 2.14,9.76 2.24,2.93 5.86,4.89 9.75,5.13 4.13,0.39 8.22,-1.8 10.34,-4.55 2.22,-2.79 3.29,-6.05 2.92,-9.43 -2.84,1.77 -5.12,3.34 -7.29,4.29 -2.16,0.98 -3.78,1.25 -5.42,1.12 -1.84,-0.12 -3.78,-0.56 -5.76,-1.52 -2.06,-0.96 -4.18,-2.58 -6.68,-4.8"
         style="fill:#bebfbd;fill-opacity:1;fill-rule:nonzero;stroke:none"
         id="path36" />
      <path
         d="m 455.836,1506.62 c -11.035,0 -22.066,0.41 -33.074,1.25 -45.41,3.12 -90.094,14.63 -130.86,32.63 -20.371,9.08 -39.769,19.89 -57.765,32.33 -18.145,12.17 -35.008,25.83 -50.469,40.61 -61.938,59.5 -101.4532,133.87 -126.1289,210.01 -24.6368,76.51 -34.8907,155.79 -36.2735,234.65 -0.2929,21.14 2.668,41.27 6.211,60.92 3.4297,19.7 8.0703,38.85 12.5312,57.92 9.043,38.1 18.75,75.64 26.7539,113.41 8.2422,37.69 15.1016,75.53 20.3203,113.42 5.2188,37.89 8.0977,75.96 9.8047,113.8 2.6602,75.81 -2.25,151.11 -14.4023,224.53 -2.8399,18.36 -6.4336,36.6 -10.0117,54.73 -3.9493,18.51 -7.8868,34.86 -12.1524,56.41 -8.3125,40.95 -14.8515,82.76 -18.6367,125.37 -7.875,85.13 -5.3633,173.74 12.0352,262.22 17.2812,88.3 49.7262,176.2 97.2582,256.02 47.476,79.84 108.586,151.57 177.535,212.33 3.957,3.48 7.929,6.93 11.933,10.34 11.293,-24.06 27.571,-45.86 48.192,-63.68 0.023,-0.02 0.051,-0.05 0.078,-0.07 0.008,-0.01 0.015,-0.02 0.023,-0.02 13.813,-11.93 29.571,-22.08 47.086,-29.93 25.563,-11.47 52.293,-16.9 78.606,-16.89 37.648,0 74.433,11.11 105.64,31.55 -0.007,0 -0.015,0 -0.023,0 10.633,6.97 20.625,15.01 29.781,24.07 l 0.043,0.01 c 2.098,2.08 4.141,4.19 6.149,6.39 0.894,0.99 1.796,1.98 2.714,3.01 1.043,1.15 2.075,2.35 3.071,3.57 1.031,1.2 2.039,2.44 3.008,3.67 0.839,1.03 1.652,2.09 2.472,3.16 0.809,1.04 1.594,2.12 2.387,3.2 0.695,0.97 1.414,1.9 2.082,2.88 1.836,2.58 3.605,5.26 5.312,7.97 1.911,3 3.707,6.08 5.461,9.22 0.77,1.4 1.547,2.79 2.258,4.2 0.059,0.11 0.113,0.22 0.168,0.32 0.152,0.29 0.297,0.57 0.445,0.87 0.457,0.87 0.907,1.75 1.344,2.64 1.129,2.29 2.223,4.6 3.274,6.94 3.371,7.51 6.218,15.12 8.558,22.8 0.004,-0.01 0.012,-0.01 0.016,-0.02 8.012,26.26 10.105,53.23 6.875,79.29 -3.707,30.08 -14.481,58.93 -31.371,84.07 1.836,0.64 3.672,1.27 5.508,1.9 21.234,7.4 42.847,13.94 64.878,19.93 l 53.391,14.37 c 66.383,18.86 130.024,41.1 191.113,70.23 61.616,28.26 120.856,63.84 184.646,104.53 63.55,40.5 132.25,86.65 208.39,127.21 37.94,20.23 77.31,39.18 117.67,55.52 20.17,8.24 40.57,15.78 61.02,22.96 l 30.85,10.22 c 11.7,3.53 23.45,6.9 35.41,9.85 41.73,10.38 85.43,16.51 129.98,16.51 6.43,0 12.88,-0.13 19.34,-0.39 51.16,-1.73 103.18,-11.99 152.31,-31.74 49.03,-19.83 94.85,-49.6 132.37,-87.45 37.71,-37.62 66.78,-83.18 84.77,-131.26 18.34,-48.04 25.82,-98.11 25.29,-145.94 -0.31,-47.94 -8.53,-93.85 -21.6,-136.71 -27.01,-85.71 -70.29,-159.64 -120.5,-225.75 -13.55,-18.07 -27.94,-35.43 -42.9,-52.19 -0.42,-0.31 -0.84,-0.6 -1.26,-0.9 l -47.9,11.7 -12.54,54.86 -12.55,-54.86 -54.85,-13.43 55.09,-10.18 7.66,-36.15 c -21.82,-16.76 -43.07,-33.86 -63.78,-51.25 -22.83,8.4 -53.14,18.05 -89.33,26.58 9.99,7.66 19.79,15.54 29.37,23.63 56.49,47.22 104.55,102.91 141.44,164.62 36.71,61.96 63.52,129.42 71.28,195.18 3.91,32.75 3.49,64.77 -1.82,94.25 -5.51,29.46 -15.7,56.28 -30.12,78.61 -28.57,45.03 -71.94,72.16 -120.75,81.89 -15.01,3.16 -30.6,4.6 -46.5,4.6 -9.92,0 -19.96,-0.56 -30.07,-1.6 -26.33,-3.06 -53.18,-9.64 -79.8,-19.57 -6.65,-2.49 -13.27,-5.3 -19.88,-8.14 l -23.59,-10.25 c -15.6,-7.06 -31.05,-14.32 -46.19,-22.1 -30.33,-15.52 -59.9,-32.28 -89.05,-50.9 -58.35,-36.91 -115.63,-81.62 -179.42,-129.52 -63.42,-47.89 -134.44,-97.22 -211.24,-139.16 -77.07,-41.38 -158.484,-75.75 -240.722,-101.12 -10.254,-3.45 -20.574,-6.11 -30.879,-9.14 l -27.707,-7.9 c -15.305,-4.47 -30.738,-9.44 -46.137,-14.72 -30.75,-10.74 -61.164,-23.09 -90.711,-36.78 -118.363,-55.17 -221.687,-132.58 -295.379,-233.23 -37.254,-50.08 -68.679,-105.44 -93.707,-166.28 -12.656,-30.36 -23.808,-62.05 -32.894,-94.98 -9.606,-32.84 -16.985,-66.88 -23.336,-101.77 -6.051,-34.91 -10.699,-70.7 -13.617,-107.1 -1.52,-17.12 -2.559,-39.44 -3.977,-59.61 -1.726,-20.6 -3.5,-41.09 -5.957,-61.5 -9.707,-81.63 -24.945,-161.6 -45.445,-239.14 -19.891,-77.67 -44.867,-152.84 -70.039,-226.79 -12.6761,-36.97 -25.3519,-73.69 -36.641,-110.41 -11.0195,-36.58 -21.2773,-73.94 -21.8164,-109.54 0.543,-76 13.4883,-152.4 42.6328,-221.56 28.8906,-68.82 74.6446,-130.73 133.8086,-169.12 14.668,-9.62 29.945,-17.88 45.637,-24.65 15.793,-6.58 32.047,-11.41 48.379,-14.81 17.187,-3.67 34.547,-5.37 51.812,-5.37 15.531,0 30.988,1.37 46.184,3.91 64.379,11.19 123.867,43.09 176.422,85.1 3.16,2.62 6.824,5.38 9.55,7.85 l 7.461,7.05 c 4.813,5.06 9.633,9.86 14.219,15.35 9.297,10.52 17.996,22.17 26.074,34.87 16.239,25.07 30.942,53.46 43.496,83.91 25.688,60.84 45.637,128.62 63.676,198.32 35.703,140.06 64.113,288.32 97.93,438.89 8.406,37.7 17.363,75.55 26.879,113.59 9.168,38.12 19.461,76.32 30.265,114.8 2.942,10.32 5.93,20.65 8.989,31 71.59,58.47 160.11,120.68 267.8,168.75 -3.23,-10.48 -6.23,-21.51 -9.03,-32.84 -8.13,-32.89 -14.44,-68.41 -19.95,-104.58 -5.99,-36.15 -10.57,-73.26 -15.7,-110.68 L 1133,2564.8 c -4.93,-38.15 -10.1,-76.54 -15.97,-115.06 -12.67,-82.69 -27.18,-166.25 -46.58,-250.12 -107.091,-113.83 -198.087,-242.65 -264.977,-383.59 -36.493,-76.37 -65.586,-156.36 -86.364,-238.23 -0.523,-0.31 -1.046,-0.62 -1.566,-0.93 l -16.801,-8.97 c -0.207,-0.11 -0.418,-0.21 -0.625,-0.32 -10.476,13.2 -26.633,21.4 -44.191,21.4 -2.664,0 -5.356,-0.19 -8.067,-0.57 l -57.921,-8.3 c -30.868,-4.41 -52.309,-33.01 -47.891,-63.87 0.078,-0.53 0.16,-1.07 0.25,-1.59 -28.41,-5.21 -57.426,-8.03 -86.461,-8.03 m 1474.934,2003.41 5.87,27.7 42.49,7.88 c -16.29,-11.67 -32.41,-23.53 -48.36,-35.58"
         style="fill:#f6f6f4;fill-opacity:1;fill-rule:nonzero;stroke:none"
         id="path38" />
      <path
         d="m 1685.31,0 c -6.74,0 -13.46,0.101563 -20.16,0.300781 C 1605,1.51953 1547.98,11.1719 1494.47,23.75 c -27.23,5.8984 -52.53,13.8086 -78.28,21.3711 -12.66,3.957 -24.85,8.3477 -37.27,12.5078 -12.36,4.2227 -24.63,8.2695 -37.39,13.6094 l -37.83,15.1914 -18.81,7.75 -18.68,9.1013 c -24.89,12.289 -49.64,24.008 -73.62,39.457 -12.07,7.321 -24.08,14.602 -35.92,22.211 l -34.58,25.539 -17.09,12.903 c -5.63,4.398 -10.9,9.55 -16.33,14.308 l -32.04,29.231 c -10.21,10.3 -19.7,21.531 -29.42,32.3 l -14.35,16.329 c -2.73,3.339 -5.31,6.839 -7.86,10.351 47.37,25.461 92.24,57.199 133.41,95.219 0.12,-0.09 0.25,-0.188 0.38,-0.277 81.27,-60.571 168.81,-111.043 259.51,-153.082 v 0 0 c -84.4,51.761 -163.76,110.82 -234.91,177.691 14.59,14.969 28.35,30.5 41.21,46.469 2.96,-2.918 5.64,-6.032 8.78,-8.821 l 10.05,-8.101 c 6.75,-5.348 12.92,-11.028 19.81,-16.188 l 21.51,-14.859 c 3.62,-2.43 6.86,-5.141 10.73,-7.383 l 11.7,-6.637 23.01,-13.55 24.95,-11.922 c 32.87,-16.239 69.37,-29.239 106.75,-41.231 8.95,-3.277 19.09,-5.91 29.05,-8.636 9.93,-2.672 19.93,-5.672 29.76,-8.09 19.5,-4.282 39.14,-9.473 57.89,-12.461 35.18,-6.442 68.9,-10.321 100.35,-10.321 2.43,0 4.85,0.02 7.25,0.071 33.71,0.597 65.27,4.75 97.86,13.129 64.72,16.449 136.85,51.66 215.2,93.57 39.05,20.66 79.02,42.699 119.96,65.012 40.65,22.367 82.89,44 125.02,65.769 169.68,86.77 348.11,162.231 529.09,224.309 l 33.9,11.832 34.1,11.18 c 22.74,7.347 45.38,15.097 68.2,22.109 l 133.56,40.641 c 42.47,13.097 84.53,27.066 126.43,41.367 l 62.33,22.5 c 20.55,7.859 41.21,15.64 61.67,23.761 40.57,16.77 81.4,33.29 120.79,52.11 l 29.8,13.77 29.3,14.5 c 19.78,9.42 38.52,20.12 57.86,30.24 75.69,42.21 148.59,89.1 213.6,144.16 32.85,27.28 62.69,57.2 91.05,88.38 28.63,31.06 53.21,65 75.17,100.4 44.32,70.73 71.96,150.43 81.83,233.06 4.31,41.38 4.21,83.4 -0.62,125.25 -1.44,10.37 -2.45,21.09 -4.21,31.22 l -6.23,29.62 c -5.71,19.11 -11.85,38.07 -20.86,55.4 -17.16,35.09 -42.52,65.14 -74.78,88.32 -32.18,23.28 -70.76,39.93 -111.98,51.32 -41.24,11.61 -85.1,17.66 -129.54,22.01 -39.52,3.25 -79.75,4.67 -120.4,4.67 -5.18,0 -10.35,-0.03 -15.54,-0.07 -91.85,-0.5 -185.39,-6.24 -281.93,-8.2 -13.05,-0.2 -26.17,-0.32 -39.37,-0.32 -35.68,0 -71.89,0.87 -108.76,3.28 -50.49,3.31 -102.43,9.38 -155.96,22.21 -109.08,26.73 -203.07,75.62 -288.21,129.83 -13.49,8.73 -26.77,17.6 -39.82,26.57 10.17,34.3 17.54,67.93 22.7,100.38 0.01,0 0.01,0 0.01,0 11.97,75.17 12.07,143.89 7.74,199.13 l 56.61,-49.63 c 16.7,-14.7 33.53,-28.68 50.11,-42.84 l 24.82,-20.84 24.93,-20.08 c 33.46,-26.04 66.49,-51.23 100.81,-72.72 33.88,-22.15 69.2,-41.02 103.63,-55.82 35.73,-15.2 76.06,-26.99 118.23,-36.6 42.21,-9.64 86.29,-17.44 131.34,-24.02 90.34,-13.22 184.02,-21.66 279.08,-32.69 l 71.58,-8.87 c 24.03,-3.5 47.98,-7.13 72.13,-11.55 48.27,-8.23 96.73,-19.63 144.81,-35.79 47.87,-16.34 95.7,-38.41 138.04,-70.43 42.39,-31.71 77.67,-73.74 101.16,-119.91 12.19,-23.04 20.46,-47.11 27.83,-71.2 l 8.96,-36.31 c 2.53,-11.98 4.11,-23.65 6.18,-35.51 6.82,-47.38 10.07,-95.52 8.14,-143.77 -2.71,-48.13 -9.16,-96.31 -21.15,-143.35 -3.25,-11.66 -5.69,-23.65 -9.45,-35.18 l -11.19,-34.72 c -8.66,-22.67 -17.29,-45.52 -27.66,-67.54 -40.56,-88.66 -95.95,-170.49 -160.81,-243.43 -32.26,-36.63 -66.52,-71.63 -102.79,-104.24 -35.86,-33.239 -74.01,-63.621 -112.9,-93.102 -19.73,-14.187 -39.2,-29.078 -59.48,-42.488 l -30.22,-20.57 -30.76,-19.649 c -41.27,-25.91 -83.42,-50.16 -126.38,-73 -21.51,-11.269 -43.21,-22.152 -64.91,-33.141 -21.9,-10.402 -43.88,-20.789 -66,-30.742 -22.23,-9.597 -44.32,-19.797 -66.76,-28.879 -22.52,-8.871 -44.88,-18.379 -67.6,-26.691 L 2985.2,562.27 c -21.14,-7.872 -41.93,-16.411 -62.91,-24.579 L 2890.9,525.32 2859.82,512.359 C 2693.42,444.148 2534.96,364.691 2379.19,277.422 2301.05,233.289 2223.65,187.672 2139.59,140.98 2097.79,117.531 2053.29,94.7109 2004.76,72.9688 1956.18,51.7617 1902.97,31.6406 1844.87,18.3984 1793.46,6.35938 1738.81,0 1685.31,0 m -519.62,1332.08 c -2.75,2.85 -5.52,5.67 -8.33,8.48 -12.19,12.19 -24.75,23.8 -37.63,34.82 8.93,16.93 18.06,33.74 27.07,50.57 l 32.37,59.97 131.09,237.99 c 42.42,78.05 70.91,163.04 91.47,249.67 6.01,24.95 11.4,50.05 16.32,75.28 l 25.82,-30.45 18.52,12.04 c -7.11,-22.52 -14.34,-45.03 -21.81,-67.46 -28.42,-86.13 -60.55,-171.6 -103.74,-252.66 -42.8,-79.27 -82.63,-160.03 -117.97,-242.5 l -13.19,-30.93 -12.45,-31.22 c -8.54,-20.69 -15.98,-41.81 -23.6,-62.82 -1.33,-3.59 -2.64,-7.18 -3.94,-10.78 m 355.46,883.97 -64.16,75.67 c 0,0.03 0,0.05 0.01,0.07 l 64.17,-75.68 c -0.01,-0.02 -0.02,-0.04 -0.02,-0.06"
         style="fill:#f6f6f4;fill-opacity:1;fill-rule:nonzero;stroke:none"
         id="path40" />
      <path
         d="m 3069.12,2591.09 c -10.14,0 -20.23,0.43 -30.52,0.52 -15.56,0.4 -30.4,2.66 -45.83,4.38 -7.75,0.77 -15.03,2.33 -22.34,3.79 l -22.21,4.49 -11.11,2.4 -10.67,3.09 -21.37,6.42 c -14.52,3.85 -27.89,9.31 -41.59,14.67 -48.2,19.08 -92.85,43.63 -133.93,71.94 197.81,202.15 362.27,439.69 484.3,658.75 v 0 c 152.77,274.57 238.43,519.87 238.38,629.7 -0.01,24.06 -4.14,41.62 -12.57,51.56 -13.92,16.43 -50.47,24.62 -104.51,24.62 -4.4,0 -8.93,-0.05 -13.57,-0.16 3.49,1.89 6.99,3.81 10.53,5.78 l 59.31,33.29 31.7,17.87 33.68,18.16 c 22.64,12.44 47.93,24.31 73.95,36.16 26.91,11.33 55.27,22.62 86.75,31.5 31.94,8.74 65.49,16.3 102.58,18.6 10.6,0.71 21.37,1.1 32.24,1.1 26.7,0 54,-2.34 80.8,-7.96 l 14.18,-2.68 13.83,-3.72 c 9.15,-2.59 18.46,-5.04 27.47,-8.01 17.3,-6.65 35.4,-13.05 51.11,-21.6 l 24.11,-12.48 22.1,-13.72 c 15.22,-9.12 27.96,-19.33 41.27,-29.41 3.55,-2.64 6.25,-4.69 10.24,-7.9 5.2,-4.35 10.15,-8.83 15.07,-13.39 9.89,-8.64 19.41,-19.68 28.33,-30.94 2.16,-2.71 4.38,-5.55 6.47,-8.45 l 6.11,-9.28 c 3.94,-6.25 7.65,-12.54 11.34,-18.91 6.56,-13.01 12.45,-26.75 16.86,-40.2 1.98,-6.77 3.87,-13.5 5.53,-20.26 0.86,-3.44 1.72,-6.88 2.34,-10.14 l 1.51,-9.77 c 0.94,-6.42 1.65,-12.86 2.35,-19.41 0.71,-6.45 0.53,-12.07 0.71,-18.24 0.05,-5.91 0.04,-12.02 -0.2,-17.84 l -1.4,-16.38 c -0.62,-5.38 -1.04,-11.14 -1.95,-16.1 l -2.66,-14.81 c -8.05,-39.05 -20.47,-70.65 -33.63,-99.37 -13.26,-28.69 -27.82,-54 -43.05,-77.83 -7.46,-12.07 -15.26,-23.29 -23.05,-34.73 -7.93,-10.97 -16.02,-22.09 -24.21,-32.55 -16.13,-21.43 -33.17,-41.18 -50.28,-60.81 -68.54,-77.53 -143.25,-144.07 -216.51,-210.04 l -25.85,-23.49 -11.46,-10.43 -10.81,-11.39 c -7.4,-7.45 -14.05,-16.11 -21.07,-24.32 -6.59,-8.78 -13.17,-17.56 -19.59,-26.81 -6.33,-9.29 -12.56,-18.6 -18.38,-28.58 -5.85,-9.76 -11.67,-19.74 -17.18,-30.03 -10.78,-20.56 -21.66,-41.72 -31.17,-63.54 -39.67,-87.37 -69.51,-181.35 -116.03,-275.41 -24.14,-46.69 -52.87,-94.5 -94.76,-135.96 -20.4,-21.28 -44.76,-39.25 -70.29,-55.68 -13.03,-7.6 -26.26,-15.45 -40.06,-21.53 -6.95,-3.19 -13.86,-6.59 -20.81,-9.46 l -21.23,-7.84 c -28.55,-10.27 -57.56,-16.81 -86.61,-21.87 -14.76,-2.6 -30.82,-3.41 -46.47,-4.88 -5.45,-0.36 -10.84,-0.48 -16.22,-0.48"
         style="fill:#f6f6f4;fill-opacity:1;fill-rule:nonzero;stroke:none"
         id="path42" />
      <path
         d="m 229.801,425.77 c -16.02,4.07 -31.363,9.359 -45.59,15.82 -26.402,11.699 -48.902,26.601 -68.398,42.398 -19.5982,15.903 -36.5005,32.703 -52.9028,49.602 -8.5977,9.398 -16.2969,19.5 -23.0977,30.398 -6.4023,11.102 -11.6992,22.801 -16.3008,35 -8.5,24.403 -13.89842,50.403 -17.40232,76.903 -6.996099,52.988 -8.50001,109.699 -1.79688,164 6.6992,54.3 23.4961,104.898 49.8984,148.097 0.0547,0.082 0.1055,0.172 0.1563,0.25 C 21.1875,790.34 79.6523,580.051 229.801,425.77"
         style="fill:#f6f6f4;fill-opacity:1;fill-rule:nonzero;stroke:none"
         id="path44" />
      <path
         d="m 3587.74,2352.6 c -54.49,0 -97.27,18.16 -121.39,46.04 -59.22,68.49 -44.19,240.11 154.21,394.16 169.24,131.42 339.17,149.84 421.12,149.84 31.9,0 50.46,-2.79 50.46,-2.79 0,0 1.07,-239.11 -213.51,-445.45 -107.35,-103.24 -211.53,-141.8 -290.89,-141.8 m 273.64,417.11 c -51.96,0 -159.69,-11.68 -266.99,-95.01 -125.78,-97.65 -135.31,-206.46 -97.76,-249.88 15.29,-17.67 42.41,-29.19 76.95,-29.19 50.32,0 116.37,24.45 184.42,89.9 136.04,130.82 135.37,282.41 135.37,282.41 0,0 -11.77,1.77 -31.99,1.77"
         style="fill:#f6f6f4;fill-opacity:1;fill-rule:nonzero;stroke:none"
         id="path46" />
      <path
         d="m 3573.58,2395.63 c -34.54,0 -61.66,11.52 -76.95,29.19 -37.55,43.42 -28.02,152.23 97.76,249.88 107.3,83.33 215.03,95.01 266.99,95.01 20.22,0 31.99,-1.77 31.99,-1.77 0,0 0.67,-151.59 -135.37,-282.41 -68.05,-65.45 -134.1,-89.9 -184.42,-89.9"
         style="fill:#ffffff;fill-opacity:1;fill-rule:nonzero;stroke:none"
         id="path48" />
      <path
         d="m 3702.29,2612.19 -17.79,14.19 c -5.09,4.07 -5.93,11.49 -1.87,16.59 4.08,5.09 11.5,5.92 16.59,1.86 l 17.79,-14.2 c 5.1,-4.06 5.93,-11.49 1.86,-16.58 -4.06,-5.1 -11.48,-5.93 -16.58,-1.86"
         style="fill:#e7e8e5;fill-opacity:1;fill-rule:nonzero;stroke:none"
         id="path50" />
      <path
         d="m 3501.65,2429.13 -12.42,19.09 c -3.56,5.45 -2.02,12.76 3.45,16.32 5.46,3.55 12.77,2.01 16.32,-3.45 l 12.42,-19.08 c 3.56,-5.46 2.01,-12.77 -3.44,-16.32 -5.46,-3.56 -12.78,-2.02 -16.33,3.44"
         style="fill:#e7e8e5;fill-opacity:1;fill-rule:nonzero;stroke:none"
         id="path52" />
      <path
         d="m 3618.81,2648.54 -12.23,0.37 c -6.51,0.2 -11.63,5.64 -11.44,12.15 0.2,6.52 5.64,11.63 12.15,11.44 l 12.23,-0.37 c 6.51,-0.2 11.63,-5.64 11.43,-12.16 -0.19,-6.51 -5.63,-11.63 -12.14,-11.43"
         style="fill:#e7e8e5;fill-opacity:1;fill-rule:nonzero;stroke:none"
         id="path54" />
      <path
         d="m 3732.07,2500.56 0.37,12.22 c 0.19,6.51 5.63,11.64 12.15,11.44 6.51,-0.2 11.63,-5.64 11.43,-12.15 l -0.37,-12.23 c -0.19,-6.51 -5.63,-11.63 -12.15,-11.43 -6.51,0.2 -11.63,5.64 -11.43,12.15"
         style="fill:#e7e8e5;fill-opacity:1;fill-rule:nonzero;stroke:none"
         id="path56" />
      <path
         d="m 3471.33,2496.96 -1.36,12.15 c -0.73,6.47 3.93,12.31 10.41,13.04 6.47,0.73 12.31,-3.93 13.04,-10.41 l 1.36,-12.15 c 0.73,-6.48 -3.93,-12.32 -10.41,-13.04 -6.47,-0.73 -12.31,3.93 -13.04,10.41"
         style="fill:#e7e8e5;fill-opacity:1;fill-rule:nonzero;stroke:none"
         id="path58" />
      <path
         d="m 3669.83,2390.36 -11.39,-4.46 c -6.06,-2.38 -12.91,0.61 -15.29,6.68 -2.37,6.07 0.62,12.91 6.68,15.29 l 11.39,4.46 c 6.06,2.38 12.91,-0.61 15.29,-6.68 2.38,-6.06 -0.61,-12.91 -6.68,-15.29"
         style="fill:#e7e8e5;fill-opacity:1;fill-rule:nonzero;stroke:none"
         id="path60" />
      <path
         d="m 3720.06,2439.3 c -46.9,-58.76 -132.55,-68.37 -191.32,-21.47 -58.76,46.89 -68.38,132.55 -21.48,191.31 46.9,58.77 132.56,68.38 191.32,21.48 58.76,-46.9 68.38,-132.56 21.48,-191.32"
         style="fill:#e7e8e5;fill-opacity:1;fill-rule:nonzero;stroke:none"
         id="path62" />
      <path
         d="m 3555.44,2598.96 c 0.23,-6.37 2.91,-12.67 7.06,-17.8 4.14,-5.2 9.92,-9.07 16.16,-11.34 6.38,-2.21 13.88,-2.41 20.06,0.53 6.18,2.75 11.07,7.62 13.83,13.33 -4.71,-4.18 -9.95,-7.4 -15.43,-8.98 -2.75,-0.76 -5.54,-1.14 -8.3,-0.93 -2.78,0.01 -5.5,0.77 -8.17,1.64 -1.34,0.5 -2.69,1.03 -4.01,1.62 -1.26,0.68 -2.59,1.27 -3.79,2.06 -2.56,1.38 -4.75,3.28 -6.95,5.2 -4.26,3.99 -7.84,8.94 -10.46,14.67"
         style="fill:#bebfbd;fill-opacity:1;fill-rule:nonzero;stroke:none"
         id="path64" />
      <path
         d="m 3604.94,2596.63 c 0.22,4.44 -1.47,8.95 -4.27,12.62 -2.81,3.7 -6.83,6.56 -11.22,8.12 -4.5,1.62 -9.92,1.6 -14.23,-0.57 -4.32,-2.06 -7.59,-5.64 -9.16,-9.77 3.52,2.61 7.13,4.54 10.76,5.41 3.63,0.94 7.18,0.48 10.64,-0.67 7.17,-2.52 13.15,-7.53 17.48,-15.14"
         style="fill:#bebfbd;fill-opacity:1;fill-rule:nonzero;stroke:none"
         id="path66" />
      <path
         d="m 3661.2,2508.86 c -1.3,-4.14 -0.75,-8.81 1.09,-12.93 1.89,-4.14 5.09,-7.76 9.05,-10.08 4.02,-2.48 9.23,-3.34 13.73,-2.09 4.48,1.18 8.28,3.89 10.64,7.5 -3.92,-1.68 -7.74,-2.76 -11.38,-2.92 -3.64,-0.17 -6.91,0.84 -9.93,2.61 -3.12,1.85 -5.86,4.3 -8.09,7.27 -2.19,3.01 -3.93,6.54 -5.11,10.64"
         style="fill:#bebfbd;fill-opacity:1;fill-rule:nonzero;stroke:none"
         id="path68" />
      <path
         d="m 3690.92,2496.65 c 1.28,2.82 1.09,6.17 -0.08,9.17 -1.23,3 -3.51,5.64 -6.33,7.29 -2.89,1.8 -6.75,2.4 -9.95,1.37 -3.19,-1.01 -5.77,-3.09 -7.13,-5.85 2.92,0.82 5.53,1.31 7.87,1.23 2.33,-0.06 4.26,-0.74 6.15,-1.84 4,-2.4 7.07,-5.83 9.47,-11.37"
         style="fill:#bebfbd;fill-opacity:1;fill-rule:nonzero;stroke:none"
         id="path70" />
      <path
         d="m 3706.33,2544.4 c -2.13,-2.37 -3.16,-5.68 -2.89,-9.11 0.3,-3.47 2.07,-6.86 4.91,-9.13 2.9,-2.49 7.06,-3.08 10.28,-2.29 3.29,0.78 6.09,2.52 8.06,5.03 -3.13,-0.32 -5.95,-0.62 -8.48,-0.37 -2.53,0.21 -4.54,0.92 -6.13,2.25 -1.72,1.39 -3.15,3.25 -4.08,5.5 -0.98,2.27 -1.45,5 -1.67,8.12"
         style="fill:#bebfbd;fill-opacity:1;fill-rule:nonzero;stroke:none"
         id="path72" />
      <path
         d="m 3724.57,2533.15 c 1.82,1.49 2.75,3.85 2.68,6.36 -0.09,2.56 -1.35,5.11 -3.46,6.8 -2.18,1.87 -5.37,2.26 -7.67,1.55 -2.36,-0.68 -4.27,-2.1 -5.41,-4.16 2.31,-0.13 4.23,-0.16 5.83,-0.49 1.62,-0.31 2.64,-0.8 3.52,-1.53 0.98,-0.8 1.91,-1.82 2.64,-3.16 0.78,-1.36 1.34,-3.12 1.87,-5.37"
         style="fill:#bebfbd;fill-opacity:1;fill-rule:nonzero;stroke:none"
         id="path74" />
      <path
         d="m 3516.46,2563.66 c -0.02,-3.19 1.42,-6.34 3.91,-8.73 2.52,-2.39 6.1,-3.75 9.72,-3.56 3.81,0.07 7.33,2.39 9.2,5.13 1.96,2.76 2.88,5.92 2.68,9.1 -2.12,-2.32 -4.02,-4.41 -6.08,-5.9 -2.04,-1.53 -4,-2.34 -6.08,-2.4 -2.21,-0.1 -4.51,0.34 -6.7,1.4 -2.24,1.04 -4.4,2.77 -6.65,4.96"
         style="fill:#bebfbd;fill-opacity:1;fill-rule:nonzero;stroke:none"
         id="path76" />
      <path
         d="m 3537.57,2567.37 c 0.38,2.33 -0.49,4.7 -2.22,6.54 -1.77,1.84 -4.42,2.91 -7.11,2.77 -2.87,-0.05 -5.51,-1.87 -6.76,-3.92 -1.31,-2.09 -1.79,-4.41 -1.28,-6.71 1.82,1.43 3.27,2.69 4.69,3.51 1.41,0.84 2.5,1.15 3.63,1.19 1.28,0.06 2.65,-0.1 4.08,-0.61 1.5,-0.49 3.08,-1.44 4.97,-2.77"
         style="fill:#bebfbd;fill-opacity:1;fill-rule:nonzero;stroke:none"
         id="path78" />
      <path
         d="m 3602.62,2480.27 c -14.28,-8.39 -32.7,-3.56 -41.14,10.81 -8.44,14.36 -3.7,32.8 10.58,41.2 14.28,8.39 32.7,3.55 41.14,-10.81 8.45,-14.36 3.71,-32.81 -10.58,-41.2"
         style="fill:#d4d6d3;fill-opacity:1;fill-rule:nonzero;stroke:none"
         id="path80" />
      <path
         d="m 3571.75,2518.8 c -7.79,-4.58 -12.46,-12.44 -13.28,-20.82 -3.74,12.92 1.5,27.21 13.6,34.31 14.27,8.4 32.7,3.55 41.14,-10.8 6.08,-10.36 5.33,-22.83 -0.95,-32.13 1.42,6.47 0.47,13.46 -3.16,19.65 -7.65,13.01 -24.39,17.41 -37.35,9.79"
         style="fill:#bebfbd;fill-opacity:1;fill-rule:nonzero;stroke:none"
         id="path82" />
      <path
         d="m 3546.56,2496.6 c 0.57,-7.79 3.98,-15.41 9.12,-21.61 5.13,-6.26 12.18,-10.94 19.79,-13.71 7.75,-2.69 16.79,-2.96 24.34,0.52 7.56,3.26 13.62,9.07 17.27,15.95 -5.59,-5.35 -12,-9.52 -18.87,-11.59 -1.71,-0.56 -3.47,-0.82 -5.19,-1.15 -1.75,-0.1 -3.5,-0.39 -5.25,-0.16 -3.51,-0.01 -6.95,0.94 -10.3,2.03 -1.68,0.62 -3.38,1.3 -5.02,2.04 -1.59,0.86 -3.25,1.61 -4.75,2.61 -3.17,1.76 -5.92,4.15 -8.62,6.6 -5.24,5.07 -9.55,11.32 -12.52,18.47"
         style="fill:#bebfbd;fill-opacity:1;fill-rule:nonzero;stroke:none"
         id="path84" />
      <path
         d="m 3515.09,2481.55 c -5.82,-2.05 -12.22,1.03 -14.29,6.89 -2.06,5.85 0.98,12.28 6.81,14.33 5.83,2.06 12.23,-1.03 14.3,-6.89 2.06,-5.86 -0.99,-12.27 -6.82,-14.33"
         style="fill:#d4d6d3;fill-opacity:1;fill-rule:nonzero;stroke:none"
         id="path86" />
      <path
         d="m 3506.54,2497.85 c -3.17,-1.11 -5.45,-3.66 -6.35,-6.67 -0.45,4.99 2.49,9.85 7.42,11.6 5.83,2.05 12.23,-1.03 14.3,-6.89 1.5,-4.23 0.32,-8.74 -2.64,-11.7 0.98,2.27 1.14,4.89 0.25,7.42 -1.88,5.31 -7.69,8.11 -12.98,6.24"
         style="fill:#bebfbd;fill-opacity:1;fill-rule:nonzero;stroke:none"
         id="path88" />
      <path
         d="m 3495.74,2491.52 c -0.51,-2.9 0.13,-6.01 1.54,-8.71 1.41,-2.74 3.69,-5.01 6.33,-6.61 2.71,-1.57 6.12,-2.32 9.19,-1.5 3.06,0.71 5.69,2.52 7.41,4.9 -2.53,-1.45 -5.17,-2.41 -7.78,-2.61 -2.6,-0.23 -5.09,0.47 -7.31,1.77 -4.58,2.67 -7.93,7.12 -9.38,12.76"
         style="fill:#bebfbd;fill-opacity:1;fill-rule:nonzero;stroke:none"
         id="path90" />
      <path
         d="m 3599.97,2417.76 c -8.67,-1.44 -16.87,4.44 -18.32,13.16 -1.46,8.7 4.39,16.93 13.05,18.38 8.67,1.45 16.86,-4.44 18.31,-13.15 1.46,-8.71 -4.38,-16.94 -13.04,-18.39"
         style="fill:#d4d6d3;fill-opacity:1;fill-rule:nonzero;stroke:none"
         id="path92" />
      <path
         d="m 3591.99,2442.69 c -4.72,-0.79 -8.53,-3.8 -10.52,-7.79 0.6,7.1 5.9,13.18 13.23,14.41 8.67,1.44 16.87,-4.45 18.32,-13.15 1.05,-6.29 -1.69,-12.32 -6.56,-15.73 1.93,2.94 2.79,6.57 2.16,10.32 -1.32,7.9 -8.77,13.25 -16.63,11.94"
         style="fill:#bebfbd;fill-opacity:1;fill-rule:nonzero;stroke:none"
         id="path94" />
      <path
         d="m 3575.31,2436.48 c -1.11,-3.97 -0.92,-8.37 0.48,-12.4 1.37,-4.06 3.95,-7.7 7.19,-10.5 3.31,-2.79 7.71,-4.63 12.09,-4.36 4.35,0.15 8.42,1.91 11.57,4.55 -3.74,-1.66 -7.75,-2.47 -11.54,-2.23 -3.81,0.22 -7.32,1.86 -10.19,4.3 -2.94,2.48 -5.31,5.59 -6.97,9.09 -1.6,3.52 -2.59,7.45 -2.63,11.55"
         style="fill:#bebfbd;fill-opacity:1;fill-rule:nonzero;stroke:none"
         id="path96" />
      <path
         d="m 3653.54,2578.95 c 8.38,-10.14 24.47,-10.69 35.92,-1.22 11.46,9.47 13.95,25.37 5.57,35.51 -8.38,10.14 -24.47,10.68 -35.92,1.22 -11.47,-9.47 -13.96,-25.37 -5.57,-35.51"
         style="fill:#d4d6d3;fill-opacity:1;fill-rule:nonzero;stroke:none"
         id="path98" />
      <path
         d="m 3690.73,2602.38 c 4.57,-5.53 5.6,-12.94 3.41,-19.84 7.28,9.44 7.99,22.13 0.89,30.71 -8.38,10.14 -24.48,10.68 -35.92,1.22 -8.26,-6.83 -11.88,-17 -10.08,-25.94 1.07,5.52 4.16,10.89 9.1,14.96 10.38,8.59 24.99,8.09 32.6,-1.11"
         style="fill:#bebfbd;fill-opacity:1;fill-rule:nonzero;stroke:none"
         id="path100" />
      <path
         d="m 3642.79,2596.05 c -2.97,-5.81 -3.59,-13.03 -1.34,-19.69 1.05,-3.38 3.12,-6.39 5.48,-8.99 2.37,-2.64 5.34,-4.54 8.55,-6.24 3.33,-1.33 6.84,-2.24 10.37,-2.27 3.48,0.04 6.95,0.37 10.16,1.44 6.47,1.91 12.32,5.27 17.03,9.78 -6.01,-2.4 -12.04,-4.33 -18.04,-5.25 -6,-0.93 -11.97,-0.58 -17.07,1.71 -2.46,1.22 -4.99,2.76 -7.02,4.79 -2.13,1.92 -3.88,4.21 -5.19,6.8 -2.59,5.19 -3.52,11.47 -2.93,17.92"
         style="fill:#bebfbd;fill-opacity:1;fill-rule:nonzero;stroke:none"
         id="path102" />
      <path
         d="m 228.336,1250.91 77.027,77.02 c 22.047,22.05 22.047,57.79 0,79.84 -22.05,22.05 -57.797,22.05 -79.843,0 l -77.028,-77.02 c -22.047,-22.05 -22.047,-57.79 0,-79.84 22.051,-22.05 57.793,-22.05 79.844,0"
         style="fill:#e7e8e5;fill-opacity:1;fill-rule:nonzero;stroke:none"
         id="path104" />
      <path
         d="m 1280.14,487.602 48.88,97.339 c 13.99,27.868 2.74,61.797 -25.12,75.789 -27.87,13.989 -61.8,2.739 -75.79,-25.121 l -48.88,-97.339 c -13.99,-27.872 -2.75,-61.801 25.12,-75.79 27.86,-14 61.79,-2.75 75.79,25.122"
         style="fill:#e7e8e5;fill-opacity:1;fill-rule:nonzero;stroke:none"
         id="path106" />
      <path
         d="m 605.93,1468.34 57.925,8.29 c 30.864,4.41 52.309,33.02 47.891,63.88 -4.422,30.87 -33.019,52.31 -63.887,47.9 l -57.921,-8.3 c -30.868,-4.41 -52.309,-33.01 -47.891,-63.87 4.414,-30.87 33.019,-52.32 63.883,-47.9"
         style="fill:#e7e8e5;fill-opacity:1;fill-rule:nonzero;stroke:none"
         id="path108" />
      <path
         d="m 146.355,704.219 -8.289,57.922 c -4.418,30.871 -33.019,52.308 -63.8824,47.89 C 43.3125,805.609 21.8711,777.012 26.293,746.148 l 8.2851,-57.929 c 4.418,-30.86 33.0157,-52.301 63.8867,-47.891 30.8632,4.41 52.3052,33.024 47.8902,63.891"
         style="fill:#e7e8e5;fill-opacity:1;fill-rule:nonzero;stroke:none"
         id="path110" />
      <path
         d="m 1388.11,791.41 v 128.238 c 0,11.93 -9.67,21.602 -21.6,21.602 h -69.72 c -11.93,0 -21.6,-9.672 -21.6,-21.602 V 791.41 c 0,-11.922 9.67,-21.59 21.6,-21.59 h 69.72 c 11.93,0 21.6,9.668 21.6,21.59"
         style="fill:#e7e8e5;fill-opacity:1;fill-rule:nonzero;stroke:none"
         id="path112" />
      <path
         d="m 501.109,213.441 56.52,-15.152 c 30.117,-8.07 61.074,9.801 69.144,39.922 8.067,30.117 -9.804,61.078 -39.921,69.148 L 530.336,322.5 c -30.117,8.07 -61.074,-9.801 -69.148,-39.922 -8.071,-30.109 9.8,-61.078 39.921,-69.137"
         style="fill:#e7e8e5;fill-opacity:1;fill-rule:nonzero;stroke:none"
         id="path114" />
      <path
         d="m 236.145,419.34 c 254.39,-254.379 666.828,-254.379 921.215,0 254.39,254.39 254.39,666.83 0,921.22 -254.387,254.38 -666.825,254.38 -921.215,0 -254.3833,-254.39 -254.3833,-666.83 0,-921.22"
         style="fill:#e7e8e5;fill-opacity:1;fill-rule:nonzero;stroke:none"
         id="path116" />
      <path
         d="m 933.723,1266.4 c 2.3,-30.42 -7.102,-61.81 -24.086,-88.41 -16.907,-26.91 -42.328,-48.39 -70.793,-62.55 -29.141,-13.93 -64.711,-18.85 -95.656,-8.16 -30.879,9.78 -56.715,30.32 -72.891,56.01 24.621,-17.39 51.223,-29.91 78.172,-34.44 13.457,-2.21 26.918,-2.51 39.972,-0.04 13.172,1.52 25.735,6.6 37.942,12.17 6.094,3.06 12.281,6.35 18.211,9.84 5.66,3.92 11.652,7.44 16.941,11.84 11.406,7.9 20.813,18.12 30.27,28.4 18.136,21.29 32.496,46.68 41.918,75.34"
         style="fill:#bebfbd;fill-opacity:1;fill-rule:nonzero;stroke:none"
         id="path118" />
      <path
         d="m 699.582,1228.93 c -3.437,20.99 2.168,43.31 13.551,62.28 11.383,19.08 28.941,34.82 49.039,44.56 20.519,10.15 46.297,12.95 67.941,4.91 21.649,-7.49 39.106,-22.74 48.766,-41.56 -18.106,10.52 -36.332,17.75 -54.047,20 -17.754,2.51 -34.398,-1.57 -50.199,-8.91 -32.785,-15.78 -58.531,-42.81 -75.051,-81.28"
         style="fill:#bebfbd;fill-opacity:1;fill-rule:nonzero;stroke:none"
         id="path120" />
      <path
         d="m 478.906,781.488 c 8.356,-18.937 8.289,-41.449 1.684,-62.058 -6.731,-20.641 -20.055,-39.61 -37.649,-52.719 -17.746,-13.949 -42.109,-20.84 -64.144,-17.313 -21.953,3.25 -41.461,14.133 -54.606,29.993 19.516,-5.891 38.305,-8.942 55.649,-7.821 17.418,1.141 32.457,7.7 45.84,17.719 13.89,10.449 25.558,23.582 34.593,38.879 8.84,15.492 15.192,33.23 18.633,53.32"
         style="fill:#bebfbd;fill-opacity:1;fill-rule:nonzero;stroke:none"
         id="path122" />
      <path
         d="m 344.07,707.578 c -7.601,12.723 -8.441,28.762 -4.465,43.66 4.215,14.934 13.661,28.692 26.188,38.071 12.789,10.062 30.82,14.972 46.594,11.793 15.668,-3.071 29.066,-11.614 36.996,-24.032 -14.305,2.371 -26.973,3.328 -38.055,1.7 -11.082,-1.551 -19.871,-5.79 -28.269,-12.051 -17.723,-13.571 -30.528,-31.508 -38.989,-59.141"
         style="fill:#bebfbd;fill-opacity:1;fill-rule:nonzero;stroke:none"
         id="path124" />
      <path
         d="M 245.336,926.441 C 256.75,916.328 263.359,901.09 263.902,884.629 264.348,868 257.727,850.91 245.461,838.602 233.02,825.25 213.527,820.191 197.77,822.25 c -16.059,1.93 -30.301,8.73 -40.957,19.609 15.031,0.161 28.574,0.231 40.48,2.762 11.934,2.367 21.117,6.758 27.953,13.981 7.442,7.5 13.258,17.136 16.488,28.308 3.454,11.352 4.207,24.539 3.602,39.531"
         style="fill:#bebfbd;fill-opacity:1;fill-rule:nonzero;stroke:none"
         id="path126" />
      <path
         d="m 164.621,863.191 c -9.496,6.11 -15.172,16.797 -16.18,28.829 -0.89,12.191 3.743,25.011 12.864,34.152 9.367,10.066 24.273,13.617 35.613,11.5 11.594,-2.024 21.398,-7.742 27.953,-16.91 -10.93,-1.871 -20.035,-3.024 -27.476,-5.453 -7.508,-2.309 -12.114,-5.2 -15.875,-9.129 -4.297,-4.352 -8.125,-9.711 -10.907,-16.45 -2.996,-6.902 -4.679,-15.55 -5.992,-26.539"
         style="fill:#bebfbd;fill-opacity:1;fill-rule:nonzero;stroke:none"
         id="path128" />
      <path
         d="m 1137.89,1119.38 c 1.81,-15.15 -3.37,-30.93 -13.9,-43.6 -10.72,-12.72 -27.02,-21.09 -44.36,-22.14 -18.17,-1.71 -36.1,7.45 -46.51,19.46 -10.72,12.11 -16.85,26.66 -17.59,41.87 11.34,-9.86 21.51,-18.81 32.09,-24.84 10.5,-6.15 20.28,-8.96 30.18,-8.12 10.55,0.67 21.3,4 31.13,10.21 10.12,6.19 19.46,15.55 28.96,27.16"
         style="fill:#bebfbd;fill-opacity:1;fill-rule:nonzero;stroke:none"
         id="path130" />
      <path
         d="m 1035.54,1125.72 c -3.03,10.88 -0.17,22.65 7.06,32.31 7.44,9.69 19.42,16.2 32.31,16.97 13.69,1.31 27.19,-5.95 34.26,-15.06 7.32,-9.21 10.85,-20.01 9.66,-31.21 -9.42,5.86 -16.99,11.05 -24.16,14.18 -7.16,3.25 -12.52,4.15 -17.94,3.72 -6.09,-0.4 -12.52,-1.86 -19.07,-5.05 -6.83,-3.16 -13.84,-8.52 -22.12,-15.86"
         style="fill:#bebfbd;fill-opacity:1;fill-rule:nonzero;stroke:none"
         id="path132" />
      <path
         d="m 772.691,676.84 c 72.403,-32.281 157.418,0.551 189.879,73.34 32.465,72.808 0.094,157.988 -72.308,190.289 C 817.859,972.75 732.848,939.91 700.383,867.121 667.918,794.32 700.289,709.141 772.691,676.84"
         style="fill:#d4d6d3;fill-opacity:1;fill-rule:nonzero;stroke:none"
         id="path134" />
      <path
         d="m 898.957,876.52 c 39.438,-17.598 65.863,-52.481 74.207,-91.891 10.902,63.41 -21.613,128.562 -82.922,155.91 -72.371,32.27 -157.433,-0.578 -189.883,-73.348 -23.414,-52.5 -13.164,-111.429 21.649,-152.281 -10.184,30.02 -9.434,63.75 4.562,95.129 29.422,65.961 106.657,95.801 172.387,66.481"
         style="fill:#bebfbd;fill-opacity:1;fill-rule:nonzero;stroke:none"
         id="path136" />
      <path
         d="m 1030.55,784.441 c 1.46,-37.351 -10.73,-75.402 -31.831,-107.632 -21.039,-32.52 -52.047,-58.539 -86.774,-75.758 -35.402,-16.93 -78.281,-23.031 -116.019,-10.52 -37.656,11.438 -69.645,35.848 -90.606,66.61 29.41,-22.45 62.164,-38.852 95.895,-45.063 8.41,-1.719 16.902,-2 25.293,-2.66 8.406,0.48 16.847,-0.008 25.058,2.004 16.668,1.84 32.539,8.207 47.918,15.187 7.641,3.852 15.364,7.993 22.774,12.391 7.07,4.941 14.586,9.34 21.168,14.922 14.16,10.058 25.902,22.906 37.461,35.969 22.263,26.91 39.403,58.961 49.663,94.55"
         style="fill:#bebfbd;fill-opacity:1;fill-rule:nonzero;stroke:none"
         id="path138" />
      <path
         d="m 1188.21,729.648 c 28.8,-6.668 57.59,11.411 64.3,40.383 6.7,28.969 -11.22,57.86 -40.04,64.52 -28.81,6.668 -57.6,-11.422 -64.3,-40.383 -6.7,-28.977 11.22,-57.859 40.04,-64.52"
         style="fill:#d4d6d3;fill-opacity:1;fill-rule:nonzero;stroke:none"
         id="path140" />
      <path
         d="m 1220.21,811.762 c 15.7,-3.641 27.86,-14.532 33.72,-28.364 -0.52,23.993 -17.07,45.532 -41.47,51.18 -28.8,6.66 -57.61,-11.43 -64.3,-40.379 -4.84,-20.898 3.11,-41.75 18.77,-54.23 -5.87,10.269 -7.99,22.672 -5.11,35.16 6.08,26.25 32.23,42.68 58.39,36.633"
         style="fill:#bebfbd;fill-opacity:1;fill-rule:nonzero;stroke:none"
         id="path142" />
      <path
         d="m 1274.96,787.422 c 3.94,-13.551 2.58,-28.664 -2.72,-42.293 -5.23,-13.75 -14.88,-25.801 -26.56,-34.758 -12.04,-8.922 -27.86,-14.301 -42.88,-12.09 -14.92,1.797 -28.42,8.957 -37.86,19.34 12.79,-5.492 25.9,-8.66 38.39,-8.25 12.5,0.309 23.96,4.969 33.8,12.348 20.34,15.133 33.92,38.051 37.83,65.703"
         style="fill:#bebfbd;fill-opacity:1;fill-rule:nonzero;stroke:none"
         id="path144" />
      <path
         d="m 818.719,381.02 c 41.961,-2.239 77.812,30.128 80.066,72.332 2.262,42.187 -29.922,78.207 -71.883,80.457 -41.964,2.242 -77.812,-30.137 -80.07,-72.329 -2.262,-42.191 29.922,-78.21 71.887,-80.46"
         style="fill:#d4d6d3;fill-opacity:1;fill-rule:nonzero;stroke:none"
         id="path146" />
      <path
         d="m 843.336,503.809 c 22.855,-1.219 42.555,-13.481 54.16,-31.411 -6.637,33.461 -35.086,59.543 -70.617,61.442 -41.945,2.25 -77.813,-30.149 -80.074,-72.328 -1.633,-30.434 14.625,-57.641 39.601,-71.274 -10.73,12.93 -16.761,29.77 -15.785,47.961 2.047,38.231 34.613,67.653 72.715,65.61"
         style="fill:#bebfbd;fill-opacity:1;fill-rule:nonzero;stroke:none"
         id="path148" />
      <path
         d="m 925.934,483.191 c 7.441,-18.261 8.836,-39.32 4.339,-59.222 -4.289,-20.02 -14.679,-38.699 -28.562,-53.758 -14.254,-15.039 -34.195,-26.152 -55.156,-27.172 -20.766,-1.648 -41.106,4.551 -57.446,15.441 18.68,-5.871 38.129,-7.601 56.055,-4.441 18.031,3.082 33.809,12.742 46.156,25.871 12.653,13.391 22.293,29.43 28.289,46.969 5.762,17.609 8.368,36.812 6.325,56.312"
         style="fill:#bebfbd;fill-opacity:1;fill-rule:nonzero;stroke:none"
         id="path150" />
      <path
         d="m 477.91,1118.88 c -34.441,-52.69 -110.629,-63.86 -170.16,-24.96 -59.523,38.92 -79.867,113.18 -45.418,165.87 34.441,52.71 110.625,63.88 170.156,24.97 59.532,-38.91 79.867,-113.17 45.422,-165.88"
         style="fill:#d4d6d3;fill-opacity:1;fill-rule:nonzero;stroke:none"
         id="path152" />
      <path
         d="m 288.531,1210.43 c -18.758,-28.71 -19.664,-64.5 -5.597,-96.15 -39.68,40.99 -49.793,100.95 -20.625,145.58 34.425,52.68 110.656,63.86 170.16,24.96 42.933,-28.06 65.511,-74.47 61.746,-117.96 -8.024,25.67 -25.59,49.53 -51.25,66.3 -53.949,35.27 -123.156,25.11 -154.434,-22.73"
         style="fill:#bebfbd;fill-opacity:1;fill-rule:nonzero;stroke:none"
         id="path154" />
      <path
         d="m 519.91,1205.95 c 17.192,-26.04 24.012,-60.07 16.844,-92.94 -3.145,-16.61 -11.371,-32.03 -21.238,-45.64 -9.895,-13.85 -22.969,-24.46 -37.286,-34.26 -15.148,-8.11 -31.398,-14.29 -48.101,-16.32 -16.617,-1.67 -33.266,-1.94 -49.109,1.44 -31.766,5.65 -61.379,18.5 -86.235,37.39 29.914,-8.2 59.578,-14.16 88.641,-15.33 28.988,-1.2 57.156,3.61 80.242,17.24 11.047,7.11 22.273,15.81 30.812,26.54 9.102,10.23 16.188,22.08 21.036,35.1 9.527,26.06 10.597,56.43 4.394,86.78"
         style="fill:#bebfbd;fill-opacity:1;fill-rule:nonzero;stroke:none"
         id="path156" />
      <path
         d="m 3434.52,1258.93 55.09,-10.18 12.3,-58.07 12.32,58.07 55.08,10.21 -54.85,13.4 -12.55,54.85 -12.55,-54.85 -54.84,-13.43"
         style="fill:#bebfbd;fill-opacity:1;fill-rule:nonzero;stroke:none"
         id="path158" />
      <path
         d="m 1161.67,1572.44 55.09,-10.19 12.31,-58.06 12.31,58.06 55.08,10.22 -54.85,13.41 -12.54,54.84 -12.55,-54.84 -54.85,-13.44"
         style="fill:#bebfbd;fill-opacity:1;fill-rule:nonzero;stroke:none"
         id="path160" />
      <path
         d="m 2871.84,2193.21 55.09,-10.18 12.32,-58.07 12.3,58.07 55.09,10.21 -54.86,13.4 -12.53,54.85 -12.55,-54.85 -54.86,-13.43"
         style="fill:#bebfbd;fill-opacity:1;fill-rule:nonzero;stroke:none"
         id="path162" />
      <path
         d="m 3958.14,1600.76 30.79,-5.69 6.89,-32.45 6.87,32.45 30.79,5.71 -30.65,7.49 -7.01,30.65 -7.01,-30.65 -30.67,-7.51"
         style="fill:#bebfbd;fill-opacity:1;fill-rule:nonzero;stroke:none"
         id="path164" />
      <path
         d="m 1621.7,365.762 30.79,-5.692 6.88,-32.461 6.88,32.461 30.78,5.7 -30.65,7.492 -7.01,30.66 -7.01,-30.66 -30.66,-7.5"
         style="fill:#bebfbd;fill-opacity:1;fill-rule:nonzero;stroke:none"
         id="path166" />
      <path
         d="m 3882.82,3061.74 30.79,-5.7 6.89,-32.45 6.87,32.45 30.79,5.71 -30.65,7.49 -7.01,30.66 -7.02,-30.66 -30.66,-7.5"
         style="fill:#bebfbd;fill-opacity:1;fill-rule:nonzero;stroke:none"
         id="path168" />
      <path
         d="m 250.941,2363.62 30.789,-5.69 6.879,-32.46 6.879,32.46 30.789,5.71 -30.66,7.49 -7.008,30.65 -7.015,-30.65 -30.653,-7.51"
         style="fill:#bebfbd;fill-opacity:1;fill-rule:nonzero;stroke:none"
         id="path170" />
      <path
         d="m 416.125,711.691 30.793,-5.703 6.879,-32.449 6.883,32.449 30.789,5.723 -30.66,7.488 -7.012,30.653 -7.012,-30.653 -30.66,-7.508"
         style="fill:#bebfbd;fill-opacity:1;fill-rule:nonzero;stroke:none"
         id="path172" />
      <path
         d="m 3764.01,2239.61 30.79,-5.7 6.88,-32.45 6.88,32.45 30.79,5.72 -30.65,7.48 -7.02,30.66 -7.01,-30.66 -30.66,-7.5"
         style="fill:#bebfbd;fill-opacity:1;fill-rule:nonzero;stroke:none"
         id="path174" />
      <path
         d="m 2465.35,1190.67 30.79,-5.69 6.87,-32.45 6.89,32.45 30.79,5.71 -30.66,7.49 -7.02,30.66 -7.01,-30.66 -30.65,-7.51"
         style="fill:#bebfbd;fill-opacity:1;fill-rule:nonzero;stroke:none"
         id="path176" />
      <path
         d="m 1344.95,3796.9 30.79,-5.69 6.88,-32.45 6.88,32.45 30.79,5.71 -30.66,7.49 -7.01,30.66 -7.01,-30.66 -30.66,-7.51"
         style="fill:#bebfbd;fill-opacity:1;fill-rule:nonzero;stroke:none"
         id="path178" />
      <path
         d="m 2550.27,1308.58 30.79,-5.69 6.88,-32.45 6.88,32.45 30.79,5.71 -30.65,7.49 -7.02,30.66 -7.02,-30.66 -30.65,-7.51"
         style="fill:#bebfbd;fill-opacity:1;fill-rule:nonzero;stroke:none"
         id="path180" />
      <path
         d="m 1548.86,295.559 c 11.49,0 11.51,-17.848 0,-17.848 -11.48,0 -11.5,17.848 0,17.848"
         style="fill:#bebfbd;fill-opacity:1;fill-rule:nonzero;stroke:none"
         id="path182" />
      <path
         d="m 3140.92,1969.45 c 11.48,0 11.5,-17.84 0,-17.84 -11.49,0 -11.51,17.84 0,17.84"
         style="fill:#bebfbd;fill-opacity:1;fill-rule:nonzero;stroke:none"
         id="path184" />
      <path
         d="m 2379.48,1217.42 c 11.49,0 11.5,-17.85 0,-17.85 -11.47,0 -11.5,17.85 0,17.85"
         style="fill:#bebfbd;fill-opacity:1;fill-rule:nonzero;stroke:none"
         id="path186" />
      <path
         d="m 1055.71,362.52 c 11.48,0 11.5,-17.84 0,-17.84 -11.48,0 -11.51,17.84 0,17.84"
         style="fill:#bebfbd;fill-opacity:1;fill-rule:nonzero;stroke:none"
         id="path188" />
      <path
         d="m 4035.11,244.25 c 11.49,0 11.51,-17.852 0,-17.852 -11.48,0 -11.5,17.852 0,17.852"
         style="fill:#bebfbd;fill-opacity:1;fill-rule:nonzero;stroke:none"
         id="path190" />
      <path
         d="m 3565.6,1852.52 c 11.49,0 11.51,-17.85 0,-17.85 -11.48,0 -11.5,17.85 0,17.85"
         style="fill:#bebfbd;fill-opacity:1;fill-rule:nonzero;stroke:none"
         id="path192" />
      <path
         d="m 1772.43,456.078 c 8.12,0 8.14,-12.629 0,-12.629 -8.13,0 -8.14,12.629 0,12.629"
         style="fill:#bebfbd;fill-opacity:1;fill-rule:nonzero;stroke:none"
         id="path194" />
      <path
         d="m 511.637,3734.35 c 8.125,0 8.14,-12.63 0,-12.63 -8.125,0 -8.141,12.63 0,12.63"
         style="fill:#bebfbd;fill-opacity:1;fill-rule:nonzero;stroke:none"
         id="path196" />
      <path
         d="m 2946.65,1705.09 c 8.12,0 8.14,-12.63 0,-12.63 -8.13,0 -8.14,12.63 0,12.63"
         style="fill:#bebfbd;fill-opacity:1;fill-rule:nonzero;stroke:none"
         id="path198" />
      <path
         d="m 2641.67,1158.84 c 8.11,0 8.13,-12.63 0,-12.63 -8.14,0 -8.15,12.63 0,12.63"
         style="fill:#bebfbd;fill-opacity:1;fill-rule:nonzero;stroke:none"
         id="path200" />
      <path
         d="m 2142.18,1265.26 c 8.13,0 8.14,-12.63 0,-12.63 -8.12,0 -8.14,12.63 0,12.63"
         style="fill:#bebfbd;fill-opacity:1;fill-rule:nonzero;stroke:none"
         id="path202" />
      <path
         d="m 2732.64,1819.82 c 22.03,0 22.06,-34.22 0,-34.22 -22.02,0 -22.05,34.22 0,34.22"
         style="fill:#bebfbd;fill-opacity:1;fill-rule:nonzero;stroke:none"
         id="path204" />
      <path
         d="m 1856.93,3547.91 55.09,-10.18 12.31,-58.07 12.31,58.07 55.08,10.21 -54.85,13.4 -12.54,54.86 -12.55,-54.86 -54.85,-13.43"
         style="fill:#bebfbd;fill-opacity:1;fill-rule:nonzero;stroke:none"
         id="path206" />
      <path
         d="m 2066.84,4050.62 30.79,-5.69 6.88,-32.46 6.88,32.46 30.79,5.71 -30.65,7.49 -7.02,30.66 -7.01,-30.66 -30.66,-7.51"
         style="fill:#bebfbd;fill-opacity:1;fill-rule:nonzero;stroke:none"
         id="path208" />
      <path
         d="m 200.438,3217.54 c 11.488,0 11.507,-17.85 0,-17.85 -11.481,0 -11.504,17.85 0,17.85"
         style="fill:#bebfbd;fill-opacity:1;fill-rule:nonzero;stroke:none"
         id="path210" />
      <path
         d="m 340.652,850.578 c 11.489,0 11.504,-17.848 0,-17.848 -11.48,0 -11.504,17.848 0,17.848"
         style="fill:#bebfbd;fill-opacity:1;fill-rule:nonzero;stroke:none"
         id="path212" />
      <path
         d="m 98.957,407.871 c 11.484,0 11.504,-17.851 0,-17.851 -11.4843,0 -11.5039,17.851 0,17.851"
         style="fill:#bebfbd;fill-opacity:1;fill-rule:nonzero;stroke:none"
         id="path214" />
      <path
         d="m 555.988,2469.36 c 11.485,0 11.504,-17.84 0,-17.84 -11.484,0 -11.504,17.84 0,17.84"
         style="fill:#bebfbd;fill-opacity:1;fill-rule:nonzero;stroke:none"
         id="path216" />
      <path
         d="m 98.957,4009.89 c 11.484,0 11.504,-17.85 0,-17.85 -11.4843,0 -11.5039,17.85 0,17.85"
         style="fill:#bebfbd;fill-opacity:1;fill-rule:nonzero;stroke:none"
         id="path218" />
      <path
         d="m 909.145,1276.06 c 8.125,0 8.136,-12.63 0,-12.63 -8.125,0 -8.141,12.63 0,12.63"
         style="fill:#bebfbd;fill-opacity:1;fill-rule:nonzero;stroke:none"
         id="path220" />
      <path
         d="m 2240.92,466.781 c 8.13,0 8.15,-12.633 0,-12.633 -8.12,0 -8.13,12.633 0,12.633"
         style="fill:#bebfbd;fill-opacity:1;fill-rule:nonzero;stroke:none"
         id="path222" />
      <path
         d="m 3178.58,3355.26 c 8.13,0 8.14,-12.63 0,-12.63 -8.12,0 -8.13,12.63 0,12.63"
         style="fill:#bebfbd;fill-opacity:1;fill-rule:nonzero;stroke:none"
         id="path224" />
      <path
         d="m 2038.06,3741.88 c 8.13,0 8.14,-12.63 0,-12.63 -8.12,0 -8.14,12.63 0,12.63"
         style="fill:#bebfbd;fill-opacity:1;fill-rule:nonzero;stroke:none"
         id="path226" />
      <path
         d="m 1659.39,1500.4 c 22.02,0 22.05,-34.23 0,-34.23 -22.02,0 -22.06,34.23 0,34.23"
         style="fill:#bebfbd;fill-opacity:1;fill-rule:nonzero;stroke:none"
         id="path228" />
      <path
         d="m 3912.94,2793.06 c 22.02,0 22.06,-34.22 0,-34.22 -22.02,0 -22.06,34.22 0,34.22"
         style="fill:#bebfbd;fill-opacity:1;fill-rule:nonzero;stroke:none"
         id="path230" />
      <path
         d="m 411.75,1293.17 c 22.023,0 22.055,-34.23 0,-34.23 -22.02,0 -22.059,34.23 0,34.23"
         style="fill:#bebfbd;fill-opacity:1;fill-rule:nonzero;stroke:none"
         id="path232" />
      <path
         d="m 1848.99,1951.6 30.79,-5.69 6.88,-32.46 6.88,32.46 30.79,5.71 -30.66,7.49 -7.01,30.65 -7.01,-30.65 -30.66,-7.51"
         style="fill:#bebfbd;fill-opacity:1;fill-rule:nonzero;stroke:none"
         id="path234" />
      <path
         d="m 2503.01,398.93 30.8,-5.692 6.88,-32.449 6.88,32.449 30.79,5.711 -30.66,7.492 -7.01,30.661 -7.01,-30.661 -30.67,-7.511"
         style="fill:#bebfbd;fill-opacity:1;fill-rule:nonzero;stroke:none"
         id="path236" />
      <path
         d="m 2639.4,798.789 c 11.49,0 11.51,-17.848 0,-17.848 -11.48,0 -11.5,17.848 0,17.848"
         style="fill:#bebfbd;fill-opacity:1;fill-rule:nonzero;stroke:none"
         id="path238" />
      <path
         d="m 2987.23,1036.16 c 11.49,0 11.51,-17.85 0,-17.85 -11.48,0 -11.5,17.85 0,17.85"
         style="fill:#bebfbd;fill-opacity:1;fill-rule:nonzero;stroke:none"
         id="path240" />
      <path
         d="m 1886.66,626.289 30.79,-5.699 6.88,-32.449 6.88,32.449 30.78,5.719 -30.65,7.492 -7.01,30.648 -7.02,-30.648 -30.65,-7.512"
         style="fill:#bebfbd;fill-opacity:1;fill-rule:nonzero;stroke:none"
         id="path242" />
      <path
         d="m 3154.05,3500.75 c 11.48,0 11.5,-17.85 0,-17.85 -11.48,0 -11.5,17.85 0,17.85"
         style="fill:#bebfbd;fill-opacity:1;fill-rule:nonzero;stroke:none"
         id="path244" />
      <path
         d="m 3368.75,1008.02 c 8.12,0 8.13,-12.629 0,-12.629 -8.13,0 -8.15,12.629 0,12.629"
         style="fill:#bebfbd;fill-opacity:1;fill-rule:nonzero;stroke:none"
         id="path246" />
      <path
         d="m 682.219,2081.41 30.785,-5.69 6.887,-32.46 6.879,32.46 30.785,5.7 -30.653,7.5 -7.011,30.66 -7.012,-30.66 -30.66,-7.51"
         style="fill:#bebfbd;fill-opacity:1;fill-rule:nonzero;stroke:none"
         id="path248" />
      <path
         d="m 326.277,1590.3 c 11.489,0 11.504,-17.84 0,-17.84 -11.48,0 -11.5,17.84 0,17.84"
         style="fill:#bebfbd;fill-opacity:1;fill-rule:nonzero;stroke:none"
         id="path250" />
      <path
         d="m 1557.49,2247.61 c 11.48,0 11.5,-17.85 0,-17.85 -11.49,0 -11.51,17.85 0,17.85"
         style="fill:#bebfbd;fill-opacity:1;fill-rule:nonzero;stroke:none"
         id="path252" />
      <path
         d="m 511.637,3149.26 c 8.125,0 8.14,-12.64 0,-12.64 -8.125,0 -8.141,12.64 0,12.64"
         style="fill:#bebfbd;fill-opacity:1;fill-rule:nonzero;stroke:none"
         id="path254" />
      <path
         d="m 430.781,3207.31 c 22.024,0 22.059,-34.22 0,-34.22 -22.019,0 -22.058,34.22 0,34.22"
         style="fill:#bebfbd;fill-opacity:1;fill-rule:nonzero;stroke:none"
         id="path256" />
      <path
         d="m 3929.47,3962.7 c 22.02,0 22.06,-34.23 0,-34.23 -22.02,0 -22.06,34.23 0,34.23"
         style="fill:#bebfbd;fill-opacity:1;fill-rule:nonzero;stroke:none"
         id="path258" />
      <path
         d="m 2990.82,592.82 c 86.62,-157.789 284.75,-215.48 442.54,-128.859 157.79,86.617 215.48,284.758 128.85,442.539 -86.62,157.79 -284.75,215.48 -442.54,128.86 C 2961.88,948.738 2904.2,750.602 2990.82,592.82"
         style="fill:#33535f;fill-opacity:1;fill-rule:nonzero;stroke:none"
         id="path260" />
      <path
         d="m 2973.24,630.129 c 14.7,15.34 44.98,43.691 96.27,71.383 62.13,33.578 234.77,78.707 312.52,126.187 109.37,66.711 118.58,129.801 115.37,161.75 -31.22,28.701 -67.32,50.661 -106.18,65.251 -5.46,-33.52 -27.76,-138.442 -211.71,-220.501 -94.94,-42.269 -190.37,-26.82 -222.75,-21.609 -11.84,-59.738 -7.04,-123 16.48,-182.461"
         style="fill:#273e47;fill-opacity:1;fill-rule:nonzero;stroke:none"
         id="path262" />
      <path
         d="m 3120.13,463.648 c 94.29,-51.449 212.04,-55.238 313.21,0.293 35.49,19.489 65.89,44.571 90.73,73.598 -13.26,6.32 -40.09,15.242 -60.16,18.41 -89.02,14.231 -181.82,-35.32 -215.36,-57.859 -53.66,-36.121 -102.29,-37.231 -128.42,-34.442"
         style="fill:#273e47;fill-opacity:1;fill-rule:nonzero;stroke:none"
         id="path264" />
      <path
         d="m 2996.48,582.93 c 1.49,-2.578 3.05,-5.059 4.64,-7.578 1.39,-2.313 2.89,-4.543 4.39,-6.793 3.38,-5.071 6.84,-10.039 10.47,-14.84 3.26,-4.34 6.61,-8.629 10.06,-12.739 1.26,-1.57 2.6,-3.031 3.92,-4.582 1.47,-1.707 2.95,-3.429 4.45,-5.07 1.53,-1.699 3.06,-3.387 4.61,-5 1.8,-1.949 3.68,-3.918 5.59,-5.797 1.84,-1.922 3.75,-3.801 5.67,-5.609 1.68,-1.613 3.34,-3.172 4.99,-4.731 3.69,-3.429 7.42,-6.722 11.26,-9.941 l 0.08,-0.031 c 20.69,-4.559 47.59,0.34 85.98,19.152 57.1,27.891 116.25,88.738 226.99,138.879 104.57,47.41 195.77,33.238 217.29,31.66 l 0.05,0.031 c 12.01,64.297 4.82,132.508 -24.17,195.618 -20.82,-0.899 -86.88,-15.778 -219.69,-144.789 -50.49,-49.04 -95.64,-84.418 -135.5,-109.641 -116.53,-73.559 -188.38,-60.301 -218.97,-47.91 l -0.05,-0.028 -2.06,-0.261"
         style="fill:#273e47;fill-opacity:1;fill-rule:nonzero;stroke:none"
         id="path266" />
      <path
         d="m 3291.97,938.059 c 6.96,-12.688 27.58,-14.758 46.03,-4.618 18.45,10.118 27.77,28.618 20.81,41.297 -6.98,12.703 -27.58,14.774 -46.03,4.633 -18.46,-10.121 -27.77,-28.621 -20.81,-41.312"
         style="fill:#17282f;fill-opacity:1;fill-rule:nonzero;stroke:none"
         id="path268" />
      <path
         d="m 3385.94,923.328 c 3.93,-7.148 16.09,-8.019 27.16,-1.949 11.07,6.09 16.87,16.812 12.94,23.961 -3.92,7.16 -16.08,8.031 -27.16,1.941 -11.07,-6.07 -16.86,-16.793 -12.94,-23.953"
         style="fill:#17282f;fill-opacity:1;fill-rule:nonzero;stroke:none"
         id="path270" />
      <path
         d="m 3170.55,501.781 c 5.95,-10.84 23.87,-12.453 40.01,-3.582 16.16,8.86 24.42,24.84 18.47,35.672 -5.96,10.848 -23.87,12.457 -40.02,3.59 -16.14,-8.871 -24.41,-24.84 -18.46,-35.68"
         style="fill:#17282f;fill-opacity:1;fill-rule:nonzero;stroke:none"
         id="path272" />
      <path
         d="m 3231.34,496.012 c 3.16,-5.774 11.9,-7.063 19.52,-2.883 7.6,4.18 11.21,12.25 8.04,18.012 -3.16,5.769 -11.9,7.058 -19.51,2.879 -7.62,-4.18 -11.22,-12.239 -8.05,-18.008"
         style="fill:#17282f;fill-opacity:1;fill-rule:nonzero;stroke:none"
         id="path274" />
      <path
         d="m 3238.25,526.98 c 1.9,-3.46 7.36,-4.109 12.22,-1.441 4.84,2.652 7.22,7.609 5.32,11.07 -1.9,3.469 -7.37,4.11 -12.21,1.45 -4.84,-2.649 -7.23,-7.61 -5.33,-11.079"
         style="fill:#17282f;fill-opacity:1;fill-rule:nonzero;stroke:none"
         id="path276" />
      <path
         d="m 3440.74,546.281 c 5.31,-9.691 20.1,-11.793 33.02,-4.703 12.92,7.094 19.08,20.692 13.76,30.383 -5.33,9.687 -20.11,11.797 -33.02,4.707 -12.92,-7.098 -19.08,-20.707 -13.76,-30.387"
         style="fill:#17282f;fill-opacity:1;fill-rule:nonzero;stroke:none"
         id="path278" />
      <path
         d="m 3428.83,589.75 c 3.04,-5.531 10.55,-7.25 16.78,-3.832 6.23,3.41 8.81,10.684 5.77,16.223 -3.03,5.531 -10.55,7.238 -16.77,3.82 -6.23,-3.41 -8.82,-10.672 -5.78,-16.211"
         style="fill:#17282f;fill-opacity:1;fill-rule:nonzero;stroke:none"
         id="path280" />
      <path
         d="m 3015.98,553.719 c 87.43,17.609 188.63,44.449 294.98,79.383 109.38,35.859 209.25,75.429 291.48,114.039 146.04,68.578 236.11,134.281 223.93,171.379 -11.9,36.511 -121.76,37.558 -276.02,7.851 4.14,-6.461 8.1,-13.07 11.84,-19.891 1.41,-2.558 2.77,-5.14 4.13,-7.73 82.11,10.512 136.51,5.719 143.91,-16.871 7.52,-22.93 -34.79,-59.809 -109.26,-100.758 -72.88,-40.082 -176.59,-84.082 -294.25,-122.691 -117.89,-38.68 -227.68,-64.692 -310.24,-75.5 -83.92,-11.102 -139.71,-6.469 -147.22,16.449 -7.35,22.492 33.46,58.492 105.4,98.582 -1.81,10.93 -3.01,22 -3.6,33.008 -145.22,-68.391 -236.63,-136.367 -224.52,-173.36 12.34,-37.668 127.17,-36.609 289.44,-3.89"
         style="fill:#17282f;fill-opacity:1;fill-rule:nonzero;stroke:none"
         id="path282" />
      <path
         d="m 3034.35,531.422 c 88.35,18.586 186.37,44.68 288.3,77.578 l 0.08,-0.02 c 101.4,32.68 195.62,68.61 277.77,104.911 202.8,89.609 332.34,181.718 315.4,234.32 -16.8,52.069 -172.74,51.488 -386.39,7.019 3.15,-3.921 6.23,-7.96 9.22,-12.062 179.41,34.402 308.01,32.57 322.53,-12.566 14.68,-45.563 -90.75,-123.442 -259.43,-201.184 -81.66,-37.566 -178.02,-75.137 -282.86,-108.969 -105.39,-34.019 -206.21,-59.969 -294.76,-77.211 -181.51,-35.199 -311.91,-33.5 -326.52,11.922 -14.45,44.91 88.04,121.36 252.88,198.059 0.07,5.101 0.22,10.179 0.54,15.281 -198.58,-88.551 -324.81,-179.039 -308.08,-231.02 16.95,-52.46 175.22,-51.531 391.32,-6.058"
         style="fill:#273e47;fill-opacity:1;fill-rule:nonzero;stroke:none"
         id="path284" />
      <path
         d="m 2040.08,2385.53 c -43.48,-96.92 -157.29,-140.25 -254.21,-96.78 -96.92,43.47 -140.25,157.29 -96.77,254.21 43.47,96.92 157.28,140.25 254.2,96.77 96.92,-43.47 140.25,-157.28 96.78,-254.2"
         style="fill:#e7e8e5;fill-opacity:1;fill-rule:nonzero;stroke:none"
         id="path286" />
      <path
         d="m 2048.65,2408.31 c -9.38,8.32 -28.53,23.57 -60.02,37.43 -38.13,16.8 -141.83,35.17 -189.81,59.4 -67.49,34.06 -75.9,70.74 -75.53,89.68 17,18.37 37.2,32.99 59.37,43.42 4.79,-19.46 22.88,-80.12 134.98,-119.67 57.85,-20.36 113.25,-6.76 132.05,-2.15 9.8,-34.58 9.97,-72.02 -1.04,-108.11"
         style="fill:#d4d6d3;fill-opacity:1;fill-rule:nonzero;stroke:none"
         id="path288" />
      <path
         d="m 1970.13,2303.42 c -53.02,-34.74 -122.1,-42.55 -184.24,-14.68 -21.8,9.78 -40.87,23.09 -56.86,38.99 7.5,4.34 22.85,10.87 34.51,13.69 51.69,12.59 108.63,-12.16 129.43,-23.83 33.27,-18.71 61.93,-17.05 77.16,-14.17"
         style="fill:#d4d6d3;fill-opacity:1;fill-rule:nonzero;stroke:none"
         id="path290" />
      <path
         d="m 2037.21,2379.45 c -0.75,-1.6 -1.55,-3.12 -2.36,-4.69 -0.71,-1.42 -1.49,-2.81 -2.27,-4.2 -1.74,-3.14 -3.54,-6.23 -5.45,-9.22 -1.71,-2.71 -3.48,-5.39 -5.32,-7.97 -0.67,-0.98 -1.38,-1.91 -2.08,-2.88 -0.79,-1.08 -1.57,-2.16 -2.38,-3.2 -0.82,-1.07 -1.64,-2.14 -2.47,-3.16 -0.97,-1.23 -1.98,-2.47 -3.01,-3.67 -1,-1.22 -2.03,-2.42 -3.08,-3.58 -0.91,-1.02 -1.81,-2.01 -2.71,-3.01 -2.01,-2.2 -4.05,-4.3 -6.15,-6.38 l -0.05,-0.02 c -11.95,-3.66 -28,-2.06 -51.47,7.19 -34.92,13.69 -72.6,46.69 -140.11,70.92 -63.76,22.93 -116.74,10.28 -129.32,8.33 l -0.03,0.01 c -10.12,37.25 -9.11,77.72 4.94,116.22 12.29,0.45 51.86,-5.17 136.09,-74.76 32.03,-26.45 60.26,-45.12 84.9,-58.06 72.04,-37.75 113.67,-26.55 131.08,-17.81 l 0.03,-0.01 1.22,-0.05"
         style="fill:#d4d6d3;fill-opacity:1;fill-rule:nonzero;stroke:none"
         id="path292" />
      <path
         d="m 1854.42,2307.06 c 3.41,7.83 15.41,10.15 26.8,5.18 11.39,-4.96 17.85,-15.33 14.44,-23.17 -3.41,-7.82 -15.41,-10.15 -26.8,-5.18 -11.39,4.97 -17.86,15.34 -14.44,23.17"
         style="fill:#bebfbd;fill-opacity:1;fill-rule:nonzero;stroke:none"
         id="path294" />
      <path
         d="m 1908.85,2320.75 c 1.93,4.41 9.03,5.57 15.86,2.59 6.83,-2.98 10.81,-8.97 8.89,-13.38 -1.92,-4.42 -9.02,-5.58 -15.86,-2.6 -6.83,2.98 -10.81,8.98 -8.89,13.39"
         style="fill:#bebfbd;fill-opacity:1;fill-rule:nonzero;stroke:none"
         id="path296" />
      <path
         d="m 1759.69,2556.96 c 2.91,6.69 13.36,8.58 23.32,4.24 9.97,-4.34 15.68,-13.29 12.76,-19.98 -2.91,-6.69 -13.36,-8.59 -23.32,-4.25 -9.97,4.35 -15.68,13.29 -12.76,19.99"
         style="fill:#bebfbd;fill-opacity:1;fill-rule:nonzero;stroke:none"
         id="path298" />
      <path
         d="m 1795.1,2563.6 c 1.55,3.56 6.62,4.78 11.32,2.74 4.7,-2.06 7.24,-6.6 5.7,-10.16 -1.56,-3.56 -6.62,-4.78 -11.32,-2.73 -4.7,2.05 -7.25,6.59 -5.7,10.15"
         style="fill:#bebfbd;fill-opacity:1;fill-rule:nonzero;stroke:none"
         id="path300" />
      <path
         d="m 1800.82,2545.76 c 0.93,2.14 4.11,2.82 7.1,1.51 2.99,-1.3 4.66,-4.09 3.73,-6.22 -0.93,-2.14 -4.11,-2.81 -7.1,-1.51 -2.99,1.3 -4.66,4.09 -3.73,6.22"
         style="fill:#bebfbd;fill-opacity:1;fill-rule:nonzero;stroke:none"
         id="path302" />
      <path
         d="m 1920.86,2545.28 c 2.6,5.97 11.18,8 19.15,4.53 7.98,-3.48 12.32,-11.15 9.71,-17.12 -2.6,-5.98 -11.18,-8.01 -19.15,-4.53 -7.97,3.47 -12.32,11.13 -9.71,17.12"
         style="fill:#bebfbd;fill-opacity:1;fill-rule:nonzero;stroke:none"
         id="path304" />
      <path
         d="m 1916.19,2519.09 c 1.49,3.41 5.81,4.82 9.66,3.15 3.84,-1.68 5.75,-5.81 4.26,-9.22 -1.49,-3.42 -5.82,-4.83 -9.66,-3.15 -3.84,1.68 -5.75,5.8 -4.26,9.22"
         style="fill:#bebfbd;fill-opacity:1;fill-rule:nonzero;stroke:none"
         id="path306" />
      <path
         d="m 690.016,3722.6 c -43.469,-96.92 -157.286,-140.25 -254.203,-96.78 -96.926,43.48 -140.25,157.29 -96.778,254.21 43.473,96.92 157.285,140.25 254.203,96.77 96.918,-43.47 140.25,-157.28 96.778,-254.2"
         style="fill:#fabb1e;fill-opacity:1;fill-rule:nonzero;stroke:none"
         id="path308" />
      <path
         d="m 600.996,3638.73 c -15.508,0 -35.766,3.38 -58.094,15.93 -16.761,9.41 -56.996,27.31 -99.047,27.31 -10.121,0 -20.351,-1.04 -30.382,-3.48 -11.653,-2.82 -27.004,-9.34 -34.504,-13.68 3.105,-3.09 6.328,-6.08 9.668,-8.97 -42.442,36.69 -66.5,90.2 -66.492,145.6 0,26.3 5.429,53.03 16.89,78.59 8.774,19.56 20.41,36.93 34.195,51.85 -0.375,-18.95 8.043,-55.61 75.528,-89.66 47.98,-24.24 151.68,-42.61 189.812,-59.42 31.469,-13.84 50.621,-29.07 60.004,-37.4 -2.34,-7.68 -5.187,-15.29 -8.558,-22.8 -1.051,-2.34 -2.145,-4.65 -3.274,-6.94 0.137,0.29 0.274,0.57 0.406,0.86 l -1.218,0.05 -0.035,0.02 c -8.059,-4.05 -21.309,-8.63 -40.372,-8.63 -22.105,0 -52.019,6.16 -90.699,26.43 -24.64,12.94 -52.875,31.61 -84.906,58.07 -81.508,67.34 -121.184,74.78 -134.809,74.78 -0.453,0 -0.882,-0.01 -1.281,-0.03 -14.055,-38.5 -15.055,-78.96 -4.937,-116.21 l 0.027,-0.02 c 6.805,1.06 25.398,5.24 51.129,5.24 21.871,0 48.894,-3.02 78.187,-13.56 67.516,-24.24 105.192,-57.23 140.114,-70.93 15.859,-6.25 28.332,-9.01 38.441,-9.01 4.848,0 9.156,0.64 13.031,1.82 l 0.008,0.01 c -9.156,-9.06 -19.148,-17.1 -29.781,-24.07 -5.008,-0.94 -11.461,-1.75 -19.051,-1.75 m -33.851,23.34 c -3.922,0 -7.145,-1.49 -8.348,-4.25 -1.926,-4.41 2.051,-10.41 8.887,-13.38 2.558,-1.12 5.156,-1.65 7.507,-1.65 3.918,0 7.145,1.48 8.344,4.24 1.926,4.41 -2.055,10.41 -8.883,13.39 -2.562,1.12 -5.16,1.65 -7.507,1.65 m -178.407,-6.32 c -0.008,0 -0.015,0.01 -0.023,0.02 0.008,-0.01 0.015,-0.02 0.023,-0.02 m 296.215,56.4 c 0.149,0.29 0.297,0.58 0.445,0.87 -0.148,-0.3 -0.293,-0.58 -0.445,-0.87 m 20.512,112.52 c -1.207,9.76 -3.164,19.4 -5.832,28.82 -11.246,-2.75 -35.594,-8.73 -65.723,-8.73 -16.476,0 -34.683,1.79 -53.426,6.87 0.45,3.03 -1.418,6.25 -4.699,7.68 -1.097,0.48 -2.238,0.71 -3.336,0.71 -2.75,0 -5.258,-1.42 -6.32,-3.86 0,0 0,0 -0.004,-0.01 -110.805,39.56 -128.75,99.79 -133.531,119.15 -20.184,-9.48 -38.739,-22.46 -54.735,-38.58 36.172,36.5 85.672,56.98 136.778,56.98 26.308,0 53.043,-5.43 78.601,-16.9 63.711,-28.57 104.266,-87.54 112.227,-152.13 m -123.395,63.9 c -5.117,0 -9.531,-2.23 -11.273,-6.22 -2.606,-5.98 1.738,-13.65 9.715,-17.12 2.64,-1.16 5.343,-1.7 7.879,-1.7 5.117,0 9.531,2.23 11.273,6.23 2.609,5.98 -1.742,13.64 -9.715,17.12 -2.64,1.15 -5.347,1.69 -7.879,1.69"
         style="fill:#f4ac12;fill-opacity:1;fill-rule:nonzero;stroke:none"
         id="path310" />
      <path
         d="m 698.59,3745.38 c -0.004,0.01 -0.012,0.01 -0.016,0.02 5.625,18.43 8.332,37.22 8.332,55.79 0.004,7.88 -0.484,15.72 -1.441,23.48 3.23,-26.06 1.137,-53.03 -6.875,-79.29"
         style="fill:#d7d8d6;fill-opacity:1;fill-rule:nonzero;stroke:none"
         id="path312" />
      <path
         d="m 373.23,3931.88 c 0,0.01 0,0.01 0,0.01 1.516,1.64 3.063,3.25 4.629,4.83 -1.566,-1.58 -3.113,-3.19 -4.629,-4.84"
         style="fill:#e0e1de;fill-opacity:1;fill-rule:nonzero;stroke:none"
         id="path314" />
      <path
         d="m 698.574,3745.4 c -9.383,8.33 -28.535,23.56 -60.004,37.4 -38.132,16.81 -141.832,35.18 -189.812,59.42 -67.485,34.05 -75.903,70.71 -75.528,89.66 1.516,1.65 3.063,3.26 4.629,4.84 15.996,16.12 34.551,29.1 54.735,38.58 4.781,-19.36 22.726,-79.59 133.531,-119.15 -1.484,-3.41 0.422,-7.54 4.262,-9.21 1.097,-0.48 2.234,-0.71 3.336,-0.71 2.746,0 5.261,1.42 6.324,3.86 0.219,0.5 0.363,1.02 0.437,1.54 18.743,-5.08 36.95,-6.87 53.426,-6.87 30.129,0 54.477,5.98 65.723,8.73 2.668,-9.42 4.625,-19.06 5.832,-28.82 0.957,-7.76 1.445,-15.6 1.441,-23.48 0,-18.57 -2.707,-37.36 -8.332,-55.79 m -276.285,155.21 c -5.894,0 -10.805,-2.32 -12.664,-6.58 -2.914,-6.69 2.801,-15.64 12.766,-19.99 3.617,-1.57 7.297,-2.33 10.66,-2.33 5.89,0 10.804,2.32 12.664,6.58 2.914,6.69 -2.797,15.64 -12.766,19.98 -3.617,1.58 -7.297,2.34 -10.66,2.34 m 32.512,-15.6 c -1.856,0 -3.43,-0.77 -4.035,-2.17 -0.934,-2.14 0.734,-4.92 3.722,-6.23 1.035,-0.45 2.086,-0.66 3.067,-0.66 1.851,0 3.422,0.77 4.035,2.17 0.933,2.14 -0.738,4.92 -3.727,6.23 -1.031,0.45 -2.086,0.66 -3.062,0.66 m -3.059,19.39 c -3.031,0 -5.656,-1.34 -6.699,-3.73 -1.555,-3.56 0.992,-8.1 5.691,-10.15 1.543,-0.67 3.129,-0.99 4.614,-0.99 3.035,0 5.664,1.33 6.707,3.72 1.55,3.56 -1.004,8.11 -5.7,10.16 -1.542,0.67 -3.125,0.99 -4.613,0.99"
         style="fill:#d79b14;fill-opacity:1;fill-rule:nonzero;stroke:none"
         id="path316" />
      <path
         d="m 514.43,3608.93 c -26.313,-0.01 -53.043,5.42 -78.606,16.89 -17.515,7.85 -33.273,18 -47.086,29.93 13.817,-11.93 29.571,-22.07 47.075,-29.93 25.562,-11.46 52.292,-16.89 78.601,-16.89 37.645,0 74.414,11.11 105.633,31.55 0.008,0 0.016,0 0.023,0 -31.207,-20.44 -67.992,-31.55 -105.64,-31.55 m -125.715,46.84 c -0.027,0.02 -0.055,0.05 -0.078,0.07 0.023,-0.02 0.051,-0.05 0.078,-0.07"
         style="fill:#d7d8d6;fill-opacity:1;fill-rule:nonzero;stroke:none"
         id="path318" />
      <path
         d="m 514.414,3608.93 c -26.309,0 -53.039,5.43 -78.601,16.89 -17.504,7.86 -33.258,18 -47.075,29.93 -0.008,0 -0.015,0.01 -0.023,0.02 -0.027,0.02 -0.055,0.05 -0.078,0.07 -3.34,2.89 -6.563,5.88 -9.668,8.97 7.5,4.34 22.851,10.86 34.504,13.68 10.031,2.44 20.261,3.48 30.382,3.48 42.051,0 82.286,-17.9 99.047,-27.31 22.328,-12.55 42.586,-15.93 58.094,-15.93 7.59,0 14.043,0.81 19.051,1.75 -31.219,-20.44 -67.988,-31.55 -105.633,-31.55 m 4.758,43 c -6.859,0 -12.617,-2.76 -14.813,-7.8 -3.414,-7.83 3.051,-18.2 14.438,-23.17 4.058,-1.76 8.191,-2.61 11.988,-2.61 6.86,0 12.617,2.76 14.813,7.8 3.414,7.83 -3.051,18.2 -14.438,23.17 -4.058,1.76 -8.191,2.61 -11.988,2.61"
         style="fill:#d79b14;fill-opacity:1;fill-rule:nonzero;stroke:none"
         id="path320" />
      <path
         d="m 649.828,3664.55 c 13.805,13.65 25.727,29.6 35.125,47.6 -0.055,-0.1 -0.109,-0.21 -0.168,-0.32 -0.711,-1.41 -1.488,-2.8 -2.258,-4.2 -1.754,-3.14 -3.55,-6.22 -5.461,-9.22 -1.707,-2.71 -3.476,-5.39 -5.312,-7.97 -0.668,-0.98 -1.387,-1.91 -2.082,-2.88 -0.793,-1.08 -1.578,-2.16 -2.387,-3.2 -0.82,-1.07 -1.633,-2.13 -2.472,-3.16 -0.969,-1.23 -1.977,-2.47 -3.008,-3.67 -0.996,-1.22 -2.028,-2.42 -3.071,-3.57 -0.918,-1.03 -1.82,-2.02 -2.714,-3.01 -2.008,-2.2 -4.051,-4.31 -6.149,-6.39 l -0.043,-0.01 m 35.57,48.47 c 0.454,0.87 0.903,1.76 1.344,2.64 -0.437,-0.89 -0.887,-1.77 -1.344,-2.64"
         style="fill:#d7d8d6;fill-opacity:1;fill-rule:nonzero;stroke:none"
         id="path322" />
      <path
         d="m 636.789,3662.72 c -10.109,0 -22.582,2.76 -38.441,9.01 -34.922,13.7 -72.598,46.69 -140.114,70.93 -29.293,10.54 -56.316,13.56 -78.187,13.56 -25.731,0 -44.324,-4.18 -51.129,-5.24 l -0.027,0.02 c -10.118,37.25 -9.118,77.71 4.937,116.21 0.399,0.02 0.828,0.03 1.281,0.03 13.625,0 53.301,-7.44 134.809,-74.78 32.031,-26.46 60.266,-45.13 84.906,-58.07 38.68,-20.27 68.594,-26.43 90.699,-26.43 19.063,0 32.313,4.58 40.372,8.63 l 0.035,-0.02 1.218,-0.05 c -0.132,-0.29 -0.269,-0.57 -0.406,-0.86 -0.441,-0.88 -0.89,-1.77 -1.344,-2.64 -0.148,-0.29 -0.296,-0.58 -0.445,-0.87 -9.398,-18 -21.32,-33.95 -35.125,-47.6 l -0.008,-0.01 c -3.875,-1.18 -8.183,-1.82 -13.031,-1.82"
         style="fill:#d79b14;fill-opacity:1;fill-rule:nonzero;stroke:none"
         id="path324" />
      <path
         d="m 530.785,3618.35 c -3.797,0 -7.93,0.85 -11.988,2.61 -11.387,4.97 -17.852,15.34 -14.438,23.17 2.196,5.04 7.954,7.8 14.813,7.8 3.797,0 7.93,-0.85 11.988,-2.61 11.387,-4.97 17.852,-15.34 14.438,-23.17 -2.196,-5.04 -7.953,-7.8 -14.813,-7.8"
         style="fill:#bd8a17;fill-opacity:1;fill-rule:nonzero;stroke:none"
         id="path326" />
      <path
         d="m 575.191,3642.79 c -2.351,0 -4.949,0.53 -7.507,1.65 -6.836,2.97 -10.813,8.97 -8.887,13.38 1.203,2.76 4.426,4.25 8.348,4.25 2.347,0 4.945,-0.53 7.507,-1.65 6.828,-2.98 10.809,-8.98 8.883,-13.39 -1.199,-2.76 -4.426,-4.24 -8.344,-4.24"
         style="fill:#d79b14;fill-opacity:1;fill-rule:nonzero;stroke:none"
         id="path328" />
      <path
         d="m 433.051,3871.71 c -3.363,0 -7.043,0.76 -10.66,2.33 -9.965,4.35 -15.68,13.3 -12.766,19.99 1.859,4.26 6.77,6.58 12.664,6.58 3.363,0 7.043,-0.76 10.66,-2.34 9.969,-4.34 15.68,-13.29 12.766,-19.98 -1.86,-4.26 -6.774,-6.58 -12.664,-6.58"
         style="fill:#bd8a17;fill-opacity:1;fill-rule:nonzero;stroke:none"
         id="path330" />
      <path
         d="m 455.348,3889.53 c -1.485,0 -3.071,0.32 -4.614,0.99 -4.699,2.05 -7.246,6.59 -5.691,10.15 1.043,2.39 3.668,3.73 6.699,3.73 1.488,0 3.071,-0.32 4.613,-0.99 4.696,-2.05 7.25,-6.6 5.7,-10.16 -1.043,-2.39 -3.672,-3.72 -6.707,-3.72"
         style="fill:#bd8a17;fill-opacity:1;fill-rule:nonzero;stroke:none"
         id="path332" />
      <path
         d="m 457.555,3875.95 c -0.981,0 -2.032,0.21 -3.067,0.66 -2.988,1.31 -4.656,4.09 -3.722,6.23 0.605,1.4 2.179,2.17 4.035,2.17 0.976,0 2.031,-0.21 3.062,-0.66 2.989,-1.31 4.66,-4.09 3.727,-6.23 -0.613,-1.4 -2.184,-2.17 -4.035,-2.17"
         style="fill:#bd8a17;fill-opacity:1;fill-rule:nonzero;stroke:none"
         id="path334" />
      <path
         d="m 588.391,3863.53 c -2.536,0 -5.239,0.54 -7.879,1.7 -7.977,3.47 -12.321,11.14 -9.715,17.12 1.742,3.99 6.156,6.22 11.273,6.22 2.532,0 5.239,-0.54 7.879,-1.69 7.973,-3.48 12.324,-11.14 9.715,-17.12 -1.742,-4 -6.156,-6.23 -11.273,-6.23"
         style="fill:#d79b14;fill-opacity:1;fill-rule:nonzero;stroke:none"
         id="path336" />
      <path
         d="m 580.484,3851.63 c -4.277,1.16 -8.582,2.49 -12.906,4.01 -0.484,0.17 -0.969,0.34 -1.453,0.51 0.004,0.01 0.004,0.01 0.004,0.01 1.062,2.44 3.57,3.86 6.32,3.86 1.098,0 2.239,-0.23 3.336,-0.71 3.281,-1.43 5.149,-4.65 4.699,-7.68"
         style="fill:#d79b14;fill-opacity:1;fill-rule:nonzero;stroke:none"
         id="path338" />
      <path
         d="m 573.723,3846.23 c -1.102,0 -2.239,0.23 -3.336,0.71 -3.84,1.67 -5.746,5.8 -4.262,9.21 0.484,-0.17 0.969,-0.34 1.453,-0.51 4.324,-1.52 8.629,-2.85 12.906,-4.01 -0.074,-0.52 -0.218,-1.04 -0.437,-1.54 -1.063,-2.44 -3.578,-3.86 -6.324,-3.86"
         style="fill:#bd8a17;fill-opacity:1;fill-rule:nonzero;stroke:none"
         id="path340" />
      <path
         d="m 1903.47,3429.23 c -7.15,8.43 -418.54,199.3 -791.08,-85.03 -342.531,-261.43 -461.456,-752.71 -415.972,-764.47 55.676,-14.38 208.293,220.08 501.212,348.88 103.87,45.67 269.24,0.03 269.24,0.03 l 436.6,500.59"
         style="fill:#fabb1e;fill-opacity:1;fill-rule:nonzero;stroke:none"
         id="path342" />
      <path
         d="m 1347.96,2947.74 c -10.23,0.67 -20.75,1.08 -31.39,1.13 0,0.01 0.01,0.03 0.01,0.03 10.64,-0.06 21.16,-0.48 31.38,-1.16 m 418.59,529.16 c -36.67,8.65 -79.4,16.14 -126.48,20.01 47.09,-3.86 89.82,-11.35 126.5,-20 -0.01,0 -0.01,-0.01 -0.02,-0.01"
         style="fill:#e0e1de;fill-opacity:1;fill-rule:nonzero;stroke:none"
         id="path344" />
      <path
         d="m 1855.88,3450.31 c -22.84,8.4 -53.14,18.05 -89.33,26.59 0.01,0 0.01,0.01 0.02,0.01 36.19,-8.53 66.5,-18.18 89.33,-26.58 l -0.02,-0.02"
         style="fill:#d7d8d6;fill-opacity:1;fill-rule:nonzero;stroke:none"
         id="path346" />
      <path
         d="m 1414.85,2939.74 c -19.1,3.26 -42.15,6.39 -66.89,8 -10.22,0.68 -20.74,1.1 -31.38,1.16 64.56,135.21 185.18,387.44 263.47,550.76 20.67,-0.19 40.71,-1.16 60.02,-2.75 47.08,-3.87 89.81,-11.36 126.48,-20.01 36.19,-8.54 66.49,-18.19 89.33,-26.59 -193.66,-162.69 -338.79,-350.35 -441.03,-510.57"
         style="fill:#f4ac12;fill-opacity:1;fill-rule:nonzero;stroke:none"
         id="path348" />
      <path
         d="m 2581.17,2629.92 c 7.15,-8.44 128.14,-445.51 -213.3,-766.52 -313.94,-295.15 -818.05,-332.11 -822.21,-285.33 -5.09,57.28 251.18,169.5 426.16,437.41 62.05,94.99 44.08,265.59 44.08,265.59 l 565.27,348.85"
         style="fill:#fabb1e;fill-opacity:1;fill-rule:nonzero;stroke:none"
         id="path350" />
      <path
         d="m 2605.15,2496.22 -0.03,0.02 c -2.46,31.46 -6.36,58.55 -10.32,79.96 l 0.02,0.01 c 3.96,-21.41 7.87,-48.51 10.33,-79.99"
         style="fill:#e0e1de;fill-opacity:1;fill-rule:nonzero;stroke:none"
         id="path352" />
      <path
         d="m 2597.4,2297.09 c 11.96,75.19 12.05,143.92 7.72,199.15 l 0.03,-0.02 c 4.33,-55.24 4.23,-123.96 -7.74,-199.13 v 0"
         style="fill:#d7d8d6;fill-opacity:1;fill-rule:nonzero;stroke:none"
         id="path354" />
      <path
         d="m 2010.84,2126.44 c 5.92,35.68 7.52,70.78 7.51,98.5 174.78,74.48 383.93,186.84 576.45,351.26 3.96,-21.41 7.86,-48.5 10.32,-79.96 4.33,-55.23 4.24,-123.96 -7.72,-199.15 -175.36,-51.08 -444.38,-129.35 -586.56,-170.65"
         style="fill:#f4ac12;fill-opacity:1;fill-rule:nonzero;stroke:none"
         id="path356" />
      <path
         d="m 1623.35,2095.58 -401.79,473.9 c 0,0 209.52,561.88 707.6,939.33 248.72,188.25 540.48,329.19 801.68,422.43 360.46,129.21 662.12,166.66 708.82,111.56 46.92,-55.33 -39.57,-346.55 -225.81,-681.26 C 3078.93,3119.35 2892.16,2854.57 2665.78,2640 2211.93,2210.38 1623.35,2095.58 1623.35,2095.58"
         style="fill:#bebfbd;fill-opacity:1;fill-rule:nonzero;stroke:none"
         id="path358" />
      <path
         d="m 2599.42,2842.91 c -150.93,-127.97 -377.02,-109.34 -504.98,41.59 -127.97,150.93 -109.35,377.02 41.58,504.98 150.93,127.97 377.02,109.36 504.99,-41.58 127.96,-150.93 109.35,-377.02 -41.59,-504.99"
         style="fill:#999b9b;fill-opacity:1;fill-rule:nonzero;stroke:none"
         id="path360" />
      <path
         d="m 2619.02,2876.22 c -150.94,-127.97 -377.02,-109.35 -504.99,41.58 -127.97,150.93 -109.35,377.03 41.58,504.99 150.93,127.97 377.02,109.35 504.99,-41.58 127.96,-150.93 109.35,-377.02 -41.58,-504.99"
         style="fill:#fabb1e;fill-opacity:1;fill-rule:nonzero;stroke:none"
         id="path362" />
      <path
         d="m 2548.15,2960.08 c -104.62,-88.83 -261.42,-76.03 -350.25,28.58 -88.83,104.62 -76.04,261.44 28.58,350.26 104.61,88.83 261.44,76.03 350.26,-28.59 88.82,-104.61 76.03,-261.43 -28.59,-350.25"
         style="fill:#ffffff;fill-opacity:1;fill-rule:nonzero;stroke:none"
         id="path364" />
      <path
         d="m 2548.2,2960.07 c -24.17,-20.54 -51.21,-35.71 -79.51,-45.45 l -199.61,16.29 c -26.34,14.2 -50.56,33.56 -71.08,57.74 -14.94,17.59 -26.91,36.63 -36.08,56.59 l 431.06,-35.18 c -12.29,-18.21 -27.19,-35.06 -44.78,-49.99"
         style="fill:#e7e8e5;fill-opacity:1;fill-rule:nonzero;stroke:none"
         id="path366" />
      <path
         d="m 2598.29,3280.76 -397.86,32.47 c 7.9,9.04 16.6,17.68 26,25.67 104.7,88.89 261.46,76.09 350.35,-28.59 7.99,-9.41 15.18,-19.35 21.51,-29.55"
         style="fill:#e7e8e5;fill-opacity:1;fill-rule:nonzero;stroke:none"
         id="path368" />
      <path
         d="m 2619.8,3061.62 -475.98,38.85 c -1.57,7.29 -2.69,14.54 -3.43,22.11 l 486.37,-39.7 c -1.94,-7.12 -4.34,-14.2 -6.96,-21.26"
         style="fill:#e7e8e5;fill-opacity:1;fill-rule:nonzero;stroke:none"
         id="path370" />
      <path
         d="m 3213.85,3361.54 -483.01,569.7 c 360.46,129.21 662.12,166.66 708.82,111.56 46.92,-55.33 -39.57,-346.55 -225.81,-681.26"
         style="fill:#fabb1e;fill-opacity:1;fill-rule:nonzero;stroke:none"
         id="path372" />
      <path
         d="m 2872.84,3883.06 c -8.82,-7.46 -22.01,-6.38 -29.48,2.43 -7.47,8.81 -6.39,22.01 2.43,29.48 8.81,7.48 22,6.38 29.47,-2.43 7.47,-8.81 6.38,-22 -2.42,-29.48"
         style="fill:#ffffff;fill-opacity:1;fill-rule:nonzero;stroke:none"
         id="path374" />
      <path
         d="m 2958.76,3781.72 c -8.81,-7.47 -22.01,-6.38 -29.48,2.42 -7.47,8.82 -6.38,22.02 2.43,29.48 8.8,7.47 22.01,6.39 29.48,-2.42 7.47,-8.81 6.39,-22.01 -2.43,-29.48"
         style="fill:#ffffff;fill-opacity:1;fill-rule:nonzero;stroke:none"
         id="path376" />
      <path
         d="m 3044.68,3680.38 c -8.8,-7.48 -22.01,-6.39 -29.48,2.42 -7.47,8.81 -6.37,22.01 2.43,29.48 8.81,7.47 22.02,6.38 29.49,-2.43 7.47,-8.81 6.37,-22.01 -2.44,-29.47"
         style="fill:#ffffff;fill-opacity:1;fill-rule:nonzero;stroke:none"
         id="path378" />
      <path
         d="m 3130.61,3579.03 c -8.81,-7.48 -22.01,-6.39 -29.48,2.42 -7.47,8.81 -6.38,22.01 2.43,29.48 8.81,7.46 22.01,6.38 29.48,-2.43 7.46,-8.8 6.38,-22 -2.43,-29.47"
         style="fill:#ffffff;fill-opacity:1;fill-rule:nonzero;stroke:none"
         id="path380" />
      <path
         d="m 3216.54,3477.68 c -8.81,-7.47 -22.01,-6.38 -29.48,2.43 -7.47,8.8 -6.38,22 2.43,29.48 8.81,7.46 22,6.37 29.47,-2.43 7.47,-8.81 6.39,-22.01 -2.42,-29.48"
         style="fill:#ffffff;fill-opacity:1;fill-rule:nonzero;stroke:none"
         id="path382" />
      <path
         d="m 1337.48,2580.57 c -8.81,-7.47 -22,-6.38 -29.48,2.43 -7.47,8.8 -6.38,22 2.43,29.47 8.81,7.47 22.01,6.39 29.47,-2.42 7.47,-8.82 6.39,-22.01 -2.42,-29.48"
         style="fill:#999b9b;fill-opacity:1;fill-rule:nonzero;stroke:none"
         id="path384" />
      <path
         d="m 1423.4,2479.22 c -8.8,-7.47 -22,-6.39 -29.47,2.43 -7.47,8.81 -6.38,22.01 2.42,29.48 8.82,7.47 22.02,6.38 29.48,-2.43 7.48,-8.81 6.39,-22.01 -2.43,-29.48"
         style="fill:#999b9b;fill-opacity:1;fill-rule:nonzero;stroke:none"
         id="path386" />
      <path
         d="m 1509.33,2377.88 c -8.81,-7.47 -22,-6.39 -29.47,2.42 -7.48,8.81 -6.39,22.01 2.42,29.48 8.81,7.47 22.01,6.38 29.48,-2.42 7.47,-8.82 6.38,-22.02 -2.43,-29.48"
         style="fill:#999b9b;fill-opacity:1;fill-rule:nonzero;stroke:none"
         id="path388" />
      <path
         d="m 1595.26,2276.53 c -8.81,-7.47 -22.01,-6.39 -29.48,2.43 -7.47,8.8 -6.38,22 2.43,29.48 8.81,7.46 22.01,6.38 29.48,-2.43 7.47,-8.81 6.38,-22.01 -2.43,-29.48"
         style="fill:#999b9b;fill-opacity:1;fill-rule:nonzero;stroke:none"
         id="path390" />
      <path
         d="m 1681.18,2175.18 c -8.8,-7.47 -22,-6.38 -29.47,2.43 -7.47,8.81 -6.39,22.01 2.42,29.48 8.82,7.47 22.01,6.38 29.48,-2.43 7.47,-8.81 6.38,-22.01 -2.43,-29.48"
         style="fill:#999b9b;fill-opacity:1;fill-rule:nonzero;stroke:none"
         id="path392" />
      <path
         d="m 1344.18,2424.86 -122.64,144.64 c 0,0 60.35,161.87 193.29,370.21 0.02,0 0.02,0 0.04,-0.01 -132.95,-208.34 -193.31,-370.22 -193.31,-370.22 l 122.62,-144.62 M 1986,3550.5 c 0.01,0.01 0.02,0.02 0.03,0.04 149.86,106.55 312.69,196.69 473.53,270.37 -160.83,-73.7 -323.7,-163.88 -473.56,-270.41"
         style="fill:#ffffff;fill-opacity:1;fill-rule:nonzero;stroke:none"
         id="path394" />
      <path
         d="m 1855.91,3450.32 c 0,0 0,0 -0.01,0.01 20.71,17.39 41.96,34.49 63.78,51.25 v 0 c -21.82,-16.76 -43.06,-33.86 -63.77,-51.26 m 74.86,59.7 v 0.01 c 15.95,12.05 32.07,23.91 48.36,35.58 h 0.02 c -16.3,-11.67 -32.42,-23.52 -48.38,-35.59 m 54.02,39.62 h -0.02 c 0.42,0.3 0.84,0.59 1.26,0.9 -0.01,-0.02 -0.02,-0.03 -0.03,-0.04 -0.41,-0.29 -0.81,-0.57 -1.21,-0.86"
         style="fill:#f9f8f7;fill-opacity:1;fill-rule:nonzero;stroke:none"
         id="path396" />
      <path
         d="m 1919.68,3501.58 v 0 c 3.14,2.41 6.3,4.82 9.46,7.22 0.54,0.41 1.08,0.81 1.63,1.23 v -0.01 c -0.54,-0.4 -1.08,-0.81 -1.61,-1.21 -3.16,-2.4 -6.34,-4.82 -9.48,-7.23 m 59.45,44.03 c 1.87,1.34 3.76,2.69 5.64,4.03 h 0.02 c -1.88,-1.34 -3.76,-2.69 -5.64,-4.03 h -0.02"
         style="fill:#cacbc9;fill-opacity:1;fill-rule:nonzero;stroke:none"
         id="path398" />
      <path
         d="m 3009.89,4016.77 c 0.03,0.01 0.05,0.02 0.08,0.02 -0.02,0 -0.06,-0.01 -0.08,-0.02 m 0.28,0.07 c 33.45,8.41 65.63,15.78 96.27,22.09 -30.64,-6.31 -62.83,-13.68 -96.27,-22.09"
         style="fill:#ffffff;fill-opacity:1;fill-rule:nonzero;stroke:none"
         id="path400" />
      <path
         d="m 1414.87,2939.7 c -0.02,0.01 -0.02,0.01 -0.04,0.01 l 0.02,0.03 c 0.01,-0.01 0.02,-0.01 0.04,-0.01 l -0.02,-0.03"
         style="fill:#fbc73c;fill-opacity:1;fill-rule:nonzero;stroke:none"
         id="path402" />
      <path
         d="m 1855.89,3450.31 h -0.01 l 0.02,0.02 c 0.01,-0.01 0.01,-0.01 0.01,-0.01 l -0.02,-0.01"
         style="fill:#dfdfdd;fill-opacity:1;fill-rule:nonzero;stroke:none"
         id="path404" />
      <path
         d="m 1414.89,2939.73 c -0.02,0 -0.03,0 -0.04,0.01 102.24,160.22 247.37,347.88 441.03,510.57 h 0.01 c -193.65,-162.71 -338.76,-350.35 -441,-510.58"
         style="fill:#f4bb33;fill-opacity:1;fill-rule:nonzero;stroke:none"
         id="path406" />
      <path
         d="m 1374.84,2388.69 -30.66,36.17 -122.62,144.62 c 0,0 60.36,161.88 193.31,370.22 l 0.02,0.03 c 102.24,160.23 247.35,347.87 441,510.58 l 0.02,0.01 c 20.71,17.4 41.95,34.5 63.77,51.26 3.14,2.41 6.32,4.83 9.48,7.23 0.53,0.4 1.07,0.81 1.61,1.21 15.96,12.07 32.08,23.92 48.38,35.59 1.88,1.34 3.76,2.69 5.64,4.03 0.4,0.29 0.8,0.57 1.21,0.86 149.86,106.53 312.73,196.71 473.56,270.41 92.01,42.15 183.39,78.92 271.28,110.29 v 0 l 54.12,-63.8 c -196.87,-92.96 -413.43,-222.92 -634.83,-396.51 -327.63,-256.87 -577.78,-682.28 -720.58,-968.57 -0.83,2.27 -2.06,4.43 -3.72,6.38 -4.13,4.88 -10.03,7.39 -15.96,7.39 -4.78,0 -9.58,-1.63 -13.52,-4.96 -8.8,-7.47 -9.89,-20.67 -2.42,-29.48 4.14,-4.88 10.03,-7.39 15.96,-7.39 2.1,0 4.21,0.31 6.25,0.95 -15.12,-30.82 -28.9,-59.81 -41.3,-86.52 m -50.89,228.75 c -4.78,0 -9.59,-1.63 -13.52,-4.97 -8.81,-7.47 -9.9,-20.67 -2.43,-29.47 4.14,-4.88 10.04,-7.39 15.97,-7.39 4.78,0 9.58,1.63 13.51,4.96 8.81,7.47 9.89,20.66 2.42,29.48 -4.13,4.88 -10.02,7.39 -15.95,7.39"
         style="fill:#cacbc9;fill-opacity:1;fill-rule:nonzero;stroke:none"
         id="path408" />
      <path
         d="m 2784.96,3867.4 -54.09,63.8 c 98.75,35.43 193.12,63.96 279.02,85.57 0.02,0.01 0.06,0.02 0.08,0.02 0.07,0.02 0.13,0.03 0.2,0.05 33.44,8.41 65.63,15.78 96.27,22.09 92.05,18.96 170.37,28.45 228.51,28.45 35.28,0 63.11,-3.49 82.09,-10.48 -137.35,-9.78 -324.3,-55.83 -539.4,-147.8 -0.67,1.2 -1.46,2.35 -2.38,3.44 -4.14,4.88 -10.03,7.39 -15.97,7.39 -4.77,0 -9.57,-1.63 -13.5,-4.96 -6.71,-5.68 -8.95,-14.69 -6.34,-22.55 -18,-8.03 -36.13,-16.35 -54.49,-25.02"
         style="fill:#fbc73c;fill-opacity:1;fill-rule:nonzero;stroke:none"
         id="path410" />
      <path
         d="m 2839.45,3892.42 c -2.61,7.86 -0.37,16.87 6.34,22.55 3.93,3.33 8.73,4.96 13.5,4.96 5.94,0 11.83,-2.51 15.97,-7.39 0.92,-1.09 1.71,-2.24 2.38,-3.44 -12.64,-5.4 -25.36,-10.96 -38.19,-16.68"
         style="fill:#ffffff;fill-opacity:1;fill-rule:nonzero;stroke:none"
         id="path412" />
      <path
         d="m 1323.97,2575.61 c -5.93,0 -11.83,2.51 -15.97,7.39 -7.47,8.8 -6.38,22 2.43,29.47 3.93,3.34 8.74,4.97 13.52,4.97 5.93,0 11.82,-2.51 15.95,-7.39 7.47,-8.82 6.39,-22.01 -2.42,-29.48 -3.93,-3.33 -8.73,-4.96 -13.51,-4.96"
         style="fill:#acafad;fill-opacity:1;fill-rule:nonzero;stroke:none"
         id="path414" />
      <path
         d="m 1409.89,2474.26 c -5.93,0 -11.82,2.51 -15.96,7.39 -7.47,8.81 -6.38,22.01 2.42,29.48 3.94,3.33 8.74,4.96 13.52,4.96 5.93,0 11.83,-2.51 15.96,-7.39 1.66,-1.95 2.89,-4.11 3.72,-6.38 -4.59,-9.19 -9.05,-18.22 -13.41,-27.11 -2.04,-0.64 -4.15,-0.95 -6.25,-0.95"
         style="fill:#acafad;fill-opacity:1;fill-rule:nonzero;stroke:none"
         id="path416" />
      <path
         d="m 1443.87,2018.41 -326.72,385.41 127.07,138.86 357.45,-421.61 -157.8,-102.66"
         style="fill:#fabb1e;fill-opacity:1;fill-rule:nonzero;stroke:none"
         id="path418" />
      <path
         d="m 1524.74,2071.12 -329.13,418.44 48.6,53.05 357.42,-421.54 -76.89,-49.95"
         style="fill:#f4ac12;fill-opacity:1;fill-rule:nonzero;stroke:none"
         id="path420" />
      <path
         d="m 3208.72,3310.03 -149.32,9.96 -70.15,-142.2 6.42,158.43 -135.87,62.75 150.83,-1.46 68.63,133.71 -3.68,-150.26 133.14,-70.93"
         style="fill:#fcfdfc;fill-opacity:1;fill-rule:nonzero;stroke:none"
         id="path422" />
      <path
         d="m 3172.01,3861.46 -83.46,5.56 -39.21,-79.48 3.59,88.55 -75.94,35.08 84.3,-0.82 38.36,74.74 -2.06,-83.99 74.42,-39.64"
         style="fill:#fcfdfc;fill-opacity:1;fill-rule:nonzero;stroke:none"
         id="path424" />
      <path
         d="m 2496.86,2166.28 -83.45,5.56 -39.21,-79.48 3.58,88.56 -75.93,35.07 84.3,-0.82 38.36,74.74 -2.06,-83.99 74.41,-39.64"
         style="fill:#fcfdfc;fill-opacity:1;fill-rule:nonzero;stroke:none"
         id="path426" />
      <path
         d="m 1011.62,2903.8 -83.46,5.56 -39.207,-79.48 3.582,88.56 -75.93,35.07 84.293,-0.82 38.368,74.74 -2.063,-83.98 74.417,-39.65"
         style="fill:#fcfdfc;fill-opacity:1;fill-rule:nonzero;stroke:none"
         id="path428" />
      <path
         d="m 885.172,1503.63 c -56.332,16.97 -114.535,26.15 -172.863,27.53 0.07,3.08 -0.114,6.2 -0.563,9.35 -0.18,1.26 -0.402,2.51 -0.66,3.73 2.516,11.21 5.195,22.41 8.023,33.56 10.317,6.07 20.735,12.29 30.235,19.25 20.472,14.31 39.34,30.11 56.586,46.75 17.523,16.53 33.293,34.13 47.773,52.14 14.746,17.96 27.985,36.39 40.645,55.01 49.621,74.93 84.468,153.15 113.022,231.21 25.97,72.47 46.35,145.08 63.08,217.46 38.4,40.81 78.86,79.69 121.03,116.52 l 179.86,-212.17 C 1220.18,2001.91 1086.7,1871.72 989.211,1716.35 947.199,1649.67 912.043,1578.24 885.172,1503.63"
         style="fill:#fcd461;fill-opacity:1;fill-rule:nonzero;stroke:none"
         id="path430" />
      <path
         d="m 719.109,1577.8 c 20.778,81.87 49.871,161.86 86.364,238.23 66.89,140.94 157.886,269.76 264.977,383.59 -16.73,-72.38 -37.11,-144.99 -63.08,-217.46 -28.554,-78.06 -63.401,-156.28 -113.022,-231.21 -12.66,-18.62 -25.899,-37.05 -40.645,-55.01 -14.48,-18.01 -30.25,-35.61 -47.773,-52.14 -17.246,-16.64 -36.114,-32.44 -56.586,-46.75 -9.5,-6.96 -19.918,-13.18 -30.235,-19.25"
         style="fill:#fcd25e;fill-opacity:1;fill-rule:nonzero;stroke:none"
         id="path432" />
      <path
         d="m 1398.3,247.77 c -90.7,42.039 -178.24,92.511 -259.51,153.082 -0.13,0.089 -0.26,0.187 -0.38,0.277 6.41,5.922 12.72,11.992 18.95,18.211 2.03,2.039 4.03,4.058 6.03,6.121 71.15,-66.871 150.51,-125.93 234.91,-177.691"
         style="fill:#fcd25e;fill-opacity:1;fill-rule:nonzero;stroke:none"
         id="path434" />
      <path
         d="m 712.309,1531.16 c -1.364,0.03 -2.707,0.06 -4.071,0.08 0.926,4.34 1.875,8.68 2.848,13 0.258,-1.22 0.48,-2.47 0.66,-3.73 0.449,-3.15 0.633,-6.27 0.563,-9.35"
         style="fill:#fccd58;fill-opacity:1;fill-rule:nonzero;stroke:none"
         id="path436" />
      <path
         d="m 1138.41,401.129 c -79.14,58.98 -152.246,127.629 -215.48,205.73 20.117,11.332 38.683,25.68 54.394,42.571 50.806,-80.77 113.186,-155.219 183.856,-221.891 0.73,-0.699 1.47,-1.391 2.21,-2.078 -2,-2.063 -4,-4.082 -6.03,-6.121 -6.23,-6.219 -12.54,-12.289 -18.95,-18.211 M 905.086,629.48 c -10.492,13.649 -20.691,27.59 -30.563,41.778 24.899,7.953 47.602,22.652 65.2,42.961 7.675,-14.418 15.707,-28.668 24.097,-42.75 -6.355,-6.36 -13.05,-12.328 -20.394,-17.547 -6.582,-5.582 -14.098,-9.981 -21.168,-14.922 -5.606,-3.332 -11.383,-6.512 -17.172,-9.52 m -160.57,293.711 c -24.633,68.868 -42.278,140.719 -52.496,213.949 14.293,-13.29 31.73,-23.7 51.168,-29.86 11.5,-3.97 23.636,-5.79 35.851,-5.79 16.246,0 32.625,3.22 47.789,8.86 3.285,-53.12 11.016,-106.21 23.242,-158.541 -5.976,0.761 -11.965,1.14 -17.918,1.14 -31.668,0 -62.547,-10.558 -87.636,-29.758 m 24.82,203.879 c -6.918,0 -13.895,0.63 -20.867,1.78 -19.817,3.33 -39.446,10.98 -58.235,21.71 -1.625,12.81 -3.023,25.66 -4.191,38.54 -10.035,113.91 -1.848,229.45 22.195,342.14 1.364,-0.02 2.707,-0.05 4.071,-0.08 58.328,-1.38 116.531,-10.56 172.863,-27.53 -19.535,-54.24 -34.688,-110.15 -44.914,-167.17 -3.262,1.6 -6.649,3.01 -10.145,4.22 -8.57,3.18 -17.789,4.67 -27.074,4.67 -14.16,0 -28.473,-3.45 -40.867,-9.58 -20.098,-9.74 -37.656,-25.48 -49.039,-44.56 -11.383,-18.97 -16.988,-41.29 -13.551,-62.28 16.52,38.47 42.266,65.5 75.051,81.28 12.629,5.87 25.801,9.65 39.648,9.65 3.473,0 6.989,-0.24 10.551,-0.74 4.012,-0.51 8.051,-1.27 12.106,-2.28 -6.438,-40.55 -10.375,-81.62 -11.614,-122.99 -0.457,-17.74 -0.418,-35.51 0.117,-53.29 -11.91,-5.41 -24.168,-10.27 -37,-11.75 -6.289,-1.19 -12.675,-1.74 -19.105,-1.74"
         style="fill:#fccd58;fill-opacity:1;fill-rule:nonzero;stroke:none"
         id="path438" />
      <path
         d="m 779.039,1101.49 c -12.215,0 -24.351,1.82 -35.851,5.79 -19.438,6.16 -36.875,16.57 -51.168,29.86 -0.622,4.47 -1.219,8.94 -1.786,13.42 18.789,-10.73 38.418,-18.38 58.235,-21.71 6.972,-1.15 13.949,-1.78 20.867,-1.78 6.43,0 12.816,0.55 19.105,1.74 12.832,1.48 25.09,6.34 37,11.75 0.301,-10.07 0.766,-20.14 1.387,-30.21 -15.164,-5.64 -31.543,-8.86 -47.789,-8.86"
         style="fill:#f0c04b;fill-opacity:1;fill-rule:nonzero;stroke:none"
         id="path440" />
      <path
         d="m 699.582,1228.93 c -3.437,20.99 2.168,43.31 13.551,62.28 11.383,19.08 28.941,34.82 49.039,44.56 12.394,6.13 26.707,9.58 40.867,9.58 9.285,0 18.504,-1.49 27.074,-4.67 3.496,-1.21 6.883,-2.62 10.145,-4.22 -1.172,-6.52 -2.278,-13.06 -3.32,-19.62 -4.055,1.01 -8.094,1.77 -12.106,2.28 -3.562,0.5 -7.078,0.74 -10.551,0.74 -13.847,0 -27.019,-3.78 -39.648,-9.65 -32.785,-15.78 -58.531,-42.81 -75.051,-81.28"
         style="fill:#f0c04b;fill-opacity:1;fill-rule:nonzero;stroke:none"
         id="path442" />
      <path
         d="m 874.523,671.258 c -41.382,59.472 -77.136,123.441 -106.05,190.933 22.429,16.528 49.73,25.61 77.707,25.61 7.238,0 14.519,-0.61 21.773,-1.852 18.277,-58.961 42.371,-116.508 71.77,-171.73 -17.598,-20.309 -40.301,-35.008 -65.2,-42.961"
         style="fill:#fbc952;fill-opacity:1;fill-rule:nonzero;stroke:none"
         id="path444" />
      <path
         d="m 768.473,862.191 c -2.696,6.289 -5.332,12.618 -7.91,18.969 -5.641,13.871 -10.993,27.891 -16.047,42.031 25.089,19.2 55.968,29.758 87.636,29.758 5.953,0 11.942,-0.379 17.918,-1.14 2.879,-12.321 6.004,-24.59 9.383,-36.821 2.676,-9.718 5.512,-19.398 8.5,-29.039 -7.254,1.242 -14.535,1.852 -21.773,1.852 -27.977,0 -55.278,-9.082 -77.707,-25.61"
         style="fill:#f0c04b;fill-opacity:1;fill-rule:nonzero;stroke:none"
         id="path446" />
      <path
         d="m 922.93,606.859 c -1.563,1.942 -3.117,3.871 -4.672,5.813 -4.442,5.558 -8.832,11.156 -13.172,16.808 5.789,3.008 11.566,6.188 17.172,9.52 7.07,4.941 14.586,9.34 21.168,14.922 7.344,5.219 14.039,11.187 20.394,17.547 3.68,-6.18 7.434,-12.328 11.25,-18.449 0.746,-1.192 1.5,-2.399 2.254,-3.59 -15.711,-16.891 -34.277,-31.239 -54.394,-42.571"
         style="fill:#f0c04b;fill-opacity:1;fill-rule:nonzero;stroke:none"
         id="path448" />
      <path
         d="m 1371.34,2103.97 -179.86,212.17 c 3.66,3.2 7.34,6.39 11.03,9.55 l 169.51,-221.26 c -0.23,-0.15 -0.45,-0.3 -0.68,-0.46"
         style="fill:#fabb1e;fill-opacity:1;fill-rule:nonzero;stroke:none"
         id="path450" />
      <path
         d="m 1112.99,1872.14 -59.6,-11.03 -13.31,-62.81 -13.33,62.81 -59.59,11.06 59.34,14.5 13.58,59.33 13.56,-59.33 59.35,-14.53"
         style="fill:#ffffff;fill-opacity:1;fill-rule:nonzero;stroke:none"
         id="path452" />
      <path
         d="m 893.664,695.75 -33.309,-6.16 -7.445,-35.11 -7.437,35.11 -33.313,6.18 33.164,8.101 7.586,33.168 7.59,-33.168 33.164,-8.121"
         style="fill:#ffffff;fill-opacity:1;fill-rule:nonzero;stroke:none"
         id="path454" />
      <path
         d="m 875.781,1000.51 -33.308,-6.158 -7.442,-35.114 -7.445,35.114 -33.309,6.168 33.164,8.11 7.59,33.16 7.582,-33.16 33.168,-8.12"
         style="fill:#ffffff;fill-opacity:1;fill-rule:nonzero;stroke:none"
         id="path456" />
      <path
         d="m 1068.93,2067.95 -33.3,-6.16 -7.45,-35.11 -7.44,35.11 -33.31,6.18 33.17,8.09 7.58,33.18 7.59,-33.18 33.16,-8.11"
         style="fill:#ffffff;fill-opacity:1;fill-rule:nonzero;stroke:none"
         id="path458" />
      <path
         d="m 972.457,619.809 c -12.426,0 -12.445,-19.297 0,-19.297 12.422,0 12.441,19.297 0,19.297"
         style="fill:#ffffff;fill-opacity:1;fill-rule:nonzero;stroke:none"
         id="path460" />
      <path
         d="m 1248.06,2115.02 c -12.43,0 -12.45,-19.31 0,-19.31 12.42,0 12.44,19.31 0,19.31"
         style="fill:#ffffff;fill-opacity:1;fill-rule:nonzero;stroke:none"
         id="path462" />
      <path
         d="m 728.203,1253.94 c -12.426,0 -12.445,-19.31 0,-19.31 12.426,0 12.449,19.31 0,19.31"
         style="fill:#ffffff;fill-opacity:1;fill-rule:nonzero;stroke:none"
         id="path464" />
      <path
         d="m 955.27,670.059 c -8.79,0 -8.801,-13.668 0,-13.668 8.793,0 8.804,13.668 0,13.668"
         style="fill:#ffffff;fill-opacity:1;fill-rule:nonzero;stroke:none"
         id="path466" />
      <path
         d="m 724.691,1591.32 c -8.793,0 -8.804,-13.67 0,-13.67 8.789,0 8.801,13.67 0,13.67"
         style="fill:#ffffff;fill-opacity:1;fill-rule:nonzero;stroke:none"
         id="path468" />
      <path
         d="m 794.277,892.672 c -23.82,0 -23.867,-37.031 0,-37.031 23.825,0 23.864,37.031 0,37.031"
         style="fill:#ffffff;fill-opacity:1;fill-rule:nonzero;stroke:none"
         id="path470" />
      <path
         d="m 812.16,1654.13 c -23.824,0 -23.863,-37.02 0,-37.02 23.824,0 23.863,37.02 0,37.02"
         style="fill:#ffffff;fill-opacity:1;fill-rule:nonzero;stroke:none"
         id="path472" />
    </g>
  </g>
</svg>
