<svg xmlns="http://www.w3.org/2000/svg" xmlns:xlink="http://www.w3.org/1999/xlink" width="500" zoomAndPan="magnify" viewBox="0 0 375 374.999991" height="500" preserveAspectRatio="xMidYMid meet" version="1.0"><defs><clipPath id="id1"><path d="M 135 55 L 252 55 L 252 208 L 135 208 Z M 135 55 " clip-rule="nonzero"/></clipPath><clipPath id="id2"><path d="M 156.359375 40.859375 L 266.898438 98.140625 L 201.339844 224.664062 L 90.796875 167.382812 Z M 156.359375 40.859375 " clip-rule="nonzero"/></clipPath><clipPath id="id3"><path d="M 156.359375 40.859375 L 266.898438 98.140625 L 201.339844 224.664062 L 90.796875 167.382812 Z M 156.359375 40.859375 " clip-rule="nonzero"/></clipPath><clipPath id="id4"><path d="M 144 97 L 160 97 L 160 112 L 144 112 Z M 144 97 " clip-rule="nonzero"/></clipPath><clipPath id="id5"><path d="M 156.359375 40.859375 L 266.898438 98.140625 L 201.339844 224.664062 L 90.796875 167.382812 Z M 156.359375 40.859375 " clip-rule="nonzero"/></clipPath><clipPath id="id6"><path d="M 156.359375 40.859375 L 266.898438 98.140625 L 201.339844 224.664062 L 90.796875 167.382812 Z M 156.359375 40.859375 " clip-rule="nonzero"/></clipPath><clipPath id="id7"><path d="M 109 88 L 173 88 L 173 180 L 109 180 Z M 109 88 " clip-rule="nonzero"/></clipPath><clipPath id="id8"><path d="M 156.359375 40.859375 L 266.898438 98.140625 L 201.339844 224.664062 L 90.796875 167.382812 Z M 156.359375 40.859375 " clip-rule="nonzero"/></clipPath><clipPath id="id9"><path d="M 156.359375 40.859375 L 266.898438 98.140625 L 201.339844 224.664062 L 90.796875 167.382812 Z M 156.359375 40.859375 " clip-rule="nonzero"/></clipPath><clipPath id="id10"><path d="M 181 106 L 193 106 L 193 124 L 181 124 Z M 181 106 " clip-rule="nonzero"/></clipPath><clipPath id="id11"><path d="M 156.359375 40.859375 L 266.898438 98.140625 L 201.339844 224.664062 L 90.796875 167.382812 Z M 156.359375 40.859375 " clip-rule="nonzero"/></clipPath><clipPath id="id12"><path d="M 156.359375 40.859375 L 266.898438 98.140625 L 201.339844 224.664062 L 90.796875 167.382812 Z M 156.359375 40.859375 " clip-rule="nonzero"/></clipPath><clipPath id="id13"><path d="M 194 113 L 211 113 L 211 133 L 194 133 Z M 194 113 " clip-rule="nonzero"/></clipPath><clipPath id="id14"><path d="M 156.359375 40.859375 L 266.898438 98.140625 L 201.339844 224.664062 L 90.796875 167.382812 Z M 156.359375 40.859375 " clip-rule="nonzero"/></clipPath><clipPath id="id15"><path d="M 156.359375 40.859375 L 266.898438 98.140625 L 201.339844 224.664062 L 90.796875 167.382812 Z M 156.359375 40.859375 " clip-rule="nonzero"/></clipPath><clipPath id="id16"><path d="M 176 74 L 192 74 L 192 93 L 176 93 Z M 176 74 " clip-rule="nonzero"/></clipPath><clipPath id="id17"><path d="M 156.359375 40.859375 L 266.898438 98.140625 L 201.339844 224.664062 L 90.796875 167.382812 Z M 156.359375 40.859375 " clip-rule="nonzero"/></clipPath><clipPath id="id18"><path d="M 156.359375 40.859375 L 266.898438 98.140625 L 201.339844 224.664062 L 90.796875 167.382812 Z M 156.359375 40.859375 " clip-rule="nonzero"/></clipPath><clipPath id="id19"><path d="M 206 90 L 223 90 L 223 109 L 206 109 Z M 206 90 " clip-rule="nonzero"/></clipPath><clipPath id="id20"><path d="M 156.359375 40.859375 L 266.898438 98.140625 L 201.339844 224.664062 L 90.796875 167.382812 Z M 156.359375 40.859375 " clip-rule="nonzero"/></clipPath><clipPath id="id21"><path d="M 156.359375 40.859375 L 266.898438 98.140625 L 201.339844 224.664062 L 90.796875 167.382812 Z M 156.359375 40.859375 " clip-rule="nonzero"/></clipPath><clipPath id="id22"><path d="M 212 123 L 229 123 L 229 142 L 212 142 Z M 212 123 " clip-rule="nonzero"/></clipPath><clipPath id="id23"><path d="M 156.359375 40.859375 L 266.898438 98.140625 L 201.339844 224.664062 L 90.796875 167.382812 Z M 156.359375 40.859375 " clip-rule="nonzero"/></clipPath><clipPath id="id24"><path d="M 156.359375 40.859375 L 266.898438 98.140625 L 201.339844 224.664062 L 90.796875 167.382812 Z M 156.359375 40.859375 " clip-rule="nonzero"/></clipPath><clipPath id="id25"><path d="M 170 128 L 181 128 L 181 147 L 170 147 Z M 170 128 " clip-rule="nonzero"/></clipPath><clipPath id="id26"><path d="M 156.359375 40.859375 L 266.898438 98.140625 L 201.339844 224.664062 L 90.796875 167.382812 Z M 156.359375 40.859375 " clip-rule="nonzero"/></clipPath><clipPath id="id27"><path d="M 156.359375 40.859375 L 266.898438 98.140625 L 201.339844 224.664062 L 90.796875 167.382812 Z M 156.359375 40.859375 " clip-rule="nonzero"/></clipPath><clipPath id="id28"><path d="M 203 146 L 215 146 L 215 164 L 203 164 Z M 203 146 " clip-rule="nonzero"/></clipPath><clipPath id="id29"><path d="M 156.359375 40.859375 L 266.898438 98.140625 L 201.339844 224.664062 L 90.796875 167.382812 Z M 156.359375 40.859375 " clip-rule="nonzero"/></clipPath><clipPath id="id30"><path d="M 156.359375 40.859375 L 266.898438 98.140625 L 201.339844 224.664062 L 90.796875 167.382812 Z M 156.359375 40.859375 " clip-rule="nonzero"/></clipPath><clipPath id="id31"><path d="M 183 136 L 199 136 L 199 155 L 183 155 Z M 183 136 " clip-rule="nonzero"/></clipPath><clipPath id="id32"><path d="M 156.359375 40.859375 L 266.898438 98.140625 L 201.339844 224.664062 L 90.796875 167.382812 Z M 156.359375 40.859375 " clip-rule="nonzero"/></clipPath><clipPath id="id33"><path d="M 156.359375 40.859375 L 266.898438 98.140625 L 201.339844 224.664062 L 90.796875 167.382812 Z M 156.359375 40.859375 " clip-rule="nonzero"/></clipPath><clipPath id="id34"><path d="M 158 151 L 170 151 L 170 169 L 158 169 Z M 158 151 " clip-rule="nonzero"/></clipPath><clipPath id="id35"><path d="M 156.359375 40.859375 L 266.898438 98.140625 L 201.339844 224.664062 L 90.796875 167.382812 Z M 156.359375 40.859375 " clip-rule="nonzero"/></clipPath><clipPath id="id36"><path d="M 156.359375 40.859375 L 266.898438 98.140625 L 201.339844 224.664062 L 90.796875 167.382812 Z M 156.359375 40.859375 " clip-rule="nonzero"/></clipPath><clipPath id="id37"><path d="M 169 156 L 181 156 L 181 174 L 169 174 Z M 169 156 " clip-rule="nonzero"/></clipPath><clipPath id="id38"><path d="M 156.359375 40.859375 L 266.898438 98.140625 L 201.339844 224.664062 L 90.796875 167.382812 Z M 156.359375 40.859375 " clip-rule="nonzero"/></clipPath><clipPath id="id39"><path d="M 156.359375 40.859375 L 266.898438 98.140625 L 201.339844 224.664062 L 90.796875 167.382812 Z M 156.359375 40.859375 " clip-rule="nonzero"/></clipPath><clipPath id="id40"><path d="M 181 162 L 192 162 L 192 180 L 181 180 Z M 181 162 " clip-rule="nonzero"/></clipPath><clipPath id="id41"><path d="M 156.359375 40.859375 L 266.898438 98.140625 L 201.339844 224.664062 L 90.796875 167.382812 Z M 156.359375 40.859375 " clip-rule="nonzero"/></clipPath><clipPath id="id42"><path d="M 156.359375 40.859375 L 266.898438 98.140625 L 201.339844 224.664062 L 90.796875 167.382812 Z M 156.359375 40.859375 " clip-rule="nonzero"/></clipPath><clipPath id="id43"><path d="M 192 168 L 203 168 L 203 186 L 192 186 Z M 192 168 " clip-rule="nonzero"/></clipPath><clipPath id="id44"><path d="M 156.359375 40.859375 L 266.898438 98.140625 L 201.339844 224.664062 L 90.796875 167.382812 Z M 156.359375 40.859375 " clip-rule="nonzero"/></clipPath><clipPath id="id45"><path d="M 156.359375 40.859375 L 266.898438 98.140625 L 201.339844 224.664062 L 90.796875 167.382812 Z M 156.359375 40.859375 " clip-rule="nonzero"/></clipPath><clipPath id="id46"><path d="M 194 83 L 205 83 L 205 100 L 194 100 Z M 194 83 " clip-rule="nonzero"/></clipPath><clipPath id="id47"><path d="M 156.359375 40.859375 L 266.898438 98.140625 L 201.339844 224.664062 L 90.796875 167.382812 Z M 156.359375 40.859375 " clip-rule="nonzero"/></clipPath><clipPath id="id48"><path d="M 156.359375 40.859375 L 266.898438 98.140625 L 201.339844 224.664062 L 90.796875 167.382812 Z M 156.359375 40.859375 " clip-rule="nonzero"/></clipPath><clipPath id="id49"><path d="M 55.371094 154.8125 L 302.871094 154.8125 L 302.871094 320.5625 L 55.371094 320.5625 Z M 55.371094 154.8125 " clip-rule="nonzero"/></clipPath><clipPath id="id50"><path d="M 210.957031 205.433594 L 319.707031 205.433594 L 319.707031 269.933594 L 210.957031 269.933594 Z M 210.957031 205.433594 " clip-rule="nonzero"/></clipPath><clipPath id="id51"><path d="M 250.472656 214.003906 L 308.972656 214.003906 L 308.972656 261.253906 L 250.472656 261.253906 Z M 250.472656 214.003906 " clip-rule="nonzero"/></clipPath><clipPath id="id52"><path d="M 259.734375 224.808594 L 285.984375 224.808594 L 285.984375 251.058594 L 259.734375 251.058594 Z M 259.734375 224.808594 " clip-rule="nonzero"/></clipPath><clipPath id="id53"><path d="M 265.929688 231.007812 L 279.429688 231.007812 L 279.429688 244.507812 L 265.929688 244.507812 Z M 265.929688 231.007812 " clip-rule="nonzero"/></clipPath><clipPath id="id54"><path d="M 71.152344 177.632812 L 138 177.632812 L 138 218 L 71.152344 218 Z M 71.152344 177.632812 " clip-rule="nonzero"/></clipPath><clipPath id="id55"><path d="M 71.152344 195 L 87 195 L 87 243 L 71.152344 243 Z M 71.152344 195 " clip-rule="nonzero"/></clipPath><clipPath id="id56"><path d="M 153 245 L 198.652344 245 L 198.652344 276 L 153 276 Z M 153 245 " clip-rule="nonzero"/></clipPath><clipPath id="id57"><path d="M 132 254 L 198.652344 254 L 198.652344 311.882812 L 132 311.882812 Z M 132 254 " clip-rule="nonzero"/></clipPath></defs><g clip-path="url(#id1)"><g clip-path="url(#id2)"><g clip-path="url(#id3)"><path fill="#303846" d="M 251.652344 127.066406 C 251.726562 126.925781 251.757812 126.765625 251.789062 126.605469 C 251.792969 126.554688 251.8125 126.515625 251.800781 126.484375 C 251.804688 126.285156 251.808594 126.085938 251.730469 125.894531 L 238.941406 84.386719 C 238.90625 84.265625 238.855469 84.164062 238.789062 84.054688 C 238.75 83.984375 238.730469 83.921875 238.691406 83.851562 C 238.632812 83.769531 238.554688 83.679688 238.484375 83.617188 C 238.414062 83.558594 238.34375 83.496094 238.265625 83.453125 C 238.207031 83.425781 238.167969 83.351562 238.105469 83.324219 L 185.644531 56.136719 C 181.03125 53.746094 175.320312 55.5625 172.925781 60.1875 L 159.851562 85.410156 C 159.429688 86.226562 159.753906 87.257812 160.570312 87.679688 C 161.386719 88.101562 162.414062 87.773438 162.835938 86.957031 L 175.898438 61.753906 C 177.445312 58.765625 181.125 57.609375 184.085938 59.148438 L 235.074219 85.566406 L 224.710938 105.574219 C 222.65625 109.539062 224.207031 114.4375 228.144531 116.476562 L 247.894531 127.0625 L 209.496094 201.164062 C 207.949219 204.152344 204.273438 205.308594 201.308594 203.769531 L 137.648438 170.78125 C 136.832031 170.359375 135.804688 170.6875 135.378906 171.503906 C 134.957031 172.320312 135.28125 173.347656 136.097656 173.769531 L 199.738281 206.75 C 204.355469 209.140625 210.066406 207.324219 212.460938 202.699219 L 251.613281 127.144531 C 251.640625 127.136719 251.644531 127.085938 251.652344 127.066406 Z M 229.703125 113.519531 C 227.375 112.3125 226.484375 109.449219 227.683594 107.140625 L 236.945312 89.265625 L 247.34375 122.964844 Z M 229.703125 113.519531 " fill-opacity="1" fill-rule="nonzero"/></g></g></g><g clip-path="url(#id4)"><g clip-path="url(#id5)"><g clip-path="url(#id6)"><path fill="#303846" d="M 158.246094 107.652344 C 160.0625 104.148438 158.695312 99.824219 155.191406 98.007812 C 151.691406 96.195312 147.371094 97.570312 145.554688 101.078125 C 143.734375 104.582031 145.105469 108.90625 148.605469 110.722656 C 152.117188 112.515625 156.4375 111.140625 158.246094 107.652344 Z M 148.535156 102.625 C 149.496094 100.769531 151.792969 100.039062 153.644531 101 C 155.492188 101.957031 156.222656 104.253906 155.261719 106.109375 C 154.300781 107.960938 152.003906 108.691406 150.152344 107.734375 C 148.3125 106.753906 147.578125 104.476562 148.535156 102.625 Z M 148.535156 102.625 " fill-opacity="1" fill-rule="nonzero"/></g></g></g><g clip-path="url(#id7)"><g clip-path="url(#id8)"><g clip-path="url(#id9)"><path fill="#303846" d="M 139.925781 147.144531 C 141.578125 148 143.601562 147.355469 144.460938 145.703125 L 147.785156 139.285156 C 156.589844 138.945312 164.996094 134.027344 169.34375 125.636719 C 175.765625 113.246094 170.921875 97.945312 158.546875 91.535156 C 146.175781 85.121094 130.882812 89.988281 124.460938 102.382812 C 120.113281 110.769531 120.941406 120.472656 125.753906 127.84375 L 122.425781 134.261719 C 121.570312 135.914062 122.210938 137.941406 123.863281 138.796875 L 125.652344 139.722656 L 110.167969 169.609375 C 109.960938 170.007812 109.921875 170.46875 110.058594 170.894531 L 112.355469 178.097656 C 112.496094 178.550781 112.804688 178.886719 113.183594 179.082031 C 113.558594 179.28125 114.011719 179.335938 114.453125 179.210938 L 127.667969 175.140625 C 128.089844 175.003906 128.445312 174.710938 128.660156 174.289062 L 129.558594 172.558594 C 129.765625 172.160156 129.804688 171.699219 129.667969 171.273438 L 128.886719 168.796875 L 131.847656 167.851562 C 132.269531 167.71875 132.625 167.421875 132.832031 167.023438 L 133.386719 165.949219 C 133.59375 165.550781 133.632812 165.089844 133.5 164.664062 L 132.558594 161.703125 L 134.855469 160.972656 C 135.28125 160.835938 135.636719 160.539062 135.84375 160.140625 L 136.875 158.148438 C 137.039062 157.832031 137.105469 157.460938 137.03125 157.117188 L 136.269531 152.300781 L 139.152344 146.742188 Z M 127.433594 103.945312 C 133 93.207031 146.265625 88.984375 156.988281 94.542969 C 167.710938 100.097656 171.914062 113.371094 166.347656 124.109375 C 160.78125 134.851562 147.515625 139.070312 136.792969 133.515625 C 126.070312 127.960938 121.871094 114.6875 127.433594 103.945312 Z M 127.992188 130.824219 C 130.003906 133.082031 132.402344 135.03125 135.246094 136.503906 C 138.070312 137.96875 141.066406 138.8125 144.066406 139.15625 L 141.476562 144.15625 L 139.246094 143 C 139.246094 143 139.246094 143 139.226562 142.992188 L 128.664062 137.515625 C 128.644531 137.507812 128.644531 137.507812 128.625 137.496094 L 125.382812 135.816406 L 127.972656 130.816406 Z M 132.902344 152.273438 L 133.664062 157.09375 L 133.21875 157.949219 L 129.984375 158.976562 C 129.109375 159.257812 128.613281 160.210938 128.890625 161.089844 L 130.097656 164.898438 L 126.289062 166.109375 C 125.414062 166.390625 124.917969 167.347656 125.195312 168.222656 L 126.277344 171.640625 L 126.027344 172.117188 L 115.070312 175.488281 L 113.480469 170.519531 L 128.628906 141.289062 L 136.207031 145.21875 L 133.078125 151.253906 C 132.894531 151.5625 132.828125 151.933594 132.902344 152.273438 Z M 132.902344 152.273438 " fill-opacity="1" fill-rule="nonzero"/></g></g></g><g clip-path="url(#id10)"><g clip-path="url(#id11)"><g clip-path="url(#id12)"><path fill="#303846" d="M 181.925781 121.367188 C 181.503906 122.183594 181.828125 123.210938 182.644531 123.632812 C 183.460938 124.058594 184.488281 123.730469 184.910156 122.914062 L 192.199219 108.847656 C 192.625 108.027344 192.300781 107 191.484375 106.578125 C 190.667969 106.15625 189.640625 106.484375 189.214844 107.300781 Z M 181.925781 121.367188 " fill-opacity="1" fill-rule="nonzero"/></g></g></g><g clip-path="url(#id13)"><g clip-path="url(#id14)"><g clip-path="url(#id15)"><path fill="#303846" d="M 197.984375 131.582031 C 201.523438 133.417969 206.25 131.113281 208.730469 126.332031 C 211.207031 121.550781 210.363281 116.363281 206.820312 114.527344 C 203.28125 112.691406 198.554688 114.992188 196.078125 119.777344 C 193.597656 124.558594 194.441406 129.746094 197.984375 131.582031 Z M 205.273438 117.515625 C 207.0625 118.441406 207.273438 121.835938 205.746094 124.785156 C 204.21875 127.734375 201.304688 129.511719 199.53125 128.59375 C 197.722656 127.65625 197.5 124.332031 199.058594 121.324219 C 200.621094 118.3125 203.460938 116.578125 205.273438 117.515625 Z M 205.273438 117.515625 " fill-opacity="1" fill-rule="nonzero"/></g></g></g><g clip-path="url(#id16)"><g clip-path="url(#id17)"><g clip-path="url(#id18)"><path fill="#303846" d="M 190.5 86.757812 C 192.976562 81.976562 192.132812 76.785156 188.589844 74.953125 C 185.050781 73.117188 180.324219 75.417969 177.847656 80.203125 C 175.367188 84.984375 176.210938 90.171875 179.753906 92.007812 C 183.3125 93.851562 188.019531 91.539062 190.5 86.757812 Z M 180.828125 81.75 C 182.390625 78.738281 185.230469 77.003906 187.042969 77.941406 C 188.851562 78.878906 189.074219 82.203125 187.515625 85.210938 C 185.957031 88.21875 183.113281 89.957031 181.300781 89.019531 C 179.492188 88.082031 179.269531 84.757812 180.828125 81.75 Z M 180.828125 81.75 " fill-opacity="1" fill-rule="nonzero"/></g></g></g><g clip-path="url(#id19)"><g clip-path="url(#id20)"><g clip-path="url(#id21)"><path fill="#303846" d="M 210.289062 107.832031 C 213.832031 109.667969 218.558594 107.363281 221.035156 102.582031 C 223.515625 97.800781 222.667969 92.609375 219.128906 90.777344 C 215.585938 88.941406 210.859375 91.242188 208.382812 96.027344 C 205.90625 100.808594 206.75 105.996094 210.289062 107.832031 Z M 217.578125 93.765625 C 219.371094 94.691406 219.578125 98.085938 218.050781 101.035156 C 216.523438 103.984375 213.609375 105.761719 211.839844 104.84375 C 210.027344 103.90625 209.808594 100.582031 211.367188 97.570312 C 212.925781 94.5625 215.769531 92.828125 217.578125 93.765625 Z M 217.578125 93.765625 " fill-opacity="1" fill-rule="nonzero"/></g></g></g><g clip-path="url(#id22)"><g clip-path="url(#id23)"><g clip-path="url(#id24)"><path fill="#303846" d="M 227.003906 135.675781 C 229.480469 130.894531 228.636719 125.703125 225.097656 123.871094 C 221.554688 122.035156 216.828125 124.335938 214.351562 129.121094 C 211.875 133.902344 212.71875 139.089844 216.257812 140.925781 C 219.800781 142.761719 224.527344 140.457031 227.003906 135.675781 Z M 217.808594 137.9375 C 215.996094 137 215.777344 133.675781 217.335938 130.664062 C 218.894531 127.65625 221.738281 125.921875 223.546875 126.859375 C 225.339844 127.785156 225.546875 131.179688 224.019531 134.128906 C 222.492188 137.078125 219.597656 138.863281 217.808594 137.9375 Z M 217.808594 137.9375 " fill-opacity="1" fill-rule="nonzero"/></g></g></g><g clip-path="url(#id25)"><g clip-path="url(#id26)"><g clip-path="url(#id27)"><path fill="#303846" d="M 170.40625 143.601562 C 169.980469 144.417969 170.308594 145.449219 171.121094 145.871094 C 171.9375 146.292969 172.964844 145.964844 173.390625 145.148438 L 180.679688 131.082031 C 181.101562 130.265625 180.777344 129.238281 179.960938 128.816406 C 179.144531 128.390625 178.117188 128.71875 177.695312 129.535156 Z M 170.40625 143.601562 " fill-opacity="1" fill-rule="nonzero"/></g></g></g><g clip-path="url(#id28)"><g clip-path="url(#id29)"><g clip-path="url(#id30)"><path fill="#303846" d="M 214.238281 148.472656 C 214.664062 147.65625 214.339844 146.628906 213.523438 146.207031 C 212.707031 145.78125 211.679688 146.109375 211.257812 146.925781 L 203.964844 160.992188 C 203.542969 161.808594 203.867188 162.839844 204.683594 163.261719 C 205.5 163.683594 206.527344 163.355469 206.949219 162.539062 Z M 214.238281 148.472656 " fill-opacity="1" fill-rule="nonzero"/></g></g></g><g clip-path="url(#id31)"><g clip-path="url(#id32)"><g clip-path="url(#id33)"><path fill="#303846" d="M 186.460938 153.816406 C 190.003906 155.652344 194.730469 153.351562 197.207031 148.570312 C 199.683594 143.785156 198.839844 138.597656 195.300781 136.761719 C 191.757812 134.925781 187.03125 137.230469 184.554688 142.011719 C 182.074219 146.792969 182.921875 151.984375 186.460938 153.816406 Z M 193.75 139.75 C 195.542969 140.679688 195.75 144.074219 194.222656 147.023438 C 192.695312 149.972656 189.78125 151.746094 188.011719 150.828125 C 186.199219 149.890625 185.980469 146.566406 187.539062 143.558594 C 189.097656 140.550781 191.941406 138.8125 193.75 139.75 Z M 193.75 139.75 " fill-opacity="1" fill-rule="nonzero"/></g></g></g><g clip-path="url(#id34)"><g clip-path="url(#id35)"><g clip-path="url(#id36)"><path fill="#303846" d="M 158.996094 165.621094 C 158.574219 166.4375 158.898438 167.464844 159.714844 167.886719 C 160.53125 168.308594 161.558594 167.984375 161.980469 167.164062 L 169.03125 153.558594 C 169.457031 152.742188 169.128906 151.710938 168.316406 151.289062 C 167.5 150.867188 166.472656 151.195312 166.046875 152.011719 Z M 158.996094 165.621094 " fill-opacity="1" fill-rule="nonzero"/></g></g></g><g clip-path="url(#id37)"><g clip-path="url(#id38)"><g clip-path="url(#id39)"><path fill="#303846" d="M 177.230469 157.804688 L 170.175781 171.414062 C 169.753906 172.230469 170.078125 173.257812 170.894531 173.679688 C 171.710938 174.101562 172.738281 173.777344 173.160156 172.960938 L 180.214844 159.351562 C 180.636719 158.535156 180.3125 157.503906 179.496094 157.082031 C 178.679688 156.660156 177.664062 156.96875 177.230469 157.804688 Z M 177.230469 157.804688 " fill-opacity="1" fill-rule="nonzero"/></g></g></g><g clip-path="url(#id40)"><g clip-path="url(#id41)"><g clip-path="url(#id42)"><path fill="#303846" d="M 188.429688 163.609375 L 181.378906 177.21875 C 180.953125 178.035156 181.28125 179.0625 182.09375 179.484375 C 182.910156 179.90625 183.9375 179.578125 184.363281 178.761719 L 191.414062 165.15625 C 191.835938 164.335938 191.511719 163.308594 190.695312 162.886719 C 189.878906 162.464844 188.863281 162.769531 188.429688 163.609375 Z M 188.429688 163.609375 " fill-opacity="1" fill-rule="nonzero"/></g></g></g><g clip-path="url(#id43)"><g clip-path="url(#id44)"><g clip-path="url(#id45)"><path fill="#303846" d="M 201.875 168.679688 C 201.058594 168.257812 200.03125 168.585938 199.609375 169.402344 L 192.558594 183.011719 C 192.132812 183.828125 192.460938 184.855469 193.277344 185.277344 C 194.089844 185.699219 195.117188 185.375 195.542969 184.554688 L 202.59375 170.949219 C 203.027344 170.109375 202.710938 169.113281 201.875 168.679688 Z M 201.875 168.679688 " fill-opacity="1" fill-rule="nonzero"/></g></g></g><g clip-path="url(#id46)"><g clip-path="url(#id47)"><g clip-path="url(#id48)"><path fill="#303846" d="M 195.222656 99.367188 C 196.035156 99.789062 197.0625 99.460938 197.488281 98.644531 L 204.25 85.59375 C 204.671875 84.777344 204.347656 83.75 203.53125 83.324219 C 202.714844 82.902344 201.6875 83.230469 201.265625 84.046875 L 194.503906 97.097656 C 194.070312 97.933594 194.386719 98.933594 195.222656 99.367188 Z M 195.222656 99.367188 " fill-opacity="1" fill-rule="nonzero"/></g></g></g><g clip-path="url(#id49)"><path fill="#a495ff" d="M 72.652344 154.8125 L 285.589844 154.8125 C 295.132812 154.8125 302.867188 162.523438 302.867188 172.035156 L 302.867188 303.335938 C 302.867188 312.847656 295.132812 320.5625 285.589844 320.5625 L 72.652344 320.5625 C 63.113281 320.5625 55.378906 312.847656 55.378906 303.335938 L 55.378906 172.035156 C 55.378906 162.523438 63.113281 154.8125 72.652344 154.8125 " fill-opacity="1" fill-rule="nonzero"/></g><g clip-path="url(#id50)"><path fill="#a495ff" d="M 228.21875 205.433594 L 302.445312 205.433594 C 311.976562 205.433594 319.707031 213.128906 319.707031 222.617188 L 319.707031 252.75 C 319.707031 262.242188 311.976562 269.933594 302.445312 269.933594 L 228.21875 269.933594 C 218.683594 269.933594 210.957031 262.242188 210.957031 252.75 L 210.957031 222.617188 C 210.957031 213.128906 218.683594 205.433594 228.21875 205.433594 " fill-opacity="1" fill-rule="nonzero"/></g><g clip-path="url(#id51)"><path fill="#ffffff" d="M 267.675781 214.003906 L 291.765625 214.003906 C 301.265625 214.003906 308.96875 221.667969 308.96875 231.125 L 308.96875 244.132812 C 308.96875 253.589844 301.265625 261.253906 291.765625 261.253906 L 267.675781 261.253906 C 258.175781 261.253906 250.472656 253.589844 250.472656 244.132812 L 250.472656 231.125 C 250.472656 221.667969 258.175781 214.003906 267.675781 214.003906 " fill-opacity="1" fill-rule="nonzero"/></g><g clip-path="url(#id52)"><path fill="#a495ff" d="M 285.984375 237.933594 C 285.984375 238.796875 285.898438 239.648438 285.730469 240.496094 C 285.5625 241.339844 285.3125 242.160156 284.984375 242.957031 C 284.65625 243.753906 284.25 244.507812 283.773438 245.226562 C 283.292969 245.941406 282.75 246.605469 282.140625 247.214844 C 281.53125 247.824219 280.867188 248.367188 280.152344 248.847656 C 279.433594 249.324219 278.675781 249.730469 277.882812 250.058594 C 277.085938 250.390625 276.265625 250.636719 275.417969 250.804688 C 274.574219 250.976562 273.71875 251.058594 272.859375 251.058594 C 271.996094 251.058594 271.144531 250.976562 270.296875 250.804688 C 269.453125 250.636719 268.632812 250.390625 267.835938 250.058594 C 267.039062 249.730469 266.285156 249.324219 265.566406 248.847656 C 264.851562 248.367188 264.1875 247.824219 263.578125 247.214844 C 262.96875 246.605469 262.425781 245.941406 261.945312 245.226562 C 261.464844 244.507812 261.0625 243.753906 260.734375 242.957031 C 260.402344 242.160156 260.152344 241.339844 259.984375 240.496094 C 259.816406 239.648438 259.734375 238.796875 259.734375 237.933594 C 259.734375 237.070312 259.816406 236.21875 259.984375 235.375 C 260.152344 234.527344 260.402344 233.707031 260.734375 232.910156 C 261.0625 232.113281 261.464844 231.359375 261.945312 230.640625 C 262.425781 229.925781 262.96875 229.261719 263.578125 228.652344 C 264.1875 228.042969 264.851562 227.5 265.566406 227.019531 C 266.285156 226.542969 267.039062 226.136719 267.835938 225.808594 C 268.632812 225.476562 269.453125 225.230469 270.296875 225.0625 C 271.144531 224.894531 271.996094 224.808594 272.859375 224.808594 C 273.71875 224.808594 274.574219 224.894531 275.417969 225.0625 C 276.265625 225.230469 277.085938 225.476562 277.882812 225.808594 C 278.675781 226.136719 279.433594 226.542969 280.152344 227.019531 C 280.867188 227.5 281.53125 228.042969 282.140625 228.652344 C 282.75 229.261719 283.292969 229.925781 283.773438 230.640625 C 284.25 231.359375 284.65625 232.113281 284.984375 232.910156 C 285.3125 233.707031 285.5625 234.527344 285.730469 235.375 C 285.898438 236.21875 285.984375 237.070312 285.984375 237.933594 Z M 285.984375 237.933594 " fill-opacity="1" fill-rule="nonzero"/></g><g clip-path="url(#id53)"><path fill="#ffffff" d="M 279.429688 237.757812 C 279.429688 238.199219 279.386719 238.636719 279.300781 239.074219 C 279.214844 239.507812 279.085938 239.929688 278.917969 240.339844 C 278.746094 240.75 278.539062 241.136719 278.292969 241.507812 C 278.046875 241.875 277.765625 242.214844 277.453125 242.527344 C 277.140625 242.84375 276.800781 243.121094 276.429688 243.367188 C 276.0625 243.613281 275.671875 243.824219 275.265625 243.992188 C 274.855469 244.160156 274.433594 244.289062 273.996094 244.375 C 273.5625 244.460938 273.125 244.507812 272.679688 244.507812 C 272.238281 244.507812 271.796875 244.460938 271.363281 244.375 C 270.929688 244.289062 270.507812 244.160156 270.097656 243.992188 C 269.6875 243.824219 269.300781 243.613281 268.929688 243.367188 C 268.5625 243.121094 268.222656 242.84375 267.90625 242.527344 C 267.59375 242.214844 267.316406 241.875 267.066406 241.507812 C 266.820312 241.136719 266.613281 240.75 266.445312 240.339844 C 266.273438 239.929688 266.148438 239.507812 266.058594 239.074219 C 265.972656 238.636719 265.929688 238.199219 265.929688 237.757812 C 265.929688 237.3125 265.972656 236.875 266.058594 236.4375 C 266.148438 236.003906 266.273438 235.582031 266.445312 235.171875 C 266.613281 234.761719 266.820312 234.375 267.066406 234.003906 C 267.316406 233.636719 267.59375 233.296875 267.90625 232.984375 C 268.222656 232.667969 268.5625 232.390625 268.929688 232.144531 C 269.300781 231.898438 269.6875 231.6875 270.097656 231.519531 C 270.507812 231.351562 270.929688 231.222656 271.363281 231.136719 C 271.796875 231.050781 272.238281 231.007812 272.679688 231.007812 C 273.125 231.007812 273.5625 231.050781 273.996094 231.136719 C 274.433594 231.222656 274.855469 231.351562 275.265625 231.519531 C 275.671875 231.6875 276.0625 231.898438 276.429688 232.144531 C 276.800781 232.390625 277.140625 232.667969 277.453125 232.984375 C 277.765625 233.296875 278.046875 233.636719 278.292969 234.003906 C 278.539062 234.375 278.746094 234.761719 278.917969 235.171875 C 279.085938 235.582031 279.214844 236.003906 279.300781 236.4375 C 279.386719 236.875 279.429688 237.3125 279.429688 237.757812 Z M 279.429688 237.757812 " fill-opacity="1" fill-rule="nonzero"/></g><g clip-path="url(#id54)"><path fill="#ffffff" d="M 75.644531 197.324219 L 104.34375 213.898438 L 133.039062 197.324219 L 104.34375 180.75 Z M 104.34375 217.019531 C 104.09375 217.019531 103.839844 216.957031 103.617188 216.824219 L 72.023438 198.582031 C 71.578125 198.320312 71.296875 197.84375 71.296875 197.324219 C 71.296875 196.808594 71.578125 196.332031 72.023438 196.070312 L 103.617188 177.824219 C 104.066406 177.566406 104.617188 177.566406 105.066406 177.824219 L 136.660156 196.070312 C 137.105469 196.332031 137.382812 196.808594 137.382812 197.324219 C 137.382812 197.84375 137.105469 198.320312 136.660156 198.582031 L 105.066406 216.824219 C 104.84375 216.957031 104.589844 217.019531 104.34375 217.019531 " fill-opacity="1" fill-rule="nonzero"/></g><g clip-path="url(#id55)"><path fill="#ffffff" d="M 85.433594 242.589844 C 85.1875 242.589844 84.933594 242.527344 84.710938 242.394531 L 71.296875 234.652344 L 71.296875 197.324219 C 71.296875 196.527344 71.949219 195.875 72.746094 195.875 C 73.546875 195.875 74.199219 196.527344 74.199219 197.324219 L 74.199219 232.976562 L 86.15625 239.890625 C 86.847656 240.289062 87.085938 241.175781 86.6875 241.867188 C 86.417969 242.332031 85.929688 242.589844 85.433594 242.589844 " fill-opacity="1" fill-rule="nonzero"/></g><path fill="#ffffff" d="M 135.9375 232.089844 C 135.136719 232.089844 134.484375 231.441406 134.484375 230.644531 L 134.484375 197.324219 C 134.484375 196.527344 135.136719 195.875 135.9375 195.875 C 136.734375 195.875 137.382812 196.527344 137.382812 197.324219 L 137.382812 230.644531 C 137.382812 231.441406 136.734375 232.089844 135.9375 232.089844 " fill-opacity="1" fill-rule="nonzero"/><path fill="#ffffff" d="M 104.34375 228.515625 C 103.542969 228.515625 102.890625 227.863281 102.890625 227.0625 L 102.890625 215.574219 C 102.890625 214.769531 103.542969 214.121094 104.34375 214.121094 C 105.140625 214.121094 105.792969 214.769531 105.792969 215.574219 L 105.792969 227.0625 C 105.792969 227.863281 105.140625 228.515625 104.34375 228.515625 " fill-opacity="1" fill-rule="nonzero"/><g clip-path="url(#id56)"><path fill="#ffffff" d="M 165.328125 275.167969 C 165.082031 275.167969 164.832031 275.097656 164.605469 274.972656 L 154.34375 269.046875 C 153.652344 268.644531 153.410156 267.757812 153.816406 267.066406 C 154.214844 266.371094 155.101562 266.136719 155.792969 266.535156 L 165.328125 272.046875 L 194.027344 255.46875 L 182.292969 248.695312 C 181.601562 248.296875 181.367188 247.410156 181.765625 246.71875 C 182.167969 246.023438 183.054688 245.789062 183.746094 246.1875 L 197.652344 254.214844 C 198.097656 254.472656 198.375 254.957031 198.375 255.46875 C 198.375 255.988281 198.097656 256.464844 197.652344 256.722656 L 166.058594 274.972656 C 165.832031 275.097656 165.582031 275.167969 165.328125 275.167969 " fill-opacity="1" fill-rule="nonzero"/></g><g clip-path="url(#id57)"><path fill="#ffffff" d="M 165.328125 311.882812 L 132.289062 292.796875 L 132.289062 265.527344 C 132.289062 264.726562 132.9375 264.074219 133.734375 264.074219 C 134.539062 264.074219 135.183594 264.726562 135.183594 265.527344 L 135.183594 291.125 L 165.328125 308.535156 L 195.476562 291.125 L 195.476562 255.46875 C 195.476562 254.671875 196.125 254.023438 196.925781 254.023438 C 197.722656 254.023438 198.375 254.671875 198.375 255.46875 L 198.375 292.796875 L 165.328125 311.882812 " fill-opacity="1" fill-rule="nonzero"/></g><path fill="#ffffff" d="M 165.328125 299.40625 C 164.53125 299.40625 163.882812 298.753906 163.882812 297.957031 L 163.882812 273.71875 C 163.882812 272.917969 164.53125 272.265625 165.328125 272.265625 C 166.128906 272.265625 166.78125 272.917969 166.78125 273.71875 L 166.78125 297.957031 C 166.78125 298.753906 166.128906 299.40625 165.328125 299.40625 " fill-opacity="1" fill-rule="nonzero"/><path fill="#ffffff" d="M 124.425781 263.441406 L 104.792969 263.441406 C 95.964844 263.441406 88.785156 256.257812 88.785156 247.425781 C 88.785156 238.59375 95.964844 231.410156 104.792969 231.410156 L 124.425781 231.410156 C 133.253906 231.410156 140.4375 238.59375 140.4375 247.425781 C 140.4375 248.226562 139.789062 248.878906 138.988281 248.878906 C 138.191406 248.878906 137.542969 248.226562 137.542969 247.425781 C 137.542969 240.195312 131.660156 234.308594 124.425781 234.308594 L 104.792969 234.308594 C 97.566406 234.308594 91.683594 240.195312 91.683594 247.425781 C 91.683594 254.664062 97.566406 260.546875 104.792969 260.546875 L 124.425781 260.546875 C 125.226562 260.546875 125.875 261.191406 125.875 261.992188 C 125.875 262.796875 125.226562 263.441406 124.425781 263.441406 " fill-opacity="1" fill-rule="nonzero"/><path fill="#ffffff" d="M 162.675781 263.441406 L 143.046875 263.441406 C 134.21875 263.441406 127.035156 256.257812 127.035156 247.425781 C 127.035156 246.628906 127.683594 245.976562 128.480469 245.976562 C 129.285156 245.976562 129.929688 246.628906 129.929688 247.425781 C 129.929688 254.664062 135.816406 260.546875 143.046875 260.546875 L 162.675781 260.546875 C 169.90625 260.546875 175.792969 254.664062 175.792969 247.425781 C 175.792969 240.195312 169.90625 234.308594 162.675781 234.308594 L 143.046875 234.308594 C 142.246094 234.308594 141.597656 233.660156 141.597656 232.863281 C 141.597656 232.058594 142.246094 231.410156 143.046875 231.410156 L 162.675781 231.410156 C 171.503906 231.410156 178.6875 238.59375 178.6875 247.425781 C 178.6875 256.257812 171.503906 263.441406 162.675781 263.441406 " fill-opacity="1" fill-rule="nonzero"/><path fill="#ffffff" d="M 162.675781 254.050781 C 161.875 254.050781 161.230469 253.402344 161.230469 252.601562 C 161.230469 251.800781 161.875 251.152344 162.675781 251.152344 C 164.730469 251.152344 166.398438 249.480469 166.398438 247.425781 C 166.398438 245.371094 164.730469 243.703125 162.675781 243.703125 L 149.632812 243.703125 C 148.828125 243.703125 148.183594 243.050781 148.183594 242.253906 C 148.183594 241.453125 148.828125 240.800781 149.632812 240.800781 L 162.675781 240.800781 C 166.324219 240.800781 169.296875 243.777344 169.296875 247.425781 C 169.296875 251.082031 166.324219 254.050781 162.675781 254.050781 " fill-opacity="1" fill-rule="nonzero"/><path fill="#ffffff" d="M 116.800781 254.050781 L 103.757812 254.050781 C 100.101562 254.050781 97.136719 251.082031 97.136719 247.425781 C 97.136719 243.777344 100.101562 240.800781 103.757812 240.800781 C 104.554688 240.800781 105.203125 241.453125 105.203125 242.253906 C 105.203125 243.050781 104.554688 243.703125 103.757812 243.703125 C 101.703125 243.703125 100.027344 245.371094 100.027344 247.425781 C 100.027344 249.480469 101.703125 251.152344 103.757812 251.152344 L 116.800781 251.152344 C 117.597656 251.152344 118.246094 251.800781 118.246094 252.601562 C 118.246094 253.402344 117.597656 254.050781 116.800781 254.050781 " fill-opacity="1" fill-rule="nonzero"/></svg>