<svg xmlns="http://www.w3.org/2000/svg" xmlns:xlink="http://www.w3.org/1999/xlink" width="500" zoomAndPan="magnify" viewBox="0 0 375 374.999991" height="500" preserveAspectRatio="xMidYMid meet" version="1.0"><defs><clipPath id="id1"><path d="M 55.371094 104.503906 L 302.871094 104.503906 L 302.871094 270.253906 L 55.371094 270.253906 Z M 55.371094 104.503906 " clip-rule="nonzero"/></clipPath><clipPath id="id2"><path d="M 210.957031 155.125 L 319.707031 155.125 L 319.707031 219.625 L 210.957031 219.625 Z M 210.957031 155.125 " clip-rule="nonzero"/></clipPath><clipPath id="id3"><path d="M 90 123.03125 L 191.78125 123.03125 L 191.78125 251 L 90 251 Z M 90 123.03125 " clip-rule="nonzero"/></clipPath><clipPath id="id4"><path d="M 67.28125 167 L 118 167 L 118 265.53125 L 67.28125 265.53125 Z M 67.28125 167 " clip-rule="nonzero"/></clipPath><clipPath id="id5"><path d="M 250.472656 163.695312 L 308.972656 163.695312 L 308.972656 210.945312 L 250.472656 210.945312 Z M 250.472656 163.695312 " clip-rule="nonzero"/></clipPath><clipPath id="id6"><path d="M 259.734375 174.5 L 285.984375 174.5 L 285.984375 200.75 L 259.734375 200.75 Z M 259.734375 174.5 " clip-rule="nonzero"/></clipPath><clipPath id="id7"><path d="M 265.929688 180.699219 L 279.429688 180.699219 L 279.429688 194.199219 L 265.929688 194.199219 Z M 265.929688 180.699219 " clip-rule="nonzero"/></clipPath></defs><g clip-path="url(#id1)"><path fill="#a495ff" d="M 72.652344 104.503906 L 285.589844 104.503906 C 295.132812 104.503906 302.867188 112.214844 302.867188 121.726562 L 302.867188 253.027344 C 302.867188 262.539062 295.132812 270.253906 285.589844 270.253906 L 72.652344 270.253906 C 63.113281 270.253906 55.378906 262.539062 55.378906 253.027344 L 55.378906 121.726562 C 55.378906 112.214844 63.113281 104.503906 72.652344 104.503906 " fill-opacity="1" fill-rule="nonzero"/></g><g clip-path="url(#id2)"><path fill="#a495ff" d="M 228.21875 155.125 L 302.445312 155.125 C 311.976562 155.125 319.707031 162.820312 319.707031 172.308594 L 319.707031 202.441406 C 319.707031 211.933594 311.976562 219.625 302.445312 219.625 L 228.21875 219.625 C 218.683594 219.625 210.957031 211.933594 210.957031 202.441406 L 210.957031 172.308594 C 210.957031 162.820312 218.683594 155.125 228.21875 155.125 " fill-opacity="1" fill-rule="nonzero"/></g><g clip-path="url(#id3)"><path fill="#ffffff" d="M 191.550781 155.726562 C 191.550781 155.570312 191.507812 155.410156 191.460938 155.253906 C 191.441406 155.210938 191.441406 155.164062 191.417969 155.140625 C 191.328125 154.960938 191.238281 154.785156 191.082031 154.648438 L 160.632812 123.679688 C 160.542969 123.589844 160.453125 123.523438 160.339844 123.457031 C 160.273438 123.410156 160.226562 123.367188 160.160156 123.320312 C 160.070312 123.277344 159.960938 123.230469 159.871094 123.207031 C 159.78125 123.1875 159.691406 123.164062 159.601562 123.164062 C 159.535156 123.164062 159.464844 123.117188 159.398438 123.117188 L 100.3125 123.117188 C 95.117188 123.117188 90.878906 127.359375 90.878906 132.566406 L 90.878906 160.976562 C 90.878906 161.898438 91.640625 162.660156 92.5625 162.660156 C 93.480469 162.660156 94.242188 161.898438 94.242188 160.976562 L 94.242188 132.589844 C 94.242188 129.222656 96.976562 126.507812 100.3125 126.507812 L 157.742188 126.507812 L 157.742188 149.039062 C 157.742188 153.503906 161.371094 157.140625 165.808594 157.140625 L 188.214844 157.453125 L 188.214844 240.910156 C 188.214844 244.277344 185.480469 246.992188 182.140625 246.992188 L 110.441406 246.992188 C 109.523438 246.992188 108.761719 247.757812 108.761719 248.675781 C 108.761719 249.597656 109.523438 250.359375 110.441406 250.359375 L 182.121094 250.359375 C 187.316406 250.359375 191.550781 246.117188 191.550781 240.910156 L 191.550781 155.816406 C 191.574219 155.792969 191.550781 155.75 191.550781 155.726562 Z M 165.828125 153.796875 C 163.207031 153.796875 161.101562 151.664062 161.101562 149.0625 L 161.101562 128.929688 L 185.839844 154.066406 Z M 165.828125 153.796875 " fill-opacity="1" fill-rule="nonzero"/></g><path fill="#ffffff" d="M 99.6875 181.464844 C 99.6875 177.515625 96.480469 174.308594 92.539062 174.308594 C 88.59375 174.308594 85.390625 177.515625 85.390625 181.464844 C 85.390625 185.414062 88.59375 188.625 92.539062 188.625 C 96.480469 188.601562 99.6875 185.394531 99.6875 181.464844 Z M 88.75 181.464844 C 88.75 179.378906 90.453125 177.671875 92.539062 177.671875 C 94.621094 177.671875 96.324219 179.378906 96.324219 181.464844 C 96.324219 183.550781 94.621094 185.257812 92.539062 185.257812 C 90.453125 185.234375 88.75 183.550781 88.75 181.464844 Z M 88.75 181.464844 " fill-opacity="1" fill-rule="nonzero"/><g clip-path="url(#id4)"><path fill="#ffffff" d="M 101.589844 224.957031 C 103.449219 224.957031 104.953125 223.453125 104.953125 221.589844 L 104.953125 214.363281 C 112.613281 210.011719 117.8125 201.773438 117.8125 192.328125 C 117.8125 178.367188 106.476562 167.011719 92.539062 167.011719 C 78.601562 167.011719 67.265625 178.367188 67.265625 192.328125 C 67.265625 201.773438 72.460938 210.011719 80.125 214.339844 L 80.125 221.566406 C 80.125 223.429688 81.625 224.933594 83.488281 224.933594 L 85.503906 224.933594 L 85.503906 258.59375 C 85.503906 259.042969 85.683594 259.46875 85.996094 259.785156 L 91.351562 265.125 C 91.6875 265.460938 92.113281 265.617188 92.539062 265.617188 C 92.964844 265.617188 93.390625 265.460938 93.726562 265.148438 L 103.585938 255.453125 C 103.898438 255.140625 104.078125 254.710938 104.078125 254.242188 L 104.078125 252.289062 C 104.078125 251.839844 103.898438 251.414062 103.585938 251.101562 L 101.746094 249.257812 L 103.945312 247.058594 C 104.257812 246.746094 104.4375 246.320312 104.4375 245.871094 L 104.4375 244.660156 C 104.4375 244.210938 104.257812 243.785156 103.945312 243.46875 L 101.746094 241.269531 L 103.449219 239.566406 C 103.765625 239.25 103.945312 238.824219 103.945312 238.375 L 103.945312 236.132812 C 103.945312 235.773438 103.832031 235.414062 103.605469 235.144531 L 100.71875 231.21875 L 100.71875 224.957031 Z M 70.625 192.347656 C 70.625 180.253906 80.460938 170.402344 92.539062 170.402344 C 104.617188 170.402344 114.453125 180.253906 114.453125 192.347656 C 114.453125 204.445312 104.617188 214.296875 92.539062 214.296875 C 80.460938 214.296875 70.625 204.445312 70.625 192.347656 Z M 83.488281 215.957031 C 86.308594 217.035156 89.335938 217.664062 92.539062 217.664062 C 95.71875 217.664062 98.765625 217.035156 101.589844 215.957031 L 101.589844 221.589844 L 99.082031 221.589844 C 99.082031 221.589844 99.082031 221.589844 99.058594 221.589844 L 87.160156 221.589844 C 87.136719 221.589844 87.136719 221.589844 87.117188 221.589844 L 83.464844 221.589844 L 83.464844 215.957031 Z M 97.714844 232.742188 L 100.605469 236.671875 L 100.605469 237.636719 L 98.207031 240.035156 C 97.558594 240.6875 97.558594 241.765625 98.207031 242.414062 L 101.03125 245.242188 L 98.207031 248.070312 C 97.558594 248.722656 97.558594 249.796875 98.207031 250.449219 L 100.738281 252.984375 L 100.738281 253.523438 L 92.5625 261.558594 L 88.863281 257.878906 L 88.863281 224.957031 L 97.402344 224.957031 L 97.402344 231.753906 C 97.378906 232.113281 97.492188 232.472656 97.714844 232.742188 Z M 97.714844 232.742188 " fill-opacity="1" fill-rule="nonzero"/></g><path fill="#ffffff" d="M 127.023438 182.746094 C 127.023438 183.664062 127.785156 184.429688 128.703125 184.429688 C 129.621094 184.429688 130.382812 183.664062 130.382812 182.746094 L 130.382812 166.902344 C 130.382812 165.980469 129.621094 165.21875 128.703125 165.21875 C 127.785156 165.21875 127.023438 165.980469 127.023438 166.902344 Z M 127.023438 182.746094 " fill-opacity="1" fill-rule="nonzero"/><path fill="#ffffff" d="M 145.976562 184.429688 C 149.964844 184.429688 153.101562 180.207031 153.101562 174.824219 C 153.101562 169.4375 149.964844 165.21875 145.976562 165.21875 C 141.988281 165.21875 138.851562 169.4375 138.851562 174.824219 C 138.851562 180.207031 141.988281 184.429688 145.976562 184.429688 Z M 145.976562 168.585938 C 147.996094 168.585938 149.742188 171.5 149.742188 174.824219 C 149.742188 178.144531 147.972656 181.0625 145.976562 181.0625 C 143.9375 181.0625 142.214844 178.210938 142.214844 174.824219 C 142.214844 171.433594 143.9375 168.585938 145.976562 168.585938 Z M 145.976562 168.585938 " fill-opacity="1" fill-rule="nonzero"/><path fill="#ffffff" d="M 118.710938 148.074219 C 118.710938 142.6875 115.574219 138.46875 111.585938 138.46875 C 107.59375 138.46875 104.457031 142.6875 104.457031 148.074219 C 104.457031 153.460938 107.59375 157.679688 111.585938 157.679688 C 115.59375 157.679688 118.710938 153.460938 118.710938 148.074219 Z M 107.820312 148.074219 C 107.820312 144.683594 109.546875 141.835938 111.585938 141.835938 C 113.621094 141.835938 115.347656 144.683594 115.347656 148.074219 C 115.347656 151.460938 113.621094 154.3125 111.585938 154.3125 C 109.546875 154.3125 107.820312 151.460938 107.820312 148.074219 Z M 107.820312 148.074219 " fill-opacity="1" fill-rule="nonzero"/><path fill="#ffffff" d="M 145.976562 157.679688 C 149.964844 157.679688 153.101562 153.460938 153.101562 148.074219 C 153.101562 142.6875 149.964844 138.46875 145.976562 138.46875 C 141.988281 138.46875 138.851562 142.6875 138.851562 148.074219 C 138.851562 153.460938 141.988281 157.679688 145.976562 157.679688 Z M 145.976562 141.835938 C 147.996094 141.835938 149.742188 144.753906 149.742188 148.074219 C 149.742188 151.394531 147.972656 154.3125 145.976562 154.3125 C 143.9375 154.3125 142.214844 151.460938 142.214844 148.074219 C 142.214844 144.683594 143.9375 141.835938 145.976562 141.835938 Z M 145.976562 141.835938 " fill-opacity="1" fill-rule="nonzero"/><path fill="#ffffff" d="M 173.628906 174.710938 C 173.628906 169.324219 170.492188 165.105469 166.503906 165.105469 C 162.515625 165.105469 159.375 169.324219 159.375 174.710938 C 159.375 180.097656 162.515625 184.316406 166.503906 184.316406 C 170.492188 184.316406 173.628906 180.097656 173.628906 174.710938 Z M 166.503906 180.949219 C 164.464844 180.949219 162.738281 178.097656 162.738281 174.710938 C 162.738281 171.320312 164.464844 168.472656 166.503906 168.472656 C 168.519531 168.472656 170.265625 171.390625 170.265625 174.710938 C 170.265625 178.03125 168.519531 180.949219 166.503906 180.949219 Z M 166.503906 180.949219 " fill-opacity="1" fill-rule="nonzero"/><path fill="#ffffff" d="M 127.023438 207.789062 C 127.023438 208.707031 127.785156 209.472656 128.703125 209.472656 C 129.621094 209.472656 130.382812 208.707031 130.382812 207.789062 L 130.382812 191.945312 C 130.382812 191.027344 129.621094 190.261719 128.703125 190.261719 C 127.785156 190.261719 127.023438 191.027344 127.023438 191.945312 Z M 127.023438 207.789062 " fill-opacity="1" fill-rule="nonzero"/><path fill="#ffffff" d="M 168.183594 191.945312 C 168.183594 191.027344 167.421875 190.261719 166.503906 190.261719 C 165.582031 190.261719 164.820312 191.027344 164.820312 191.945312 L 164.820312 207.789062 C 164.820312 208.707031 165.582031 209.472656 166.503906 209.472656 C 167.421875 209.472656 168.183594 208.707031 168.183594 207.789062 Z M 168.183594 191.945312 " fill-opacity="1" fill-rule="nonzero"/><path fill="#ffffff" d="M 145.976562 209.472656 C 149.964844 209.472656 153.101562 205.253906 153.101562 199.867188 C 153.101562 194.480469 149.964844 190.261719 145.976562 190.261719 C 141.988281 190.261719 138.851562 194.480469 138.851562 199.867188 C 138.851562 205.253906 141.988281 209.472656 145.976562 209.472656 Z M 145.976562 193.628906 C 147.996094 193.628906 149.742188 196.546875 149.742188 199.867188 C 149.742188 203.1875 147.972656 206.105469 145.976562 206.105469 C 143.9375 206.105469 142.214844 203.253906 142.214844 199.867188 C 142.214844 196.480469 143.9375 193.628906 145.976562 193.628906 Z M 145.976562 193.628906 " fill-opacity="1" fill-rule="nonzero"/><path fill="#ffffff" d="M 127.023438 232.585938 C 127.023438 233.507812 127.785156 234.269531 128.703125 234.269531 C 129.621094 234.269531 130.382812 233.507812 130.382812 232.585938 L 130.382812 217.257812 C 130.382812 216.339844 129.621094 215.574219 128.703125 215.574219 C 127.785156 215.574219 127.023438 216.339844 127.023438 217.257812 Z M 127.023438 232.585938 " fill-opacity="1" fill-rule="nonzero"/><path fill="#ffffff" d="M 139.613281 217.257812 L 139.613281 232.585938 C 139.613281 233.507812 140.375 234.269531 141.292969 234.269531 C 142.214844 234.269531 142.976562 233.507812 142.976562 232.585938 L 142.976562 217.257812 C 142.976562 216.339844 142.214844 215.574219 141.292969 215.574219 C 140.375 215.574219 139.613281 216.316406 139.613281 217.257812 Z M 139.613281 217.257812 " fill-opacity="1" fill-rule="nonzero"/><path fill="#ffffff" d="M 152.230469 217.257812 L 152.230469 232.585938 C 152.230469 233.507812 152.992188 234.269531 153.910156 234.269531 C 154.828125 234.269531 155.589844 233.507812 155.589844 232.585938 L 155.589844 217.257812 C 155.589844 216.339844 154.828125 215.574219 153.910156 215.574219 C 152.992188 215.574219 152.230469 216.316406 152.230469 217.257812 Z M 152.230469 217.257812 " fill-opacity="1" fill-rule="nonzero"/><path fill="#ffffff" d="M 166.503906 215.574219 C 165.582031 215.574219 164.820312 216.339844 164.820312 217.257812 L 164.820312 232.585938 C 164.820312 233.507812 165.582031 234.269531 166.503906 234.269531 C 167.421875 234.269531 168.183594 233.507812 168.183594 232.585938 L 168.183594 217.257812 C 168.183594 216.316406 167.441406 215.574219 166.503906 215.574219 Z M 166.503906 215.574219 " fill-opacity="1" fill-rule="nonzero"/><path fill="#ffffff" d="M 128.703125 157.09375 C 129.621094 157.09375 130.382812 156.332031 130.382812 155.410156 L 130.382812 140.710938 C 130.382812 139.792969 129.621094 139.03125 128.703125 139.03125 C 127.785156 139.03125 127.023438 139.792969 127.023438 140.710938 L 127.023438 155.410156 C 127.023438 156.355469 127.761719 157.09375 128.703125 157.09375 Z M 128.703125 157.09375 " fill-opacity="1" fill-rule="nonzero"/><g clip-path="url(#id5)"><path fill="#ffffff" d="M 267.675781 163.695312 L 291.765625 163.695312 C 301.265625 163.695312 308.96875 171.359375 308.96875 180.816406 L 308.96875 193.824219 C 308.96875 203.28125 301.265625 210.945312 291.765625 210.945312 L 267.675781 210.945312 C 258.175781 210.945312 250.472656 203.28125 250.472656 193.824219 L 250.472656 180.816406 C 250.472656 171.359375 258.175781 163.695312 267.675781 163.695312 " fill-opacity="1" fill-rule="nonzero"/></g><g clip-path="url(#id6)"><path fill="#a495ff" d="M 285.984375 187.625 C 285.984375 188.488281 285.898438 189.339844 285.730469 190.1875 C 285.5625 191.03125 285.3125 191.851562 284.984375 192.648438 C 284.65625 193.445312 284.25 194.199219 283.773438 194.917969 C 283.292969 195.632812 282.75 196.296875 282.140625 196.90625 C 281.53125 197.515625 280.867188 198.058594 280.152344 198.539062 C 279.433594 199.015625 278.675781 199.421875 277.882812 199.75 C 277.085938 200.082031 276.265625 200.332031 275.417969 200.5 C 274.574219 200.667969 273.71875 200.75 272.859375 200.75 C 271.996094 200.75 271.144531 200.667969 270.296875 200.5 C 269.453125 200.332031 268.632812 200.082031 267.835938 199.75 C 267.039062 199.421875 266.285156 199.015625 265.566406 198.539062 C 264.851562 198.058594 264.1875 197.515625 263.578125 196.90625 C 262.96875 196.296875 262.425781 195.632812 261.945312 194.917969 C 261.464844 194.199219 261.0625 193.445312 260.734375 192.648438 C 260.402344 191.851562 260.152344 191.03125 259.984375 190.1875 C 259.816406 189.339844 259.734375 188.488281 259.734375 187.625 C 259.734375 186.761719 259.816406 185.910156 259.984375 185.066406 C 260.152344 184.21875 260.402344 183.398438 260.734375 182.601562 C 261.0625 181.804688 261.464844 181.050781 261.945312 180.332031 C 262.425781 179.617188 262.96875 178.953125 263.578125 178.34375 C 264.1875 177.734375 264.851562 177.191406 265.566406 176.710938 C 266.285156 176.234375 267.039062 175.828125 267.835938 175.5 C 268.632812 175.167969 269.453125 174.921875 270.296875 174.753906 C 271.144531 174.585938 271.996094 174.5 272.859375 174.5 C 273.71875 174.5 274.574219 174.585938 275.417969 174.753906 C 276.265625 174.921875 277.085938 175.167969 277.882812 175.5 C 278.675781 175.828125 279.433594 176.234375 280.152344 176.710938 C 280.867188 177.191406 281.53125 177.734375 282.140625 178.34375 C 282.75 178.953125 283.292969 179.617188 283.773438 180.332031 C 284.25 181.050781 284.65625 181.804688 284.984375 182.601562 C 285.3125 183.398438 285.5625 184.21875 285.730469 185.066406 C 285.898438 185.910156 285.984375 186.761719 285.984375 187.625 Z M 285.984375 187.625 " fill-opacity="1" fill-rule="nonzero"/></g><g clip-path="url(#id7)"><path fill="#ffffff" d="M 279.429688 187.449219 C 279.429688 187.890625 279.386719 188.328125 279.300781 188.765625 C 279.214844 189.199219 279.085938 189.621094 278.917969 190.03125 C 278.746094 190.441406 278.539062 190.828125 278.292969 191.199219 C 278.046875 191.566406 277.765625 191.90625 277.453125 192.21875 C 277.140625 192.535156 276.800781 192.8125 276.429688 193.058594 C 276.0625 193.304688 275.671875 193.515625 275.265625 193.683594 C 274.855469 193.851562 274.433594 193.980469 273.996094 194.066406 C 273.5625 194.15625 273.125 194.199219 272.679688 194.199219 C 272.238281 194.199219 271.796875 194.15625 271.363281 194.066406 C 270.929688 193.980469 270.507812 193.851562 270.097656 193.683594 C 269.6875 193.515625 269.300781 193.304688 268.929688 193.058594 C 268.5625 192.8125 268.222656 192.535156 267.90625 192.21875 C 267.59375 191.90625 267.316406 191.566406 267.066406 191.199219 C 266.820312 190.828125 266.613281 190.441406 266.445312 190.03125 C 266.273438 189.621094 266.148438 189.199219 266.058594 188.765625 C 265.972656 188.328125 265.929688 187.890625 265.929688 187.449219 C 265.929688 187.003906 265.972656 186.566406 266.058594 186.128906 C 266.148438 185.695312 266.273438 185.273438 266.445312 184.863281 C 266.613281 184.453125 266.820312 184.066406 267.066406 183.699219 C 267.316406 183.328125 267.59375 182.988281 267.90625 182.675781 C 268.222656 182.359375 268.5625 182.082031 268.929688 181.835938 C 269.300781 181.589844 269.6875 181.382812 270.097656 181.210938 C 270.507812 181.042969 270.929688 180.914062 271.363281 180.828125 C 271.796875 180.742188 272.238281 180.699219 272.679688 180.699219 C 273.125 180.699219 273.5625 180.742188 273.996094 180.828125 C 274.433594 180.914062 274.855469 181.042969 275.265625 181.210938 C 275.671875 181.382812 276.0625 181.589844 276.429688 181.835938 C 276.800781 182.082031 277.140625 182.359375 277.453125 182.675781 C 277.765625 182.988281 278.046875 183.328125 278.292969 183.699219 C 278.539062 184.066406 278.746094 184.453125 278.917969 184.863281 C 279.085938 185.273438 279.214844 185.695312 279.300781 186.128906 C 279.386719 186.566406 279.429688 187.003906 279.429688 187.449219 Z M 279.429688 187.449219 " fill-opacity="1" fill-rule="nonzero"/></g></svg>