<svg width="117" height="136" viewBox="0 0 117 136" fill="none" xmlns="http://www.w3.org/2000/svg">
<path d="M8.5599 107.28C9.0399 108.16 9.58657 109.253 10.1999 110.56C10.8399 111.84 11.4932 113.24 12.1599 114.76C12.8532 116.253 13.5332 117.787 14.1999 119.36C14.8666 120.933 15.4932 122.413 16.0799 123.8C16.6666 122.413 17.2932 120.933 17.9599 119.36C18.6266 117.787 19.2932 116.253 19.9599 114.76C20.6532 113.24 21.3066 111.84 21.9199 110.56C22.5599 109.253 23.1199 108.16 23.5999 107.28H29.2799C29.5466 109.12 29.7866 111.187 29.9999 113.48C30.2399 115.747 30.4399 118.12 30.5999 120.6C30.7866 123.053 30.9466 125.52 31.0799 128C31.2399 130.48 31.3732 132.813 31.4799 135H25.3999C25.3199 132.307 25.2132 129.373 25.0799 126.2C24.9466 123.027 24.7466 119.827 24.4799 116.6C23.9999 117.72 23.4666 118.96 22.8799 120.32C22.2932 121.68 21.7066 123.04 21.1199 124.4C20.5599 125.76 20.0132 127.067 19.4799 128.32C18.9466 129.547 18.4932 130.6 18.1199 131.48H13.7599C13.3866 130.6 12.9332 129.547 12.3999 128.32C11.8666 127.067 11.3066 125.76 10.7199 124.4C10.1599 123.04 9.58657 121.68 8.9999 120.32C8.41324 118.96 7.8799 117.72 7.3999 116.6C7.13324 119.827 6.93324 123.027 6.7999 126.2C6.66657 129.373 6.5599 132.307 6.4799 135H0.399902C0.506569 132.813 0.626569 130.48 0.759902 128C0.919902 125.52 1.0799 123.053 1.2399 120.6C1.42657 118.12 1.62657 115.747 1.8399 113.48C2.0799 111.187 2.33324 109.12 2.5999 107.28H8.5599Z" fill="black"/>
<path d="M44.7383 130.84C45.325 130.84 45.885 130.827 46.4183 130.8C46.9517 130.773 47.3783 130.733 47.6983 130.68V126.16C47.4583 126.107 47.0983 126.053 46.6183 126C46.1383 125.947 45.6983 125.92 45.2983 125.92C44.7383 125.92 44.205 125.96 43.6983 126.04C43.2183 126.093 42.7917 126.213 42.4183 126.4C42.045 126.587 41.7517 126.84 41.5383 127.16C41.325 127.48 41.2183 127.88 41.2183 128.36C41.2183 129.293 41.525 129.947 42.1383 130.32C42.7783 130.667 43.645 130.84 44.7383 130.84ZM44.2583 113.4C46.0183 113.4 47.485 113.6 48.6583 114C49.8317 114.4 50.765 114.973 51.4583 115.72C52.1783 116.467 52.685 117.373 52.9783 118.44C53.2717 119.507 53.4183 120.693 53.4183 122V134.4C52.565 134.587 51.3783 134.8 49.8583 135.04C48.3383 135.307 46.4983 135.44 44.3383 135.44C42.9783 135.44 41.7383 135.32 40.6183 135.08C39.525 134.84 38.5783 134.453 37.7783 133.92C36.9783 133.36 36.365 132.64 35.9383 131.76C35.5117 130.88 35.2983 129.8 35.2983 128.52C35.2983 127.293 35.5383 126.253 36.0183 125.4C36.525 124.547 37.1917 123.867 38.0183 123.36C38.845 122.853 39.7917 122.493 40.8583 122.28C41.925 122.04 43.0317 121.92 44.1783 121.92C44.9517 121.92 45.6317 121.96 46.2183 122.04C46.8317 122.093 47.325 122.173 47.6983 122.28V121.72C47.6983 120.707 47.3917 119.893 46.7783 119.28C46.165 118.667 45.0983 118.36 43.5783 118.36C42.565 118.36 41.565 118.44 40.5783 118.6C39.5917 118.733 38.7383 118.933 38.0183 119.2L37.2583 114.4C37.605 114.293 38.0317 114.187 38.5383 114.08C39.0717 113.947 39.645 113.84 40.2583 113.76C40.8717 113.653 41.5117 113.573 42.1783 113.52C42.8717 113.44 43.565 113.4 44.2583 113.4Z" fill="black"/>
<path d="M64.8477 130.72C65.9411 130.72 66.7144 130.613 67.1677 130.4C67.6211 130.187 67.8477 129.773 67.8477 129.16C67.8477 128.68 67.5544 128.267 66.9677 127.92C66.381 127.547 65.4877 127.133 64.2877 126.68C63.3544 126.333 62.501 125.973 61.7277 125.6C60.981 125.227 60.341 124.787 59.8077 124.28C59.2744 123.747 58.861 123.12 58.5677 122.4C58.2744 121.68 58.1277 120.813 58.1277 119.8C58.1277 117.827 58.861 116.267 60.3277 115.12C61.7944 113.973 63.8077 113.4 66.3677 113.4C67.6477 113.4 68.8744 113.52 70.0477 113.76C71.221 113.973 72.1544 114.213 72.8477 114.48L71.8077 119.12C71.1144 118.88 70.3544 118.667 69.5277 118.48C68.7277 118.293 67.8211 118.2 66.8077 118.2C64.941 118.2 64.0077 118.72 64.0077 119.76C64.0077 120 64.0477 120.213 64.1277 120.4C64.2077 120.587 64.3677 120.773 64.6077 120.96C64.8477 121.12 65.1677 121.307 65.5677 121.52C65.9944 121.707 66.5277 121.92 67.1677 122.16C68.4744 122.64 69.5544 123.12 70.4077 123.6C71.261 124.053 71.9277 124.56 72.4077 125.12C72.9144 125.653 73.261 126.253 73.4477 126.92C73.661 127.587 73.7677 128.36 73.7677 129.24C73.7677 131.32 72.981 132.893 71.4077 133.96C69.861 135.027 67.661 135.56 64.8077 135.56C62.941 135.56 61.381 135.4 60.1277 135.08C58.901 134.76 58.0477 134.493 57.5677 134.28L58.5677 129.44C59.581 129.84 60.621 130.16 61.6877 130.4C62.7544 130.613 63.8077 130.72 64.8477 130.72Z" fill="black"/>
<path d="M77.2218 124.48C77.2218 122.96 77.4618 121.533 77.9418 120.2C78.4484 118.84 79.1684 117.667 80.1018 116.68C81.0351 115.667 82.1684 114.867 83.5018 114.28C84.8351 113.693 86.3551 113.4 88.0618 113.4C89.1818 113.4 90.2084 113.507 91.1418 113.72C92.0751 113.907 92.9818 114.187 93.8618 114.56L92.6218 119.32C92.0618 119.107 91.4484 118.92 90.7818 118.76C90.1151 118.6 89.3684 118.52 88.5418 118.52C86.7818 118.52 85.4618 119.067 84.5818 120.16C83.7284 121.253 83.3018 122.693 83.3018 124.48C83.3018 126.373 83.7018 127.84 84.5018 128.88C85.3284 129.92 86.7551 130.44 88.7818 130.44C89.5018 130.44 90.2751 130.373 91.1018 130.24C91.9284 130.107 92.6884 129.893 93.3818 129.6L94.2218 134.48C93.5284 134.773 92.6618 135.027 91.6218 135.24C90.5818 135.453 89.4351 135.56 88.1818 135.56C86.2618 135.56 84.6084 135.28 83.2218 134.72C81.8351 134.133 80.6884 133.347 79.7818 132.36C78.9018 131.373 78.2484 130.213 77.8218 128.88C77.4218 127.52 77.2218 126.053 77.2218 124.48Z" fill="black"/>
<path d="M105.246 130.84C105.833 130.84 106.393 130.827 106.926 130.8C107.459 130.773 107.886 130.733 108.206 130.68V126.16C107.966 126.107 107.606 126.053 107.126 126C106.646 125.947 106.206 125.92 105.806 125.92C105.246 125.92 104.713 125.96 104.206 126.04C103.726 126.093 103.299 126.213 102.926 126.4C102.553 126.587 102.259 126.84 102.046 127.16C101.833 127.48 101.726 127.88 101.726 128.36C101.726 129.293 102.033 129.947 102.646 130.32C103.286 130.667 104.153 130.84 105.246 130.84ZM104.766 113.4C106.526 113.4 107.993 113.6 109.166 114C110.339 114.4 111.273 114.973 111.966 115.72C112.686 116.467 113.193 117.373 113.486 118.44C113.779 119.507 113.926 120.693 113.926 122V134.4C113.073 134.587 111.886 134.8 110.366 135.04C108.846 135.307 107.006 135.44 104.846 135.44C103.486 135.44 102.246 135.32 101.126 135.08C100.033 134.84 99.0862 134.453 98.2862 133.92C97.4862 133.36 96.8728 132.64 96.4462 131.76C96.0195 130.88 95.8062 129.8 95.8062 128.52C95.8062 127.293 96.0462 126.253 96.5262 125.4C97.0328 124.547 97.6995 123.867 98.5262 123.36C99.3528 122.853 100.299 122.493 101.366 122.28C102.433 122.04 103.539 121.92 104.686 121.92C105.459 121.92 106.139 121.96 106.726 122.04C107.339 122.093 107.833 122.173 108.206 122.28V121.72C108.206 120.707 107.899 119.893 107.286 119.28C106.673 118.667 105.606 118.36 104.086 118.36C103.073 118.36 102.073 118.44 101.086 118.6C100.099 118.733 99.2462 118.933 98.5262 119.2L97.7662 114.4C98.1128 114.293 98.5395 114.187 99.0462 114.08C99.5795 113.947 100.153 113.84 100.766 113.76C101.379 113.653 102.019 113.573 102.686 113.52C103.379 113.44 104.073 113.4 104.766 113.4Z" fill="black"/>
<path d="M104 46C104 71.4051 83.405 92 57.9999 92C32.5948 92 11.9999 71.4051 11.9999 46C11.9999 20.5949 32.5948 0 57.9999 0C83.405 0 104 20.5949 104 46Z" fill="url(#paint0_linear_730_31823)"/>
<path d="M48.9999 37C48.9999 34.2386 51.2385 32 53.9999 32H112C114.761 32 117 34.2386 117 37V64C117 66.7614 114.761 69 112 69H53.9999C51.2385 69 48.9999 66.7614 48.9999 64V37Z" fill="black"/>
<defs>
<linearGradient id="paint0_linear_730_31823" x1="58.6999" y1="0" x2="58.6999" y2="135.56" gradientUnits="userSpaceOnUse">
<stop stop-color="#FE3D67"/>
<stop offset="1" stop-color="#FF7131"/>
</linearGradient>
</defs>
</svg>
