<svg width="415" height="364" viewBox="0 0 415 364" fill="none" xmlns="http://www.w3.org/2000/svg">
<path d="M363.619 182C363.619 282.516 282.22 364 181.81 364C81.3989 364 0 282.516 0 182C0 81.4842 81.3989 0 181.81 0C282.22 0 363.619 81.4842 363.619 182Z" fill="url(#paint0_linear_726_33256)"/>
<path d="M146.238 146.391C146.238 135.466 155.086 126.609 166 126.609H395.238C406.152 126.609 415 135.466 415 146.391V253.217C415 264.143 406.152 273 395.238 273H166C155.086 273 146.238 264.143 146.238 253.217V146.391Z" fill="white"/>
<defs>
<linearGradient id="paint0_linear_726_33256" x1="207.5" y1="0" x2="207.5" y2="364" gradientUnits="userSpaceOnUse">
<stop stop-color="#FE3D67"/>
<stop offset="1" stop-color="#FF7131"/>
</linearGradient>
</defs>
</svg>
