<svg width="117" height="136" viewBox="0 0 117 136" fill="none" xmlns="http://www.w3.org/2000/svg">
<path d="M8.16 107.28C8.64 108.16 9.18667 109.253 9.8 110.56C10.44 111.84 11.0933 113.24 11.76 114.76C12.4533 116.253 13.1333 117.787 13.8 119.36C14.4667 120.933 15.0933 122.413 15.68 123.8C16.2667 122.413 16.8933 120.933 17.56 119.36C18.2267 117.787 18.8933 116.253 19.56 114.76C20.2533 113.24 20.9067 111.84 21.52 110.56C22.16 109.253 22.72 108.16 23.2 107.28H28.88C29.1467 109.12 29.3867 111.187 29.6 113.48C29.84 115.747 30.04 118.12 30.2 120.6C30.3867 123.053 30.5467 125.52 30.68 128C30.84 130.48 30.9733 132.813 31.08 135H25C24.92 132.307 24.8133 129.373 24.68 126.2C24.5467 123.027 24.3467 119.827 24.08 116.6C23.6 117.72 23.0667 118.96 22.48 120.32C21.8933 121.68 21.3067 123.04 20.72 124.4C20.16 125.76 19.6133 127.067 19.08 128.32C18.5467 129.547 18.0933 130.6 17.72 131.48H13.36C12.9867 130.6 12.5333 129.547 12 128.32C11.4667 127.067 10.9067 125.76 10.32 124.4C9.76 123.04 9.18667 121.68 8.6 120.32C8.01333 118.96 7.48 117.72 7 116.6C6.73333 119.827 6.53333 123.027 6.4 126.2C6.26667 129.373 6.16 132.307 6.08 135H0C0.106667 132.813 0.226667 130.48 0.36 128C0.52 125.52 0.68 123.053 0.84 120.6C1.02667 118.12 1.22667 115.747 1.44 113.48C1.68 111.187 1.93333 109.12 2.2 107.28H8.16Z" fill="white"/>
<path d="M44.3384 130.84C44.9251 130.84 45.4851 130.827 46.0184 130.8C46.5518 130.773 46.9784 130.733 47.2984 130.68V126.16C47.0584 126.107 46.6984 126.053 46.2184 126C45.7384 125.947 45.2984 125.92 44.8984 125.92C44.3384 125.92 43.8051 125.96 43.2984 126.04C42.8184 126.093 42.3918 126.213 42.0184 126.4C41.6451 126.587 41.3518 126.84 41.1384 127.16C40.9251 127.48 40.8184 127.88 40.8184 128.36C40.8184 129.293 41.1251 129.947 41.7384 130.32C42.3784 130.667 43.2451 130.84 44.3384 130.84ZM43.8584 113.4C45.6184 113.4 47.0851 113.6 48.2584 114C49.4318 114.4 50.3651 114.973 51.0584 115.72C51.7784 116.467 52.2851 117.373 52.5784 118.44C52.8718 119.507 53.0184 120.693 53.0184 122V134.4C52.1651 134.587 50.9784 134.8 49.4584 135.04C47.9384 135.307 46.0984 135.44 43.9384 135.44C42.5784 135.44 41.3384 135.32 40.2184 135.08C39.1251 134.84 38.1784 134.453 37.3784 133.92C36.5784 133.36 35.9651 132.64 35.5384 131.76C35.1118 130.88 34.8984 129.8 34.8984 128.52C34.8984 127.293 35.1384 126.253 35.6184 125.4C36.1251 124.547 36.7918 123.867 37.6184 123.36C38.4451 122.853 39.3918 122.493 40.4584 122.28C41.5251 122.04 42.6318 121.92 43.7784 121.92C44.5518 121.92 45.2318 121.96 45.8184 122.04C46.4318 122.093 46.9251 122.173 47.2984 122.28V121.72C47.2984 120.707 46.9918 119.893 46.3784 119.28C45.7651 118.667 44.6984 118.36 43.1784 118.36C42.1651 118.36 41.1651 118.44 40.1784 118.6C39.1918 118.733 38.3384 118.933 37.6184 119.2L36.8584 114.4C37.2051 114.293 37.6318 114.187 38.1384 114.08C38.6718 113.947 39.2451 113.84 39.8584 113.76C40.4718 113.653 41.1118 113.573 41.7784 113.52C42.4718 113.44 43.1651 113.4 43.8584 113.4Z" fill="white"/>
<path d="M64.4478 130.72C65.5411 130.72 66.3145 130.613 66.7678 130.4C67.2211 130.187 67.4478 129.773 67.4478 129.16C67.4478 128.68 67.1545 128.267 66.5678 127.92C65.9811 127.547 65.0878 127.133 63.8878 126.68C62.9545 126.333 62.1011 125.973 61.3278 125.6C60.5811 125.227 59.9411 124.787 59.4078 124.28C58.8745 123.747 58.4611 123.12 58.1678 122.4C57.8745 121.68 57.7278 120.813 57.7278 119.8C57.7278 117.827 58.4611 116.267 59.9278 115.12C61.3945 113.973 63.4078 113.4 65.9678 113.4C67.2478 113.4 68.4745 113.52 69.6478 113.76C70.8211 113.973 71.7545 114.213 72.4478 114.48L71.4078 119.12C70.7145 118.88 69.9545 118.667 69.1278 118.48C68.3278 118.293 67.4211 118.2 66.4078 118.2C64.5411 118.2 63.6078 118.72 63.6078 119.76C63.6078 120 63.6478 120.213 63.7278 120.4C63.8078 120.587 63.9678 120.773 64.2078 120.96C64.4478 121.12 64.7678 121.307 65.1678 121.52C65.5945 121.707 66.1278 121.92 66.7678 122.16C68.0745 122.64 69.1545 123.12 70.0078 123.6C70.8611 124.053 71.5278 124.56 72.0078 125.12C72.5145 125.653 72.8611 126.253 73.0478 126.92C73.2611 127.587 73.3678 128.36 73.3678 129.24C73.3678 131.32 72.5811 132.893 71.0078 133.96C69.4611 135.027 67.2611 135.56 64.4078 135.56C62.5411 135.56 60.9811 135.4 59.7278 135.08C58.5011 134.76 57.6478 134.493 57.1678 134.28L58.1678 129.44C59.1811 129.84 60.2211 130.16 61.2878 130.4C62.3545 130.613 63.4078 130.72 64.4478 130.72Z" fill="white"/>
<path d="M76.8219 124.48C76.8219 122.96 77.0619 121.533 77.5419 120.2C78.0485 118.84 78.7685 117.667 79.7019 116.68C80.6352 115.667 81.7685 114.867 83.1019 114.28C84.4352 113.693 85.9552 113.4 87.6619 113.4C88.7819 113.4 89.8085 113.507 90.7419 113.72C91.6752 113.907 92.5819 114.187 93.4619 114.56L92.2219 119.32C91.6619 119.107 91.0485 118.92 90.3819 118.76C89.7152 118.6 88.9685 118.52 88.1419 118.52C86.3819 118.52 85.0619 119.067 84.1819 120.16C83.3285 121.253 82.9019 122.693 82.9019 124.48C82.9019 126.373 83.3019 127.84 84.1019 128.88C84.9285 129.92 86.3552 130.44 88.3819 130.44C89.1019 130.44 89.8752 130.373 90.7019 130.24C91.5285 130.107 92.2885 129.893 92.9819 129.6L93.8219 134.48C93.1285 134.773 92.2619 135.027 91.2219 135.24C90.1819 135.453 89.0352 135.56 87.7819 135.56C85.8619 135.56 84.2085 135.28 82.8219 134.72C81.4352 134.133 80.2885 133.347 79.3819 132.36C78.5019 131.373 77.8485 130.213 77.4219 128.88C77.0219 127.52 76.8219 126.053 76.8219 124.48Z" fill="white"/>
<path d="M104.846 130.84C105.433 130.84 105.993 130.827 106.526 130.8C107.06 130.773 107.486 130.733 107.806 130.68V126.16C107.566 126.107 107.206 126.053 106.726 126C106.246 125.947 105.806 125.92 105.406 125.92C104.846 125.92 104.313 125.96 103.806 126.04C103.326 126.093 102.9 126.213 102.526 126.4C102.153 126.587 101.86 126.84 101.646 127.16C101.433 127.48 101.326 127.88 101.326 128.36C101.326 129.293 101.633 129.947 102.246 130.32C102.886 130.667 103.753 130.84 104.846 130.84ZM104.366 113.4C106.126 113.4 107.593 113.6 108.766 114C109.94 114.4 110.873 114.973 111.566 115.72C112.286 116.467 112.793 117.373 113.086 118.44C113.38 119.507 113.526 120.693 113.526 122V134.4C112.673 134.587 111.486 134.8 109.966 135.04C108.446 135.307 106.606 135.44 104.446 135.44C103.086 135.44 101.846 135.32 100.726 135.08C99.6329 134.84 98.6863 134.453 97.8863 133.92C97.0863 133.36 96.4729 132.64 96.0462 131.76C95.6196 130.88 95.4062 129.8 95.4062 128.52C95.4062 127.293 95.6463 126.253 96.1263 125.4C96.6329 124.547 97.2996 123.867 98.1263 123.36C98.9529 122.853 99.8996 122.493 100.966 122.28C102.033 122.04 103.14 121.92 104.286 121.92C105.06 121.92 105.74 121.96 106.326 122.04C106.94 122.093 107.433 122.173 107.806 122.28V121.72C107.806 120.707 107.5 119.893 106.886 119.28C106.273 118.667 105.206 118.36 103.686 118.36C102.673 118.36 101.673 118.44 100.686 118.6C99.6996 118.733 98.8463 118.933 98.1263 119.2L97.3662 114.4C97.7129 114.293 98.1396 114.187 98.6462 114.08C99.1796 113.947 99.7529 113.84 100.366 113.76C100.98 113.653 101.62 113.573 102.286 113.52C102.98 113.44 103.673 113.4 104.366 113.4Z" fill="white"/>
<path d="M103.6 46C103.6 71.4051 83.0051 92 57.6 92C32.1949 92 11.6 71.4051 11.6 46C11.6 20.5949 32.1949 0 57.6 0C83.0051 0 103.6 20.5949 103.6 46Z" fill="url(#paint0_linear_727_33262)"/>
<path d="M48.6 37C48.6 34.2386 50.8386 32 53.6 32H111.6C114.361 32 116.6 34.2386 116.6 37V64C116.6 66.7614 114.361 69 111.6 69H53.6C50.8386 69 48.6 66.7614 48.6 64V37Z" fill="white"/>
<defs>
<linearGradient id="paint0_linear_727_33262" x1="58.3" y1="0" x2="58.3" y2="135.56" gradientUnits="userSpaceOnUse">
<stop stop-color="#FE3D67"/>
<stop offset="1" stop-color="#FF7131"/>
</linearGradient>
</defs>
</svg>
